<mxfile host="app.diagrams.net" modified="2024-02-01T22:48:40.999Z" agent="Mozilla/5.0 (Macintosh; Intel Mac OS X 10_15_7) AppleWebKit/537.36 (KHTML, like Gecko) Chrome/121.0.0.0 Safari/537.36" etag="g_QQpwybC6uf8DA4JaXr" version="23.1.1" type="github">
  <diagram name="Page-1" id="C1dGHhPYyp4VSmXbuRy3">
    <mxGraphModel dx="1406" dy="803" grid="1" gridSize="10" guides="1" tooltips="1" connect="1" arrows="1" fold="1" page="1" pageScale="1" pageWidth="850" pageHeight="1100" math="0" shadow="0">
      <root>
        <mxCell id="0" />
        <mxCell id="1" parent="0" />
        <mxCell id="lvz8d1WP9f2KZza9czsT-43" style="edgeStyle=orthogonalEdgeStyle;rounded=0;orthogonalLoop=1;jettySize=auto;html=1;exitX=1;exitY=0.5;exitDx=0;exitDy=0;entryX=0;entryY=0.5;entryDx=0;entryDy=0;dashed=1;flowAnimation=1;" edge="1" parent="1" source="lvz8d1WP9f2KZza9czsT-24" target="lvz8d1WP9f2KZza9czsT-42">
          <mxGeometry relative="1" as="geometry" />
        </mxCell>
        <mxCell id="lvz8d1WP9f2KZza9czsT-24" value="" style="shape=image;verticalLabelPosition=bottom;labelBackgroundColor=default;verticalAlign=top;aspect=fixed;imageAspect=0;image=data:image/png,iVBORw0KGgoAAAANSUhEUgAAAgAAAAIACAYAAAD0eNT6AAAMPWlDQ1BJQ0MgUHJvZmlsZQAASImVVwdYU8kWnluSkEBooUsJvQkiNYCUEFoA6d1GSAKEEmMgqNiRRQXXgooFbOiqiGKn2RE7i2LviwUFZV0s2JU3KaDrvvK9831z73//OfOfM+fOLQOA2gmOSJSLqgOQJywQx4YE0JNTUumkHoAAEtAFLsCQw80XMaOjIwC0ofPf7d0N6A3tqoNU65/9/9U0ePx8LgBINMTpvHxuHsQHAcCruSJxAQBEKW8+tUAkxbABLTFMEOKFUpwpx9VSnC7He2U+8bEsiNsAUFLhcMSZAKhehjy9kJsJNVT7IXYS8gRCANToEPvm5U3mQZwGsQ30EUEs1Wek/6CT+TfN9GFNDidzGMvnIjOlQEG+KJcz/f8sx/+2vFzJUAwr2FSyxKGx0jnDut3KmRwuxSoQ9wnTI6Mg1oT4g4An84cYpWRJQhPk/qghN58FawZ0IHbicQLDITaEOFiYGxmh4NMzBMFsiOEKQacJCtjxEOtBvJCfHxSn8NkknhyriIU2ZIhZTAV/jiOWxZXGeiDJSWAq9F9n8dkKfUy1KCs+CWIKxBaFgsRIiFUhdszPiQtX+IwpymJFDvmIJbHS/C0gjuULQwLk+lhhhjg4VuFflpc/NF9sU5aAHanA+wuy4kPl9cHauBxZ/nAu2GW+kJkwpMPPT44YmguPHxgknzvWwxcmxCl0PogKAmLlY3GKKDda4Y+b8XNDpLwZxK75hXGKsXhiAVyQcn08Q1QQHS/PEy/K5oRFy/PBl4EIwAKBgA4ksKWDySAbCDr6GvvglbwnGHCAGGQCPnBQMEMjkmQ9QniMA0XgT4j4IH94XICslw8KIf91mJUfHUCGrLdQNiIHPIU4D4SDXHgtkY0SDkdLBE8gI/hHdA5sXJhvLmzS/n/PD7HfGSZkIhSMZCgiXW3IkxhEDCSGEoOJtrgB7ot74xHw6A+bM87APYfm8d2f8JTQSXhEuE7oItyeJCgW/5TlWNAF9YMVtUj/sRa4FdR0wwNwH6gOlXEd3AA44K4wDhP3g5HdIMtS5C2tCv0n7b/N4Ie7ofAjO5FRsi7Zn2zz80hVO1W3YRVprX+sjzzX9OF6s4Z7fo7P+qH6PHgO/9kTW4gdwM5iJ7Hz2BGsEdCx41gT1o4dleLh1fVEtrqGosXK8smBOoJ/xBu6s9JK5jvVOfU6fZH3FfCnSd/RgDVZNF0syMwqoDPhF4FPZwu5jiPpzk7OrgBIvy/y19ebGNl3A9Fp/87N/wMAn+ODg4OHv3NhxwHY5wEf/+bvnA0DfjqUATjXzJWIC+UcLj0Q4FtCDT5p+sAYmAMbOB9n4A68gT8IAmEgCsSDFDARZp8F17kYTAUzwTxQCsrBMrAKrAMbwRawA+wG+0EjOAJOgjPgIrgMroO7cPV0gxegH7wDnxEEISFUhIboIyaIJWKPOCMMxBcJQiKQWCQFSUMyESEiQWYi85FypAJZh2xGapF9SDNyEjmPdCK3kYdIL/Ia+YRiqAqqhRqhVugolIEy0XA0Hp2AZqJT0CK0BF2CrkFr0F1oA3oSvYheR7vQF+gABjBlTAczxRwwBsbCorBULAMTY7OxMqwSq8HqsRZ4n69iXVgf9hEn4jScjjvAFRyKJ+BcfAo+G1+Mr8N34A14G34Vf4j3498IVIIhwZ7gRWATkgmZhKmEUkIlYRvhEOE0fJa6Ce+IRKIO0ZroAZ/FFGI2cQZxMXE9cQ/xBLGT+Jg4QCKR9En2JB9SFIlDKiCVktaSdpGOk66QukkflJSVTJSclYKVUpWESsVKlUo7lY4pXVF6pvSZrE62JHuRo8g88nTyUvJWcgv5Ermb/JmiQbGm+FDiKdmUeZQ1lHrKaco9yhtlZWUzZU/lGGWB8lzlNcp7lc8pP1T+qKKpYqfCUhmvIlFZorJd5YTKbZU3VCrViupPTaUWUJdQa6mnqA+oH1Rpqo6qbFWe6hzVKtUG1SuqL9XIapZqTLWJakVqlWoH1C6p9amT1a3UWeoc9dnqVerN6jfVBzRoGqM1ojTyNBZr7NQ4r9GjSdK00gzS5GmWaG7RPKX5mIbRzGksGpc2n7aVdprWrUXUstZia2VrlWvt1urQ6tfW1HbVTtSepl2lfVS7SwfTsdJh6+TqLNXZr3ND55OukS5Tl6+7SLde94rue70Rev56fL0yvT161/U+6dP1g/Rz9JfrN+rfN8AN7AxiDKYabDA4bdA3QmuE9wjuiLIR+0fcMUQN7QxjDWcYbjFsNxwwMjYKMRIZrTU6ZdRnrGPsb5xtvNL4mHGvCc3E10RgstLkuMlzujadSc+lr6G30ftNDU1DTSWmm007TD+bWZslmBWb7TG7b04xZ5hnmK80bzXvtzCxGGsx06LO4o4l2ZJhmWW52vKs5Xsra6skqwVWjVY91nrWbOsi6zrrezZUGz+bKTY1NtdsibYM2xzb9baX7VA7N7ssuyq7S/aovbu9wH69fedIwkjPkcKRNSNvOqg4MB0KHeocHjrqOEY4Fjs2Or4cZTEqddTyUWdHfXNyc8p12up0d7Tm6LDRxaNbRr92tnPmOlc5X3OhugS7zHFpcnnlau/Kd93gesuN5jbWbYFbq9tXdw93sXu9e6+HhUeaR7XHTYYWI5qxmHHOk+AZ4DnH84jnRy93rwKv/V5/eTt453jv9O4ZYz2GP2brmMc+Zj4cn80+Xb503zTfTb5dfqZ+HL8av0f+5v48/23+z5i2zGzmLubLAKcAccChgPcsL9Ys1olALDAksCywI0gzKCFoXdCDYLPgzOC64P4Qt5AZISdCCaHhoctDb7KN2Fx2Lbs/zCNsVlhbuEp4XPi68EcRdhHiiJax6NiwsSvG3ou0jBRGNkaBKHbUiqj70dbRU6IPxxBjomOqYp7Gjo6dGXs2jhY3KW5n3Lv4gPil8XcTbBIkCa2JaonjE2sT3ycFJlUkdSWPSp6VfDHFIEWQ0pRKSk1M3ZY6MC5o3Kpx3ePdxpeOvzHBesK0CecnGkzMnXh0ktokzqQDaYS0pLSdaV84UZwazkA6O706vZ/L4q7mvuD581byevk+/Ar+swyfjIqMnkyfzBWZvVl+WZVZfQKWYJ3gVXZo9sbs9zlROdtzBnOTcvfkKeWl5TULNYU5wrbJxpOnTe4U2YtKRV1TvKasmtIvDhdvy0fyJ+Q3FWjBH/l2iY3kF8nDQt/CqsIPUxOnHpimMU04rX263fRF058VBRf9NgOfwZ3ROtN05ryZD2cxZ22ejcxOn906x3xOyZzuuSFzd8yjzMuZ93uxU3FF8dv5SfNbSoxK5pY8/iXkl7pS1VJx6c0F3gs2LsQXChZ2LHJZtHbRtzJe2YVyp/LK8i+LuYsv/Dr61zW/Di7JWNKx1H3phmXEZcJlN5b7Ld9RoVFRVPF4xdgVDSvpK8tWvl01adX5StfKjaspqyWru9ZErGlaa7F22dov67LWXa8KqNpTbVi9qPr9et76Kxv8N9RvNNpYvvHTJsGmW5tDNjfUWNVUbiFuKdzydGvi1rO/MX6r3WawrXzb1+3C7V07Yne01XrU1u403Lm0Dq2T1PXuGr/r8u7A3U31DvWb9+jsKd8L9kr2Pt+Xtu/G/vD9rQcYB+oPWh6sPkQ7VNaANExv6G/MauxqSmnqbA5rbm3xbjl02PHw9iOmR6qOah9deoxyrOTY4PGi4wMnRCf6TmaefNw6qfXuqeRT19pi2jpOh58+dyb4zKmzzLPHz/mcO3Le63zzBcaFxovuFxva3doP/e72+6EO946GSx6Xmi57Xm7pHNN57IrflZNXA6+euca+dvF65PXOGwk3bt0cf7PrFu9Wz+3c26/uFN75fHfuPcK9svvq9ysfGD6o+cP2jz1d7l1HHwY+bH8U9+juY+7jF0/yn3zpLnlKfVr5zORZbY9zz5He4N7Lz8c9734hevG5r/RPjT+rX9q8PPiX/1/t/cn93a/ErwZfL36j/2b7W9e3rQPRAw/e5b37/L7sg/6HHR8ZH89+Svr07PPUL6Qva77afm35Fv7t3mDe4KCII+bIfgUw2NCMDABebweAmgIADe7PKOPk+z+ZIfI9qwyB/4Tle0SZuQNQD//fY/rg381NAPZuhdsvqK82HoBoKgDxngB1cRluQ3s12b5SakS4D9gU+zU9Lx38G5PvOX/I++czkKq6gp/P/wJEGXx8fHyqMAAAADhlWElmTU0AKgAAAAgAAYdpAAQAAAABAAAAGgAAAAAAAqACAAQAAAABAAACAKADAAQAAAABAAACAAAAAAAoMJe/AABAAElEQVR4Ae2dB3wc1bW4z6yq5Ya7IcbYlIAhEFrowRYQIJAQICGkgkMxQZYTIKSR5B8l770kJLzgPBeCA4SSSu8dr0RMjekxYDC4YIwtuVuWZZWd/7kr2ZasNrs7Mzvluz+Pd3bmlnO+O9p75pZzLSFAAALBJ3D5s/2kZeswEXuY2AVtn+ZcEu3notet/nq/RCwpFrFK0ue2ORc9Tx/dnVt6r6nbw9Lrth7bPtvOGzTu2vRhWWslZa8Ty14rdmKtJFJrpbVwrZS0rJXpkzaoDLbGI0AAAgElYP74CRCAQL4IVC0oljUrd9eGfLykZJw2muNVFP2U0Xpo47796KfnYQqtKux6PWpVp2VqjCwVy3ymlqqxsExaU8tUw+VSVd4SJqWQFQJRIoABEKXaRJfgEaiyE7KyeqwUtjfudrpxH69v1uP0zXq8CrybHongCe6LRCktZYUaCGoc2MvE1kNkkRoIb+rxllz36XW+SEEhEIgpASumeqM2BNwnMCU5XIoTB2nGB2pjZj7NcYAeYXt7V5EDEVaqFG9qz4EaBLZ+2m9JS/Gb8sdjtVeBAAEI5EoAAyBXgqSPH4F0t/2qCZLSxt62DtI3+QO1cdJz2TV+MPKi8RplbQwCNQysl6Qg9aKsXP0fuePLZtiBAAEIOCSAAeAQFNFiTGDaU3vp5LZjJWEfpxSO1sZnP/0sjDGRIKpuJie+rMeL2mPwYvpz5sTFQRQUmSAQFAIYAEGpCeQIBoGqZKHUWofo2+WxOjSvDb75TE/IC4Z8SJEJgbq0MWDbL+oQgh6FLzCvIBN8xI06AQyAqNcw+vVOYNrzg8RuOFob+2P1zd684R+pR1nvibgbUgJm0qH2EthP6cTDp6S4eJ5ce8yWkOqC2BDImQAGQM4IySBUBMys/FXVR0jC+qzKfaoeh+sR11n4oao6D4Tdqnk+q8eTujzxKaldPZ95BB5QJsvAEsAACGzVIJhrBCqSo8VKnKJvfqbBP1mPoa7lTUZRImCcF1Xr8I/2ENhPyMzyt6OkHLpAYGcCGAA7E+F7+AmYcfy6xDHpBt/Wt3xLDlaleNbDX7N+a7BIn6H7tLfoPhk28RmpsswQAgECkSHAj2JkqjLmikx5YrAUFZ+pb29n6Fj+SUpjUMyJoL67BFZrdg/oUMF90jzoCZlzuFl1QIBAqAlgAIS6+mIu/AXzBkpp6xna6J+rJLSLP+33PuZQUN8HAmbi4BPaqXSfLg99EMdEPhCnCE8IYAB4gpVMPSNw5WP9pbH0c7qsyzT6ZiJfqWdlkTEE+iZghgXMRMK/ibTcLrNOWtN3EmJAIBgEMACCUQ9I0RsBsxNec+Np6h/eNPqn68Eyvd54cS9fBJq1V+BhsVpvE6vxQZlxmlllQIBAYAlgAAS2amIumFmuV1t9sk7AOk/H9D+vNAbEnAjqh4vAep12eocet8mMifPUMGBr5HDVXyykxQCIRTWHSMlpyTGSsi5QiS/UY2yIJEdUCPREYIkOWf1Vj9vkuhMW9hSJ6xDwmwAGgN/EKa8rgXNuL5BRo07XH8iL9aYZ1y/oGokrEIgEAd2rQP6oK1b+gRfCSNRnqJXAAAh19YVc+Mqa8ZJKXaj+2r+lmuwWcm0QHwKZEFirPgb+rMNbf5TZ5epvgAAB/wlgAPjPPN4lTplfJIWbvqCN/hQFYdbr8wzG+4mIu/Y6N8B6XP8KZsuqVQ/hijjuj4O/+vPj6y/v+JY2JTlciqwKBTBVj5HxBYHmEOiRwDK9c720Ft2Ab4EeGXHDRQIYAC7CJKtuCHynZh9pkSt0EvT5erdfNzG4BAEIdCbQpF/vlETiDzLj+Bc73+IbBNwjgAHgHkty6kigIqlb61rf067NM/Qyu+11ZMM5BJwTSIpt/UZmT3zceRJiQsAZAQwAZ5yI5YSAmc0/YsRZuvPelTrB6UgnSYgDAQg4IGDLK+oT42qdJ3An8wQc8CKKIwIYAI4wEalXAmn3vCUX6IzmyzTenr3G5SYEIJALgfe0R+B3UrD5ZjwN5oKRtIYABgDPQfYEpj0/SFKNptE3x5DsMyIlBCCQIYGV+vM9XRIl18mMozZmmJboEEgTwADgQcicgHnj31Jaqd38P9DEQzPPgBQQgIBLBDZoPrMlVfA7ue7T61zKk2xiQgADICYV7Yqak5OlUmZdqv1GP9L8WMrnClQygYArBDaob43fSWnjdLnmlM2u5EgmkSeAARD5KnZBwaoFxVJbd5E2/D/R3PDY5wJSsoCARwRq1RD4lVib/8gcAY8IRyhbDIAIVabrqlQlC6VOJutY4880bzbmcR0wGULAMwLqVMj6hdSuuoVVA54xDn3GGAChr0IPFDBb8dbVfF1z/rkee3lQAllCAAL+EFioPXc/k5kT71SDgC2J/WEemlIwAEJTVT4JWpmcpMuMpmtpn/SpRIqBAAS8JmD8CIh9lW489KjXRZF/eAhgAISnrryV1OzMJ/Y1upb/bG8LIncIQCBvBGx5RKyCy2TWp9/JmwwUHBgCGACBqYo8CVKRHKCThq7S0q/QoyRPUlAsBCDgH4Fm7eX7gzQW/FJuOm6Tf8VSUtAIYAAErUZ8k8e2pKL6fG38f61FjvatWAqCAASCQmCl2PaPZfakW5gfEJQq8VcODAB/eQejtMq5x4qdMOP8hwdDIKSAAATySOBF3XlwGjsP5rEG8lQ0BkCewOel2O/OGystLVdr2V/JS/kUCgEIBJWAWSFwS1uPQLm6GSbEgQAGQBxq2ezSN2rE5Tru9wtVtywOKqMjBCCQFYFN6d+JulXT8R+QFb9QJcIACFV1ZSFsRfJg7d67QS37w7JITRIIQCCeBF7W34wLddngq/FUPx5aYwBEtZ6N3/7+UqWTe76nKhZGVU30ggAEPCPQokuD/1c26+/IzeWNnpVCxnkjgAGQN/QeFmyc+aSsOeoBbB8PSyFrCEAgHgQWqRPBi2VmeXU81I2PlhgAUarry5K7SLPuCCZyoR7UbZTqFl0gkF8CZpLgjVJkf1+ml6/PryiU7hYBGgm3SOY7n4qasyVhz1RPfrvmWxTKhwAEIkrAko+0d7FSZk+8O6IaxkotDICwV3dFcrQ685mtapwVdlWQHwIQCA2Be3SSYIVOEmTJYGiqrKugGABdmYTnSmXNGfpHeKMKPDw8QiMpBCAQEQKrRVIXyawT7ouIPrFTAwMgjFU+ZX6ZFG36vQ7zXxJG8ZEZAhCIEAFL/iSlWy+Xa07ZHCGtYqEKBkDYqnnq04eq1f03FXvfsImOvBCAQGQJvKPzj76h+wr8O7IaRlAxDICwVGqVnZDVNVfqH9l/q8hFYREbOSEAgdgQaNH5SFUy/PhfS5WVio3WIVYUAyAMlTctOUZn3t6qopaHQVxkhAAEYk1gnkjrN2TWiUtjTSEEyidCIGO8RaysPkcb/9cVAo1/vJ8EtIdAWAgcJ1LwulQmvxEWgeMqJz0AQa35iuQA7U6boeJNDqqIyAUBCECgVwK2/EVaBlwicw5v6DUeN/NCAAMgL9j7KPTSufvqBj73aKwJfcTkNgQgAIFgE7DkP2IXfFFmffqdYAsaP+kYAghanVcmz9TG/0UVi8Y/aHWDPBCAQOYEbPmEzgn4t0ytxllZ5vQ8TUEPgKd4M8jczPKvqzEz/H+kB/WSATqiQgACISFgy2+lrvYquePLrSGRONJi0tAEoXqnPjlMrMK/6RK/k4MgDjJAAAIQ8JBAtbQWnSt/PLbWwzLI2gEBDAAHkDyN0ubYx2yssYen5ZA5BCAAgeAQWCG2dY5uKvRscESKnyTMAchnnVckJ6tXv2dUBBr/fNYDZUMAAn4T2E0su1rnBXzH74IpbwcBegB2sPDvrGpBsdTVTdcCL/WvUEqCAAQgEEACZqlgQcNFMuO0rQGULtIiYQD4Xb3ffXKUtBSaJX5H+1005UEAAhAIKIF50myfJXPKdYdBgl8EMAD8Im3KqaiZoN1eD+vZOPOVAAEIQAAC2wm8J6nU6XLdCQu3X+HEUwLMAfAUb4fMK6rLtfE3E17GdbjKKQQgAAEItBHYS32gPCeVNScAxB8CGAB+cK6oOU9X9j+mRe3iR3GUAQEIQCCkBIaIbT+qRsCFIZU/VGJjAHhdXZXJKn3zv0WLYQtfr1mTPwQgEAUCRWoE3CBTk78RXSsYBYWCqgNwvaqZtpn+N2j23/SqCPKFAAQgEGkCltwtRcXfkGuP2RJpPfOkHAaAF+AvS+4izZaZ6T/Ji+zJEwIQgECMCMzXuQGnyYzj62Kksy+qYgC4jbmyZrx2Xz2k2bKZj9tsyQ8CEIgrgTf1d/VEmV2+Mq4AvNCbOQBuUr107mH6kD6vWdL4u8mVvCAAgbgT2F/3SHtapiXHxB2Em/rTA+AWzYrkcWJZ5s1/kFtZkg8EIAABCHQisFi3Fi6XWScu7XSVL1kRoAcgK2w7JZpa/Rlt/M0yPxr/ndDwFQIQgICLBMaLFGhPwFN7uZhnbLPCAMi16qfO/YJm8YAeZblmRXoIQAACEOiTwFhJqRFw6dx9+4xJhF4JYAD0iqePmxXVXxVJ3KmxSvqIyW0IQAACEHCPwG66MqBGvp38hHtZxi8nDIBs63xq8iL17vcXTV6YbRakgwAEIACBrAmMkgIrKRXJg7POIeYJMQCyeQCmJi/TGalzNCn8suFHGghAAALuEBiu86/mSkX1p9zJLl650IBlWt9Tkz/Vxv9aTcYKikzZER8CEICA+wSG6K/xk7rb6jHuZx3tHGnEMqnfiuqr9UH7QSZJiAsBCEAAAr4QqNfthD+n2wnX+FJaBAqhB8BpJdL4OyVFPAhAAAL5IDBAJwY+rM6CTspH4WEsEwPASa2Zbn/e/J2QIg4EIACBfBIok5T1gEytOS2fQoSlbIYA+qqptgl/ZsyfAAEIQAAC4SDQpNuwnyszy+8Nh7j5kRIDoDfuZqlf22x/OPXGiXsQgAAEgkegRX+/vy6zJt4ePNGCIRENW0/1YJz8tK3zZ5ikJ0ZchwAEIBBsAq3aEzBZewKMzxbCTgQwAHYCkv6adu+b9vCHk5/u+HANAhCAQHgIpFTUyTJr0m3hEdkfSTEAduZsNvZp8+2Pe9+d2fAdAhCAQDgJtGiP7hkyc9Ij4RTfG6kxADpybdvS1+zqx8Y+HblwDgEIQCD8BDaLpE6UWSe8EH5V3NEAA2Abx0vnHqZrSOfqV7b03caETwhAAALRIrBanQUdp86CFkZLrey0wQAw3CprxottP69nI7PDSCoIQAACEAgJgaViFR4jM49bERJ5PROTGe6XJXfRxv8hJUzj79ljRsYQgAAEAkNgD7FbHpUpTwwOjER5EiTeBkDVgmJptu5R9hPyxJ9iIQABCEDAfwIHSlHR/TI5Wep/0cEpMd4GQF3dDVoVk4JTHUgCAQhAAAI+ETheBlh/lSo7tu1gbBWXymSVPmTf9OlBoxgIQAACEAgaAVvOltqnZwVNLL/kieckwIqa89Q71C1+QaYcCEAAAhAIMAFbrpDZk2K350v8DICK6nJ1CGHW+hcF+HFENAhAAAIQ8I+AugxOnS4zTzBtQ2xCvAyAipoJ+ub/rNbuLrGpYRSFAAQgAAEnBDaoj4Aj4+QjID5zAL775Cht/B/Wp4DG38mfAnEgAAEIxIvAYHUGd7+YpeExCfEwAMxyv5ZCs9xvXEzqFTUhAAEIQCBzAh/XpeG3yzm3F2SeNHwp4mEA1NVN16o5OnzVg8QQgAAEIOAzgc/IyJG/97nMvBQX/TkAFcnJYll/zgtdCoUABCAAgZASsC+WWeXGV0xkQ7QNgKlPH6q7Pz2jtRdrb0+RfXpRDAIQgIB3BJolISfKjEn/8q6I/OYcXQNg6pPDRApfUrx75BcxpUMAAhCAQEgJ1Elh4eHyh+OWhVT+XsWO5hwA49rRKvybak7j32v1cxMCEIAABHohMEJaW/4pU+ZH0m9MNA2Aupr/FltO7qVSuQUBCEAAAhDom4AtR0lx/dV9RwxfjOgNAVQmzxTbulurInq6he/5QmIIQAAC0SBg2WfJzPJ7o6FMmxbRaiQvnbuvOnJ4UVUbFKVKQhcI+EVgSFmhfGJ0P7+Kc62cF5bWS1Or7Vp+ZASBbgis1xVlh8rMiYu7uRfKS9ExACqSA7RyTOM/IZQ1gdAQCACBkz4+SO7+1t4BkCQzEfb51RuyalNzZomIDYHMCcyXESOOlaoDmjJPGrwU0ZkDYFkzFC+Nf/CeMSSCAAQgEBUCh8vq1f8bFWWiYQBUVp+jFTI5KpWCHhCAAAQgEFACtl0pbW1OQAV0Llb4DYBpyTE64/965yoTEwIQgAAEIJADAVtukIpk+MbKdlI53AaAWe+fsm5VnYbspBdfIQABCEAAAl4RGKRzzu6QaQ+XeFWAH/mG2wBYXXOlQir3AxRlQAACEIAABDoQOFhay37Z4XvoTsNrABg//7b8d+iIIzAEIAABCESDgCVX6lDAcWFVJpwGwJT5ZbrJj3H1G0n3jGF9mJAbAhCAQMwIqNt56xY1AgaEUe9wGgBFm8xezfuGETgyQwACEIBApAjsqUZAKJcGhs8AqKw5Q738XhKpxwdlIAABCEAgzASm6NLAz4ZNgXAZABXJ0WLbN4YNMvJCAAIQgEDkCdwolz87NExahssAsKzZCnd4mAAjKwQgAAEIxICALbvK1q2mjQpNCI8BUFFztlI9KzRkERQCEIAABOJFwLLOlanJr4RF6XAYAJcld5GEPTMsUJETAhCAAATiSsCaJZXzdguD9uEwAJqt3+ma/13DABQZIQABCEAg1gSGSqplVhgIBN8AqExOUpAXhgEmMkIAAhCAAATEkjOlovrzQScRbANgcrJUff3PUYhW0EEiHwQgAAEIQGA7AUtmypWP9d/+PYAnwTYA+kuVNv37BJAbIkEAAhCAAAR6IzBWtpT8vLcI+b4XXAOgInmwvvh/L9+AKB8CEIAABCCQJYHLpbLmwCzTep4smAbAObcXSCJxg2pf6DkBCoAABCAAAQh4Q6BQndddL2IHchg7mAbAqBGXK7TDvKkPcoUABCAAAQj4RuBoqXz6Yt9Ky6Cg4BkA3503Vo2lX2SgA1EhAAEIQAACwSVg27+Rbz8zMmgCBs8AaGm5WiHpdr8ECEAAAhCAQCQIDJFEc+B2DAyWAVA591it6tC4UYzEY4kSEIAABCDgPQFLvqETAk/wviDnJQTIANBJEnZiunPRiQkBCEAAAhAIEQHbni5mkntAQnAMgIrq85XJ4QHhghgQgAAEIAABtwkcKKNGBcazbTAMgIrkALGsX7tNmvwgAAEIQAACgSJg2/8l054fFASZgmEAWNZVCmN0EIAgAwQgAAEIQMBDAiMltcW0eXkP+TcAKmvGK4Ur8k4CASAAAQhAAAK+ELAu0wmBpu3La8i/ASD2NUqgJK8UKBwCEIAABCDgH4ESdXZnlrznNeTXADBb/dpydl4JUDgEIAABCEDAfwLnSNvSd/9Lbi8xfwZAlZ1Qj38s+8tb1VMwBCAAAQjklYCduDaf+wTkzwCoq/m6gv9kXuFTOAQgAAEIQCB/BD4lldWmLcxLyI8BUJU0u/wFep/kvNQGhUIAAhCAQLwI2LoE/vJn++VD6fwYAHUyWZXdKx8KUyYEIAABCEAgQATGyNamb+dDHv8NgKoFxSLWz/KhLGVCAAIQgAAEAkfAkh/moxfAfwOgtu4ihT82cBWAQBCAAAQgAIH8EBglW5sr/C7aXwNgcrJULPmJ30pSHgQgAAEIQCDQBCz7BzJlfpmfMvprAJRZl6pyu/mpIGVBAAIQgAAEQkBgpBTVT/VTTv8MgCsf669v/z/yUznKggAEIAABCISIwPfFtJU+Bf8MgC2llarTSJ/0ohgIQAACEIBA2AiMkIbiaX4JbflSkNn6MNW4WMsa6kt5FAIBCGRFoLjAkiFlxk1HuEJdfbOk7HDJjLQQ6IHAGt0nYJzMLq/v4b5rl/35S081XqYS0/i7Vm1kBAFvCDS12rJqU7M3mZMrBCDghMAwsazvaMRfOYmcSxzvewDMeMaWkg9UyCG5CEpaCEAAAhCAQEwIrJUthePkpuM2eamv93MAGksuUAVo/L2sRfKGAAQgAIEoERgqpa1TvFbI2x6Ac24vkJEj31UlxnutCPlDAAIQgAAEIkTgAxlh7ylV5S1e6eRtD8CIEWep4DT+XtUe+UIAAhCAQFQJ7C611jleKuetAWAlrvRSePKGAAQgAAEIRJZAwvqel7p5ZwBUJI8TsY/0UnjyhgAEIAABCESWgG0fJpfOneiVft4ZAOKt5eIVEPKFAAQgAAEIBIZAIuFZL4A3kwC/U7OPtNpvK0APDYzAVA+CQAACEIAABLwiYEsqNUGuO2Gh2wV400C3yBUqqDd5u02A/CAAAQhAAALBJWBJwrrcC/Hc7wGYkhwuRdYyFbafFwKTZzAJjB9WIifsPTCYwvUi1c3/XiOtDn3IhlXH2+avEePhz0kYM7hYTtlvkJOogYrzt5fVb0pzKlAyIQwEXCSwRZrtsTKnfLWLeYr7roCLrAoVkMbfzVoKQV6HjSmTa88cGwJJO4v415fWOjYAwqrjna+tUwOgtbPiPXzbb1RpKOvxwTc3YAD0UKdcjgSBfvpibdrWX7qpjbvd9FPmF6lwvu5n7CYM8oIABCAAAQgElMBUaWtjXRPPXQOgcNMXVDK2/HWtesgIAhCAAAQgkCYwUorrz3SThbsGgGV57rvYTeXJCwIQgAAEIBAaArZc7Kas7hkAlTXG5e9JbgpHXhCAAAQgAAEIbCdwklz6rz23f8vxxD0DIJW6UGVxf1VBjgqSHAIQgAAEIBARAroksNW0ta4EdwwAs+ufZX3LFYnIBAIQgAAEIACB7glY8i2pSrqygs8dA2DUqNNV0t26l5arEIAABCAAAQi4QsCWXWW1fM6NvNwxAGzb1YkJbihGHhCAAAQgAIFIEki5M+E+dwNgWnKMAv5sJCGjFAQgAAEI+EbgxI8PkguPHC5jhxT7VmYoC7LkFPnuvJw9r+U+jpCyLlCABaGEiNAQgAAEIBAIAl88aIjM+fI4KSpom0v+bl2jPPHOxvRRvWiTY4+dgVDGeyES0tJiJgP+PJeicusBqLJNetdmJOaiCGkhAAEIQCCcBD47YbD86dwdjb/RYp8RpVJx7Ei551t7y0tX7C9fOWSoFCRYaNahhi8QMwE/h5CbAVBbfbKWnXM3RA7ykxQCEIAABEJM4JhxA+SWr42Xwl4a9z11szHTO/DiZRPkS58copvjhVhh90QfIyNGnZhLdrkZAAnrvFwKJy0EIAABCMSXwIG79pPbz99LSgudNUWmV+Cmr4yXp6dNkI/reeyDZX81FwbOqHdXwuXP9hNbPt/dLa5BAAIQgAAEeiMwbmiJ3K3d+4NKM+/FPkgNh5rK/eRcHRaIeThLpj1cki2D7A2A5sbTtNAB2RZMOghAAAIQiCcB88b/j/P2lFEDzQay2YX+xQn5kw4LzDh7rPQryr4py670wKQaLHa/rFfhZU/NTpwbGAQIAgEIQAACoSHw36d9TPYf1c8Vec//1HB54tJ9ZXj/3Be1uSKQ35mk5CvZFpmdAXDlY/21QOP9jwABCEAAAhBwTMDM+J9y9AjH8Z1ENEMCD138cRkxIIZGgGV9XtraZCeoOsXJzgBoLDVuCMs65cQXCEAAAhCAQC8ERmuX/+wv7tFLjOxvTRhVmjYCRg7Iflgh+9LzmrJMGkrOyEaC7AwA26b7PxvapIEABCAQUwKWLt27Xsfsh3nYVb/fSGME7JPT3IJQVo8lWa0GyNwAuGDeQAWU9aSDUMJFaAhAAAIQyInAtONGSfnepvnwNuyrRsDt5+0lJYWxchZwilz6ryGZks3cAChtNV0NLMDMlDTxIQABCMSUwCd3K5Ofn+LfhrGHjCmTa8+MlY+6YilInZ3p45W5AWDR/Z8pZOJDAAIQiDOB//3C7tt9/PvF4RuHDUtvLORXeXkvJ2VnvBogMwNgyhODVclT8q4oAkAAAhCAQCgInLLfYDlirFk45n+4+vO7561s37W1pDzTYYDMDICi4jNVKfZp9L1mKRACEIBA+AiYiX8/O9m/rv+dCRXrzoI36z4DA0oy9za4c14h+F4giZaMXtAzMwAsO6ulBiEAh4gQgAAEIOAygTM/MUTMGv18hjGDi+XneTRCfNbdLNF3HJwbAFXJQvX9f5LjnIkIAQhAAAKxJWC27v3JZ3YNhP4Xq+Ohw3fPzzCEvwCsU6XKdtyuO44odYljVJFB/ipDaRCAAAQgEEYC5x48NDA79pntg82eAUU6JBDxMExqnz7KqY7ODQCxT3WaKfEgAAEIQCC+BExDe9VJwXj731YLB4zuJ5XHjdz2Nbqflu14GMC5AWALBkB0Hxk0gwAEIOAaAbNBz9ghwZsvfsWk0VltP+waGH8ycrxPjzMDoCI5Wiw52B/ZKQUCEIAABMJKwGzN+/3y0YEUf3BpgXz7GHc3IgqgogdJRc3uTuRyZgBYCbO0IPKDJ06AEQcCEIAABHomMPmI4bLroOBuyDP12JFxWBZ4Ws81tOOOMwOA8f8dxDiDAAQgAIEeCUzW7v8ghyFlhXKJy9sRB05fh/MA+jYA2pYUnBw4BREIAhCAAAQCReDgj5WJ2ZY36MFMBuxf3HfzF3Q9epHvBJmc7LMi+iawqvoILWRoLwVxCwIQgAAEICDG/34YgtmS+OKjIj0XoEz6W5/uqy76NgASFlv/9kWR+xCAAARiTsC43f3SJzPekTZv1KZ9epSYCYuRDbY9sS/dnGjP8r++KHIfAhCAQMwJnKqb/gzV8fWwhBEDCiO+W6B1fF910bsBMO154/nv8L4y4T4EIAABCMSbwJfU81/YwnePj3AvgCVH9DUPoHcDwG44Wiu09zhhq3HkhQAEIAABVwkYv//lew90NU8/Mhs1sEiMy+KIhhLpZx/Zm259NO6JY3tLzD0IQAACEIDAoWPKxDjZCWP4yqGRNQD09T3R6zyA3gdsbDkujBWKzP4T2NKcktr6Zv8LzrFEW7e4dBrCqmPKuYrS1GKHsh5bM1HSaYUTzzGBE/YO7z5xR+8xIO22eNm6Jsf6hihirwZAz979zPa/ddYGVbQsRMoiKgQgAAEI+EzgsUs+LkePG+Bzqe4V98vHV8g1yZXuZRicnBqkecAuMufwbt/Oeh4CqLUOUR1o/INTkUgCAQhAIHAEBpQUyKfG9g+cXJkIFOF5AGVSuPlTPbHo2QCwbMb/e6LGdQhAAAIQSBP49J4DpFAnAYY57DuyVD65W1Tfd1M9Lgfs2QCQBOP/YX6ikR0CEICADwQOjkjD+ZVDIjoZ0LJ6nAfQiwFAD4APfzsUAQEIQCDUBMzbcxSC8WJoljNGMBwrbXv6dFGtewNg2lN7acxgbujcRQUuQAACEIBAvghExQAwPgEm7hU+XwYO6n2grK7+eHfxujcAWgsZ/++OFtcgAAEIQGA7AfPGvPfwaPQAGKW+fHB49jLYXglOTlKJw7qL1r0BkLAZ/++OFtcgAAEIQGA7gfFDi6WkMDrd5id9fJBY0VFnez2JZR+648uOs+4NABHjApgAAQhAAAIQ6JFAVLr/tyk4ckCRfGJ0v21fo/Tp0ACoWlCsztH2i5Lm6AIBCEAAAu4T2G9k9BrLE/YJr1fDXmpY/frYXfo2uvYArFk1QTPp3UVwL6VwCwIQgAAE4kFgtE6ci1qIqAEwWCqqzeT+TqFrQ59KHNQpBl9yJnDkHv3l7IPCt8b0hw984Fh340Tja4cNcxw/KBF/8tByaXHoRz6sOlY9+qGYfQychI+PKJULjxrhJGqg4vzX4x9K/VZnOu45rEQuOWZkoOR3Isxvnlwh67a0OonqW5xBId0AqDdAx6hL435FCcd/M73lFah7ifREwEUdZepqANjWQTphoGMcznMk8InRZXLpMeH7Uc3EANhHG44w6vhzbRydGgBh1fFXT6zQHzNnD/HYIcWhrMffV690bAB8bHA4dZw1b1XgDIDB/cK5A2Bvfw1mUuMx4wfIU+9s7C1a+O6l0hMB/9lR8K5DAJYc2DEC5xCAAAQgAIHuCESxB8DoeWI05wF0mQjYjQFgMwTQ3ZPONQhAAAIQ6ERgcASHAIyCk/aOoEMgS/owAKYkh+sKgF071TBfIAABCEAAAt0QiKoBsP+oflJW3PX9uBsEYbo0VL6dHNdR4M4aFjMBsCMcziEAAQhAoGcCUZwDYLQ1WwJEcnfAws5tfGcDQBj/7/lR5w4EIAABCHQkMCB6b8nb1TvkY1HcHjjVaU+AzgaAzfj/9trnBAIQgAAEeiXQ1BrdFWOHjomiAWD1YgCIMAGw18edmxCAAAQgsI2AU98L2+KH6fPgKPYA2LJvxzrY4QfA7BdcV3NAx5ucQwACEIAABHoi0ODQwVRP6YN8fR/d5XBASYH6l3DmfMnsjDiwJKFHQdtR2nZeqNcblVNji512LrS1JdX+aYvht7HRWf4userUA7DDAFhZPVYKrOg5dnaJGtlAAAIQgEBnAk4bx86pwvHN7Ap48G79ZN7iejGN+O7qJGv80BI99FO9SZrzcXqMHFAoxh+C8R6YTTBeOldubJYP9fhoQ5Os0E9zfLi+SV5b0SBL1zVlk21PaUbLBfMGyk3HbTIRdhgAhTJOlwASIAABCEAAAo4INDQ5c7/sKLMARvq/s/fQxl9kzC7FaSPACxGN4ZA2KNSo6C7U1bfI/A82y7/1mL9ss7y0vEE2OeyV6C4/KWkyvQAvmXs7DACxxncbmYsQgAAEIACBbgjUR9wA2Ht4941yNyg8uzRCexg+O2Fw+jCFmK1LFtY2thkFahAY4+At/d7qcE8TsRLdGAC29gAQIAABCEAAAg4JRL0HwCEGX6MZHwUTRpWmj28e3rYB22Y1xF5evlmeeneT3PnaWlnW27BBwt4+EbBDD4DQA+BrNVIYBCAAgXAT2Nzk6wS2cMPyUPr+6o/h03sOTB9Vp+wmL2rPwO2vrpV731gvtfU77wS2YyngDgPA9ACoZUGAAAQgAAEIOCHwkU5WIwSPwBFj+4s5rv7cGHn6vU1y+2vr5IEF69tXHHRnAFj0AASvGpEIAhCAQHAJLFq9NbjCIZmYpYnlurOhOaafOVYeX7hB7n593f53tbNpW7dQtaBYv+8GLwhAAAIQgIBTAotWNzqNSrw8EygptOTzB+wif/7q+H4/eej9PYw4bQbAmpW7bz/Ps5AUDwEIQAAC4SDwbh09AOGoqc5SltktnzBX2j0XJJgA2JkP3yAAAQhAoA8CZoJZTmvS+8if294QKCks3M/k3GYApHQCIAECEIAABCCQIYFF9AJkSCz/0YuLrL2MFO09ADgByn+VIAEEIACB8BFgHkD46qysUMYYqdsNAHoAwleFSAwBCEAg/wTeZSVA/ishQwn6lxTsapJsMwBGZ5ie6BCAAAQgAAGhByB8D4HuWDjcSL3NAGjzJxg+PZAYAhCAAATySGD+Bw15LJ2isyEwsLRwsEmHAZANPdJAAAIQgECawJK1W+UD3bqWEB4Cu/RL9DfSYgCEp86QFAIQgEAgCVQvSm8vH0jZEKorgeH9C4vM1YRc/mw//TQHAQIQgAAEIJAxgRr1N08IDwGdA2BV3b5gaEJatjL+H556Q1IIQAACgSNgNpwhhItAorT4QB0CsDEAwlVvSAsBCEAgUARWbmqWhbXsCxCoSulDmJLixISE2AUYAH2A4jYEIAABCPROgGGA3vkE7W5pgbUXPQBBqxXkgQAEIBBCAhgA4aq0wgJL5wAwBBCuWkNaCEAAAgEk8K/3N0nKDqBgiNQtgaKENUgNgARDAN3i4SIEIAABCDglsH5Lq7yyfLPT6MTLMwHtARhID0CeK4HiIQABCESFwO2vrYuKKpHXQ3sA+qsBIPQARL6qURACEICA9wTufG2ttDAO4D1oF0ooKjQGgG2lXQK6kB9ZQAACEIBAjAnU1bfIU+9sjDGB8KheVGD1M0MAJeERGUkhAAEIQCDIBP7+ytogi4ds7QSK0waAJcUQgQAEIAABCLhB4OE3N8jGxlY3siIPDwmoAVCiPQAWPQAeQiZrCEAAAnEi0NiSkrvfYDJg0Ou8pLDAGAAMAQS9opAPAhCAQJgI/P1lhgGCXl8lhVJUKDZDAF5X1Ecbm2SeOsmIcqirbw6ljqkMZiyHVcdMZmWva2gJZT026Vun07BBu6fD+Pe4tSU8XnaeW1IvS9ZulXFD6WB2+lz6Ha+kMFFoydTq/2jBB/hdOOVBAAIQgEB0Cfz4pF3lxyfuGl0FQ67ZhxuaWowfAEy0kFck4kMAAhAIGoG7cAoUtCrpJE+/okTCGACsAuiEhS8QgAAEIJArgRM/PijXLEjvIQEdGrToAfAQMFlDAAIQiCOB48YPkP938m5xVD0UOjc0peTrf3mfIYBQ1BZCQgACEAgJga8dOkzu+tbe0r/YvF8SgkagqdWWr/3lfXlh6WarUIVjCCBoNYQ8EIAABEJGwMz4v/YLuwtd/8GtuFZd9XThPxbL3HfT7poTxgBgEmBw6wvJIAABCASawMS9BsqUo0fIaRMGS0HCCrSscRfuO/csk/v+s34bhrQBsO0LnxCAAAQgAIFeCZTo6vEjxg6Q4/caIGd+YojsO7K01/jczD8B8+Z/5f0fyG3z13QUptX0AGzVo6zjVc4hAAEIQAAC6i9exg4pTjv0OeRjZdroD5Qj9+gvpYWM74fl6ajf2irn/32xPLGwyy6NW40B0KRHJA2AEQMKJWHRJRWWBxU5IQAB7whoWy6lRQkp06OfTtBLf5rvem4adPM5tKwg3dib8fxxQ4tlt0HF+hvqnUzk7C2B5Rua5Ms3vyf/Wbmlu4KatvUAdHcz9Nfe/tGBonseh14PFIAABCAAAQhkQuCV5Q1y7q3vycpNzT0lS/cAmCGAyIVBpQU0/pGrVRSCAAQgAIG+CPzlpTXyvfs+kC3Nve6RsX0IoK/8Qnd/aJnp3CBAAAIQgAAE4kGgVjdl+87dy+ThtzY4UTi6QwDD+mMAOHkCiAMBCEAAAuEncK8u77v83mWyZnOLU2WiOwRgJrMQIAABCEAAAlEmsFa38P7+A8vljlfXZqqmGgCWrgIIzzbTjhVkCMAxKiJCAAIQgEDICBiXvtc/Wyu/nbtSNjS2Zi69tv3aT27pJMDoWQAlzP7P/IEgBQQgAAEIBJ6A6e7/f498KEvW5jKH3zJDAHYuOQQWFC4pA1s1CAYBCEAAAlkQeHZJvVQ9ukKeX1qfReqdk9hqANhpR0A73wn990K8V4S+DlEAAhCAQNwJbFJPfv94Za3c9MJqWdC9Q5/sEGnbH9khAHoAsnsmSAUBCEAAAvkn8NqKBrnx+dVy+2trpaGp1/X8WQprhgAse3MEpwDorlRZMiEZBCAAAQhAIA8EjOOeu15fJzfq2/5LH2z2VgJt+81i+U7bA3lbon+5MwTgH2tKggAEIACB7AksrG1MN/p/f3lNdjP6syt6jRkCUAMgeqsAGALI7okgFQQgAAEIeEugsSUlzy3ZLMl3N0py0SYx3f3+B8sYACk1AKK3YQ67Vfr/OFEiBCAAAQh0JWDrO/brHzWkG3vT6JvG3xgB+Q2pbT0A+RXDi9LpAfCCKnlCAAIQgIATAsvWNUn1e5ukelHbW34GLnqdZO9CnHQPQESHAKzo9Wq4UONkAQEIQAACLhFI6Zv9snVb5W0dwzfj+Ns+zblZvhfsYAwAq3WN2NGbMs8QQLAfPaSDAAQgEGQCrdq6r1E/+3X1eugGO6vNp+62Z86NB753tJF/d/XWvrbcDa6K2va3TwIMrozZSlaIK+Bs0ZEOAhCAQOQJfOMv72sD3iitOhTfqoP0LepbX//pd1vH521Zv6VFzNh9dIPpASgsWSNNTZHTsYAhgMjVKQpBAAIQcIPAan2Lf+DN9RFv4PsgpW1/Qq49ZotGM0ekAn4AIlWdKAMBCEDANQJmJn603+77RLXFtP3bBv8j5wwIT4B9PgBEgAAEIBBLAk+9uymWendQOt3mR9YAaDHTMwkQgAAEIACBnQgkdWlezEO0DYD6rfl2shDzxwv1IQABCASQwJurtshHG5sDKJmvInUyAFb6WrQPhW32ZPckHwSnCAhAAAIQ8IzAXLr/Ddt0m79tCGCJZ7TzlHHwnTDkCQzFQgACEIgxgad0AiBBlhgG7QaAvThqQOgBiFqNog8EIACB3AgY//vPLq7PLZNIpG5r89sMgESbNRAJvdqV2Bx4N4xRoo0uEIAABIJPwGzCs6WZ+WH66r/E1FZ7D0Aqcj0A9cwBCP5fIxJCAAIQ8JHAU+/Q/d+Gu63NbzMAho3+QC9GyixiFYCPf1UUBQEIQCDgBIzjn3veWBdwKX0RLyVtbX57D0DVAcYX8ApfivapkM1NQd+JyScQFAMBCEAAAvLCsnr5YH303N5nUbUrpK3N3zYEoFnYEqlhAIYAsngsSAIBCEAgogTueJW3/3TVdmjr2+cA6GUrWhMBNzbSAxDRv2PUggAEIJARAeMZ9m66/9uYdWjrdxgAEq0egLW6j3Oz2duRAAEIQAACsSYwV9f+r9EdAAlpAtt7+3cYAB2sgihAMhM+auup8CjUJTpAAAIQyIXA7XT/78DXoa3fYQBI9JwBrdoUe3/POyqdMwhAAAIxJGDW/T/45voYat6Tyjva+h0GQEu05gAY1VdiAPT0BHAdAhCAQCwIPPTmBmnAL8yOuu7Q1u8wAEZPWqYxtuyIFf6zlez4FP5KRAMIQAACORC4/dW1OaSOXNIt0tbWpxXbYQBUWcYR0IIoqcsQQJRqE10gAAEIZEbATAZn859OzBZIW1ufvrjDAGiL83qnqCH/whBAyCsQ8SEAAQjkQODW+WtYDdaZX6c2vrMBYFmdbnZOF75vGADhqzMkhgAEIOAGAbP2//pna93IKjp57NTGdzYARN6IjqZMAoxSXaILBCAAgUwI3PvGevlwAyvBdmLWqY3vbAA0pSLVA7CKSYA71T1fIQABCMSDwMx5q+KhaCZa7tTGdzYA5pSvVpfAH2WSX5DjGkdA2gtEgAAEIACBGBF4bkm9vLy8IUYaO1DVtO2mje8QOhsA5oYdnXkAZgyIeQAdaptTCEAAAjEgMGseY/9dqrmbtr0bAyBa8wAW1jZ24cAFCEAAAhCIJoGl65rw/Ndd1dpd2/auBoBlR2oewMLaSPk26q5auQYBCEAAAu0EZj9Ty9Bvd09DN217VwMgEa2JgPQAdPckcA0CEIBA9Ahs2toqt+naf0I3BLpp27saAMNGvaVJI7ONHgZANw8ClyAAAQhEkMDNL66WejUCCF0ItEhb297pRlcDoOqAJl0J8HanWCH+srCOOQAhrj5EhwAEIOCIgNnwZ/rTLP3rFpZp003bvlPoagC0RXhup3ih/VqnSwHXqT9oAgQgAAEIRJfATJ35b37vCd0S6LZN794ASFnzus0ipBffZiVASGsOsSEAAQj0TcC85P3fv3j775FUD2169wZAQcszPWYUwhsMA4Sw0hAZAhCAgEMC19asko2NjP33iKuHNr17A2DGie9pRit7zCxkN5gIGLIKQ1wIQAACDgl8pC7fr3+uzmHsWEZbKW1tehfluzcA0tGsyPQCYAB0qXcuQAACEIgEgd/O/Ui2NKcioYs3SvTclvdiAKQiMw8AA8Cbx4pcIQABCOSTwOI1W+VW1v33UQU9t+U9GwB2z1ZDH6UF7vbyDU1ilogQIAABCEAgOgT+58mPpLmVHd96rdFe2vKeDYCR9iuaaSS2U7L1+XhtRSRU6bWeuQkBCEAgLgQWrNwid762Ni7qZqtng7S15d2m79kAqCo3Cypf6DZVCC8+v3RzCKVGZAhAAAIQ6I7ATx7+EJ//3YHpfO0FaWvLO19t/9azAWAiWBKZeQBmf2gCBCAAAQiEn8Bdr6+Tue9uDL8iXmvQRxveuwEgqcisBHh+ab2YoQACBCAAAQiEl4DZ8OfHDy4PrwK+St57G967AWCVGfeBkZg9t35Lq+AR0Ncnj8IgAAEIuE7gl4+vkJWbml3PN4IZpqStDe9Rtd4NgBlHmT6W+T2mDtkNhgFCVmGICwEIQKADgVc/bJA/4fSnA5FeT+dLWxveY6TeDYC2ZI/2mDpkN57TYQACBCAAAQiEj0BKh3C/e+8yJv45r7o+2+6+DYCU/Yjz8oIdkx6AYNcP0kEAAhDoicANz9fJK8tZzt0Tny7XHbTdfRsAoya9qBlHYrHlsnVNYvxGEyAAAQhAIDwEzJi/GfsnOCawVtra7l4T9G0AVFlmEuDjveYSopv0AoSoshAVAhCAgBK46qHl7PaX2ZPwuLS13b2m6tsASCe3+hxL6LWUAN1kHkCAKgNRIAABCPRB4LG3N6jHv3V9xOJ2ZwLO2mxnBoCdekwzj8Qq+ueX4BGw84PCNwhAAALBJFBb3ywVdy0NpnDBlcqWtja7TwmdGQCzy1dq8/9qn7mFIMJ/1H90vTqSIEAAAhCAQHAJGMdt375jqdTVG6/0BMcETFtt2mwHwZkBYDKyJBLDAK26loR9ARw8GUSBAAQgkEcCf3y2Vp58B3e/GVdBBm21cwNAnI0pZCxsHhI89Ob6PJRKkRCAAAQg4ISA6an9f49+6CQqcboQcN5WOzcARqSe1XIiYY49+OYGnEl0eWi4AAEIQCD/BLY0p+TCfyyWrS2RmHbmN9CN0tZWOyrXuQFgthS05ElHuQY80ipdU/oCXgEDXkuIBwEIxJHAT3Wb37dWNcZR9dx1Nm10L9v/7lyAcwPApLSt+3fOIKzf71/AMEBY6w65IQCBaBJ4VJf8/Uk9/hGyJJBhG52ZAdDcdK+K1ZSlaIFKdv9/MAACVSEIAwEIxJqA6ZmtuJMlfzk8BE3S1kY7ziIzA2DOZzZozsYnQOjDB+ub5LUV+JUOfUWiAAQgEHoCLbo664J/LJHVm1nyl0NlPiZtbbTjLDIzAEy2tvVPx7kHPOJ99AIEvIYQDwIQiAOBHz24XP71/qY4qOqdjlm0zZkbAI0FZh5AJGZoMAzg3bNIzhCAAAScELh1/hqZ8xzj/k5Y9RKnUdra5l6idL2VuQFw03HGTIvEFsHv1DXKwtpI2DJda5YrEIAABAJO4MVlm+WKe5cFXMpQiPeItLXNGQmbuQFgsreiMwzAaoCMnhciQwACEHCFwArdmv3rf3lfmlpZ758z0Czb5OwMgNLGB1XgSMygYxgg50ePDCAAAQhkRKCxJSVfu+09MTP/CTkTaJC2NjnjjLIzAK45xWyp91DGpQUwgVkJsGxdJFY2BpAuIkEAAhDoSuC79yyTl5dH4h2yq3L+X3lI2trkjEvOzgAwxVipyKwGYBgg4+eGBBCAAASyIjBrXq38/eW1WaUlUTcEcmiLszcAikofVlHquxEndJfufI2HMXSVhsAQgEDoCDylu/v99BE2+XGx4uqlrS3OKsvsDYBrj9miewM8kFWpAUtkuqLmf2BGNQgQgAAEIOAFgZf0N/brf31fzJbsBJcImDbYtMVZhuwNAFNgyr41y3IDl2z2M7WBkwmBIAABCESBgFly/cWb35OGplQU1AmODjm2wbkZACMnPa4klgWHRvaSGK+AH+myFAIEIAABCLhH4MMNzXLmjYtkbQNuft2jms5pmbS1wVlnm5sBUGUZc+7GrEsPUMJmXYt64wt4owpQlSAKBCAQcgKm0T/zpndl+QZWWnlQlTdKWxucdda5GQCm2IR9k/7fmrUEAUp40wurZWsL41MBqhJEgQAEQkrAdPd/Sbv98bbqSQW2tre9OWWeuwEwo3y5ShAJ18BmJ6o7WBGQ0wNFYghAAAKmR9VM+GNytWfPwiPS1vbmVEDuBoAp3rL+lJMUAUr8RyYDBqg2EAUCEAgbAVs7US+5Y4mYJX8Ejwi41Oa6YwCsWmW8Aq7wSFVfs339oy3yzOJIuDfwlRuFQQACEDAEvv/AB3Lna+uA4R2BFdLW5uZcgjsGwB1fbhXb/nPO0gQkgz8+y5LAgFQFYkAAAiEhYN78v3ffB2zt63V9mbbWtLkuBHcMACNIImFWA0RiBt2Db26QD9Yza9WF54ssIACBGBAwvn2+o/79//Q8K6k8rm67va11pRj3DICZExerRE+6IlWeMzGequY8x4Oc52qgeAhAIAQEzO/lt3XM/5Z/rw6BtKEX8Ulpa2tdUcQ9A8CIY9tzXJEqAJmYh3lLM16rAlAViAABCASUQIs2/hf9c4n84xX2U/GlilxuY901AFoG3qcQIjGAvn5LKztW+fJEUwgEIBBGAmap3+S/LZa7XmfCn0/1VyttbaxrxblrAMw53PjSneWadHnO6A//WiVN+pATIAABCEBgBwHjMO3rf3lf2Ep9BxMfzmZJWxvrWlHuGgBGrGZ7tv6f9e5ErmnmQkaL12yV61kR4AJJsoAABKJCwAyNnnvre/Lo2xuiolIY9NjS3ra6Kqv7BsCc8tViW7e4KmUeM7t67kpZox4CCRCAAATiTmBDY6t88c+LZO67OPnx9VkwbappW10O7hsARsBC+b3+H4kZdBv1gf+fJz9yGTvZQQACEAgXgWXrmuSk6xbKPByl+V1xqfY21fVyvTEA/m/iu+oR4H7Xpc1Thn9+cbW8taoxT6VTLAQgAIH8EnhleYOcMHshG/vkoxpMW2raVA+CNwZAWlD7fz2QNy9ZmnWuP37I7HlEgAAEIBAvAg+/tUFOnfOO1NabOd4E/wl415Z6ZwDMLp+nuwS94D8sb0o0Y16PMenFG7jkCgEIBJLA9c/Wydduew+fKHmrHW1D022pNwJ4ZwAYee3UNd6InZ9cf/Lwh2IcXxAgAAEIRJmA+ZkzvZ5mYx9+8vJY0x63od4aAHV19yg64yI4EuGduka5AV/XkahLlIAABLonYJb5nffX92XWvEj4dOteyXBcXSxtbahn0nprAJgdiyy51jPp85Dxr59aKesaWBaYB/QUCQEIeExg1aZmOf1P7+Lgx2POjrI3badLu/71VJ63BoAptXTrTfp/ZHxFmsbfGAEECEAAAlEi8PzSevn0jLdl/gebo6RWWHVZ1952eiq/9wbANaeYp2m6p1r4nLkZBnhXhwMIEIAABKJAwEz2M2/+K7UHgBAIAtOlre30VBjvDQAjfqLUGACR2S7KTAS8SicEEiAAAQiEmYAZ7ze7+ZnJfmZzH0IgCKxtbzM9F8YfA2DGUeo30vqt59r4WIBZEvjkO7jD9BE5RUEAAi4SMHudnKjOfW5/NTLvZi7SyWdW2lam20zvZfDHADB69Gucqf9HalrptLuXitk2mAABCEAgTATMC8zxM9+W/6yMxL5tYULfl6y17W1lX/Fcue+fAWDGM2z5jStSBySTDzc0y+X3LguINIgBAQhAoHcCZk3/r3Rvky/rbn5mYx9CwAiYNtKHsf9tWvtnAJgSG+zr9P8V2wqPwuddr6+jCy0KFYkOEIg4gdW6q+k5tyyS3zz1kdgM9wextle0t5G+yeavAXBzeaP2AvyPb9r5VNAV930gy9c3+VQaxUAAAhDIjMATCzfKUdPfEvNJCCgB0zaaNtLH4K8BYBQbOeIG/T9S/eZmy+Apty/BZaaPDy5FQQACfRNobEmlZ/h/8eZFbObTN658xljW3jb6KkOBr6WZwqpnt8oR59frqoAzfC/bwwKXaQ9A/+KEHLXHAA9LIWsIQAACzgi88dEWOfvPi+TRt3nrd0Ysn7HsK+V3R/zbbwn87wEwGo6Qm/X/98xplMJ/Pb5CXliKF60o1Sm6QCBsBMz4/kz143/C7LflrVW+9iiHDVVQ5H2vvU30XR7L9xK3FTi1+pt6euu2r1H5HDWwSJ6u3E92HVQUFZXQAwIQCAmBjzY2y7fvWCLJRZtCIjFiKoHzZNak2/JBw24JPgAAHFVJREFUIj89AEbTERP/qv+/lg+lvSzTbKbx9b+8L1tbmGbrJWfyhgAEOhO4f8F6OeoPb9H4d8YS9G+vtbeFeZEzfwZAlZUSy74sL1p7XKjZTAP/AB5DJnsIQCBNoK6+RS74x2L5hr54sFNpyB4K0waatjBPwf9JgB0VffGWJXLk5IP00oSOl6Nw/rpOwBlaViiH794/CuqgAwQgEEACf31pjZx72/vy8vKGAEqHSL0SsORumVmeVxf5+esB2E7GulJPt27/GqGTHz+0XP71PmNxEapSVIFAIAi8r378P3/Du3LpnUt56w9EjWQshLZ56bYv44RuJsi/ATBz4mJV6PduKhWUvMyugef/bbGYP1YCBCAAgVwJmN+Ua2tWydE61l/zHi8XufLMY/rfS1vbl0cRdKPevJa+rXDb/pWertz2NUqfxv3mGTe+Kyt0di4BAhCAQLYETDf/RN3A5+ePfihmG19CaAmsVF/Mps3LewiGATC7vF6B/DjvNDwSYNm6JjlTjYC1DS0elUC2EIBAVAk0NKXkRw8ulxOvWyjGuQ8h5ARMW2favACE/PkB6KK8bcnUmhf18uFdbkXkwmE6IfDBi/ZJewyMiEqoAQEIeEjgbt1s7KePfMheIx4y9jnr+TJr4hE6/h+IdeLB6AFI14ACsVKRXBa47QF7SZcHfu229/ARsA0InxCAQLcEXlvRIKde/45M/vtiGv9uCYX0YrqNC0bjbwgGqAegvUKnVv9dz77S/i2SH2ccsIvc8rXxUpAIHv5IAkcpCISEgFnT/0t1KX7b/NVsLhaSOstAzH+ox7+vZhDf86gB6gFo17Ww8Id6FulFrcZjV8VdS6VVZ/QSIAABCDS12vJ//1olB1+zQG75N41/BJ+IBmlr2wKlWn4dAXWH4oWbNsiR5zdp58TJ3d2OyrX/6GSeN3Wjjs/tv4sU0hMQlWpFDwhkTOCRtzbIV3Vo8K7X1okxBAgRJGDZV8mMiY8ETbPg9QAYQqvqrhXLeilosNyW5wHtCfiS7tO9WWf5EiAAgXgReLu2Uc68aZGce+t78t5qfIVEtvZNW2batACG4A5CVyQPViPA7I9cGEBurop06Jgyuftbe6ddB7uaMZlBAAKBI2Aa/t8lV+ob/1rG+QNXO64L1KJL3D+ly/5edT1nFzIMrgFglJua/I0OBZg5AZEP+40slXsv3Ed2YxvhyNc1CsaTwIKVW+S3c1fKff9ZR8Mfm0fAvlpmlf8oqOoG2wCYnCyVMut1XauwT1ABuinX2CHFcr8aAXsOK3EzW/KCAATySMAs6TMN/4NvrteXwTwKQtH+ErDlXWmwD5Kbyxv9Ldh5acE2AIwelclJYltz9Sz4sjrn3mPMYf0L00sEj99zYI9xuAEBCASfgHHde/Xcj8RM8iPEjoD6tbFP0N3+qoOseTga1anVf1KIFwUZpJuymVUB/3Pax+TSY0e6mS15QQACPhB4cdnmdMP/xMKNPpRGEQElcIOu+b84oLJtFyscBsBlyV2kxXpTbNl1u+QxOPnKIUPlD2eNlX5FwVysEYMqQEUIOCbw7JJ6ufqpjyS5iF36HEOLYkRLPpJCe3+ZXr4+6OqFwwAwFCtqztYulbuCDtRt+T65W5n8/Zt7yphdit3OmvwgAAEXCDz9/iZt+FfKv/STAAEdsv6izJ54dxhIhMcAMDSnVhuoZ4UBrJsyDtd5ATer62DmBbhJlbwgkBuB5Lsb5Tc6ue85ffMnQKCdwD3a9X92WGiEq2/ZtisU7OqwwHVLztWbW3Q74UUy/elVLB9yCyr5QCBLAmZs32zN+wV14kPjnyXEaCZbrcs8TBsVmhCuHgCDtbLmDIV8X2gIuyzokXv0lz9+aZzsNZylgi6jJTsI9ErgYZ3Nb2b1v6Kz+wkQ6ELAsr4gMyfe3+V6gC+EzwAwMKcm/6irAi8JMFdPRTOTAn9x6m5yydEj1Vmip0WROQRiTWD9lla5/dW1ctMLq3Xvji2xZoHyvRGwr1eHP9/uLUYQ74Wz+Zgyv0yK6l9WoPsGEapfMn1afQXM/tIesoc6ECJAAALuEXhmcb3crLvy3ffGemlsYa8O98hGMqeF0jzgUJlzeOi6hsJpAJhnaOrTh4qkntezokg+Ug6V6l+cUJ8BY+SCI4c7TEE0CECgOwJ19S3yt5fXpLfjXcTmPN0h4lpXAs0iiaNk1vHmhTR0IbwGgEFdWf0D9Q1wdeioeyBw+d4D5bef31321T0FCBCAgDMCKXXNa2bz36Jv+w/pGH8z2/E6A0esNgKW/FBmTvptWHGE2wCoshNSV/Okwi8PawW4KbfxIGh6Aq46aVd2FnQTLHlFjsCHG5rlLy+tllv/vUY+WN8UOf1QyBcCSRkx8SSpskI7RhRuA8DU8bTkGEnphkEiQ3yp8hAUsku/AvnRibvKxUeNkKKC8FdxCJAjYggItOjr/mNvb0yP7T/5zkZpNa//BAhkR2CdJHSjnxnly7NLHoxU0WgdKqvP0aGA24OBNDhS7K1LBc38gM9OGBwcoZAEAj4TWLJ2q3bxr5G/vrRGVm7SIVsCBHIlYMmXtev/jlyzyXf6aBgAhuLU6j/r/5PNKaEzATM/4Fenj5EDRvfrfINvEIgoga0ttjywYL128a+WGnXRyza8Ea3o/Kh1s3r7+1Z+ina31OgYABXJAboo/kXFM8FdRNHIzfgL+Nz+u8gVE0fJYbv3j4ZSaAGBnQi88dGW9Ez+v7+8VtY2tOx0l68QyJnAW2pNHiGzyyPh/zk6BoCp10vn7iuJhDECBuVczRHOYOJeA+WKSaPF9AwQIBBmAmbW/jxds//wW+vl4Tc3MKEvzJUZfNk3Sip1hFx3wsLgi+pMwmgZAEbnyuSZuhuT2TQoero5q1PHsQ4ZU6Y9AqPl8wfsIrqAgACBUBAw3vmeWLhBG/0N8rj65d+0tTUUciNkqAnYuhvt2TKz/N5Qa7GT8NH82Z9a/SvV88c76crXHgjsM6JULjt+lJx7yFApZtVAD5S4nE8CZiKfafDNW/6zuvuemdFPgICPBH6t4/5X+VieL0VF0wAw/gFW1zyiKwNO9oViRAox2w4bI+Abhw1jwmBE6jSsapj2/aUPNrc1+tq9/9aqxrCqgtxhJ2DJ4zJ84mfDvN6/pyqIpgFgtJ365DCRwpf0bI+elOd6zwQO/lhZ2hD48sFDxfgVIEDAawJbmlOSXLRJ3/LXy6O6Xr+2niV7XjMn/z4JLBVpOUxmnbSmz5ghjBBdA8BURtt+Ac/oGf5xs3w4SwotOV1XD5hegRP2GcRcgSw5kqx7Aqt0Xf6jb7eN51dr42+MAAIEAkJAu50Sx4bVz78ThtE2AAyBiuRkXR5ofAQQciSw26Ci9BCBWU5olhIycTBHoDFMbtbnv/phgzyta/Mf0TH9l5ZvZo1+DJ+DUKhs29/S5X43h0LWLIWMvgFgwEytnq3/X5olI5J1Q8DMFzh538FyqnoZPHGfgTKwhGGCbjDF/tLyDU3y4tLN8uKytuP1FQ3SxIY7sX8uQgDgOp30VxECOXMSMR4GQNWCYqmrq1ZSR+dEi8TdEjD7DRw7bkDaGDh1v8Gy57CSbuNxMdoEzNv9a9rApxv7pfXpzxUbGcePdq1HUrvnZMSISVJ1QOR3iYqHAWCe0e8+OUpaCp/Xs3HmK8E7AmZZ4cn7DpJj1Cg4co/+MnJAkXeFkXPeCJjG3TT2L7Q39ubt3hgBBAiEmMASKWw5Sv5w0qoQ6+BY9PgYAAZJRc0EdebwrJ7t4pgQEXMmMF57BI5SQ+DIsQPkqHH9Zb+R/Zg/kDNVfzMw3famgd/WlW+69U33PgECESKwXp3IHSOzJ74VIZ16VSVeBoBBUVFdrj4CH9MzXkt7fTS8uzmotECOGKsGgRoFR+0xQA5Vj4TMIfCOd6Y5m8beON4xa+/bGvz69MQ93u4zJUn8EBFoVr8xp8jsSckQyZyzqPEzAAyyiprztCfglpzpkYFrBHbfpTjtfOgTu/aT/Uf1S5/vM6JECllq4Brjjhlta+TfX7NV3lu9VcznIj3eX92Y9qePo72OtDiPPAHbOl/f/G+NvJ47KRhPA8BAqExWaXfPz3fiwdcAETBuifcdWSr76zbGZivjA9Qw2Ht4iew+pBjDwEE9bWvktzXw75nGPt3gN8ry9U1CI+8AIlGiT8Cyf6E+/quir2hXDeNrABgWU6uNxffNrli4EmQCBdor8LHBRTJuSImMG1osewwtkfF67KGGwTj9HDGgMMjiuyqb6ZY33fXpN3nzBt/ewJuGnkbeVdRkFk0Ct+lyv/OiqVrfWsXnl7I7FiNGXKTLA3fXW5O6u821YBJo1VfXZeua0sfT73eVsaw4kTYORqnjIuOvwBzDyto+h6tx0PH7EL2e71EG8yZudrQzu9yt39LS/tkqGxp3fN+g99bpvbZrbXHNtdWbm3mT7/oIcAUCTghU63K/i5xEjGqcePcAmFq9LLmLNFtmZcCEqFYyevVMwDT+xggwkxCNP4MivWA+CxI6S7TD98IO5+a6mZuQvt9+3vG7ySMdvz1Ng7q3NY37hvbGfVsjnm7Q9fpGbfxtVs/1XEncgYD7BN6SIvsYmV6+3v2sw5MjBoCpq8qa8foLbHwEjAxP1SEpBCAAAQhkQaBW3cMfJTMnLs4ibaSS6HsOIf0gpFKnKYmN0IAABCAAgcgS2Cjmt57GP13BGADbnvPrTnhJewFO168N2y7xCQEIQAACkSHQkP6NN7/1hDQBDICOD8Ls8nn69Uw9tna8zDkEIAABCISagPlNP1N39zO/8YR2AhgAOz8KsyY9IZI6Vy+37HyL7xCAAAQgEDoC+luuv+np3/bQye6pwBgA3eGddcJ96hbSrA1NdXebaxCAAAQgEAoCqfRvuflNJ3QhgAHQBUn7hdmT/i5iX6LfWKDVEyOuQwACEAguAf3t1t/w9G95cIXMp2QYAL3Rn1V+gz5AV/QWhXsQgAAEIBBEAvrbnf4ND6JswZAJA6CvephVPl2NgJ/1FY37EIAABCAQFAL6m53+7Q6KPMGUA0dATuulovpq3Ub4B06jEw8CEIAABPJAwJbfarf/D/NQcuiKxADIpMowAjKhRVwIQAAC/hKg8c+IN0MAmeBKW5UMB2SCjLgQgAAE/CGgv828+WeEmh6AjHC1R56avEzE+r1+g182/EgDAQhAwD0CZra/mfCn87UImRCgAcuEVse4U5O6jaR1vV6iF6UjF84hAAEI+EdAfbXoUj9m+2dFHAMgK2ztiSqqv6p9ALfqt8JcsiEtBCAAAQhkTKAl7eSHdf4Zg9uWAANgG4lsP6fO/YJ2AvxTk5dkmwXpIAABCEAgIwLq29+498XDX0bUdoqMAbATkKy+Tq3+jKa7V4+yrNKTCAIQgAAEnBIwO7aeiW9/p7h6jocB0DObzO5UJI8Ty3pIEw3KLCGxIQABCEDAIYGN6S192dXPIa7eo2EA9M4ns7uXzj1MEomHNdHIzBISGwIQgAAE+iBQK6nUaXLdCS/1EY/bDgkwg90hKEfRzINpWUdp3LccxScSBCAAAQg4IfBW+reVxt8JK8dxMAAco3IYcebExVJkH6Oxqx2mIBoEIAABCPRMoDr9m2p+WwmuEsAAcBVne2bTy9fLiBGn6LfbvMiePCEAAQjEhMBt6d9S85tKcJ0AcwBcR7pThpXJKrGtn+90la8QgAAEINAbAcv+hcwsr+otCvdyI4ABkBs/Z6kras4Ty75BIxc5S0AsCEAAArEl0KwvTRfJ7InGyRrBQwIYAB7C7ZR1RXW5eg28W6/t0uk6XyAAAQhAYBuB9erd72zd1Ce57QKf3hHAAPCObdecK2omaE+AWSY4rutNrkAAAhCINYEl+uZ/mr75s4rKp8eASYA+gU4XYx7swhazTPA5P4ulLAhAAAIBJ/Bc+reRxt/XasIA8BW3FvaHk1bprNZJenad30VTHgQgAIEAErgu/ZtofhsJvhJgCMBX3DsVVpGcrM4tjCFQutMdvkIAAhCIOoFGdet7qcwuvznqigZVPwyAfNfM1KcP1V2tzOTAPfItCuVDAAIQ8InAUt1F9WyZdfzLPpVHMd0QYAigGyi+Xkr/AbQcpisEHve1XAqDAAQgkA8C6d86/c2j8c8H/U5l0gPQCUcev1TZCamr+W+V4Ed6UC95rAqKhgAEPCFga66/kRETfypVVsqTEsg0IwI0NBnh8iFyZfJMXQpzi5bEtsI+4KYICEDAFwIbdQn0+erZ715fSqMQRwQwABxh8jnSpXP31W2F79FSJ/hcMsVBAAIQcJvAW7qN71m6je9CtzMmv9wIMAcgN37epDZ/KLZ9hGZ+szcFkCsEIAABXwjcnP4to/H3BXamhdADkCkxv+NXVp+jrjGv12KH+F005UEAAhDIksA6ncl0icycdEeW6UnmAwEMAB8g51zEtOQYSVm3aj7lOedFBhCAAAS8JZCUhH2ezChf7m0x5J4rAQyAXAn6ld6sElhdc6X2BpiVAuwq6Bd3yoEABJwSaNa3/p/K8InXMMvfKbL8xsMAyC//zEtvcxz0N024b+aJSQEBCEDAEwI6wS/xNdb2e8LWs0yZBOgZWo8yNs4zmgeo90DbzAsgQAACEMgzAf0tMr9JOPbJcz1kXjw9AJkzC06KypozdIbtjSrQ8OAIhSQQgEBMCKzWvUwulJkT74+JvpFTkx6AMFep+cOz7QNVBeMzgAABCEDALwL3pH97aPz94u1JOfQAeII1D5lW1JytM29n6iTBXfNQOkVCAAJxIGDJR7oiqVJmTzQbmBFCToAegJBX4HbxzR9kob2/fr9BD+NzmwABCEDALQLmN+WG9G8Mjb9bTPOeDz0Aea8CDwSoTE5SK32OLsnZx4PcyRICEIgTAVve1d7FKerHvzpOasdBV3oAoljL5g+1wT5IOwKuVvVaoqgiOkEAAp4T0N8O/Q0xvyU0/p7DzkcB9ADkg7qfZVYkD9aNhW7QCTuH+VksZUEAAiEmYFkv6QY+F8ns8ldDrAWi90GAHoA+AIX+tvkDXrXqSN2K8/uqS0Po9UEBCEDASwIN6d8K85tB4+8l50DkTQ9AIKrBJyG+O2+stLSYYYGv+FQixUAAAuEh8A8pLPyh/OG4ZeERGUlzIYABkAu9sKatnHus2InpKv7hYVUBuSEAAdcIzBcrdZnMPOEZ13Iko1AQwAAIRTV5IaRtSUX1+erJ69ea+2gvSiBPCEAg0ARW6tygH8vsSbeI9vsHWlKE84QABoAnWEOUaUVygBoBV6nEV+hREiLJERUCEMiOwFZN9ntt/H+l4/z12WVBqigQwACIQi26oUNlzXhd8nONuhA6243syAMCEAggAUvUg591pfrvXxxA6RDJZwIYAD4DD3xxxomQbZn5AZ8MvKwICAEIOCXwmvby6zg/znycAotDPAyAONRypjpW2Qmpq/m6Jvu5Hntlmpz4EIBAYAi8p5L8QkZM/KtUWanASIUggSCAARCIagioEFXJQqmTydpl+DOVcGxApUQsCECgKwFdymf/l4yQm6WqHG+gXflwRQlgAPAY9E2gakGx1NZdpE/LTzTybn0nIAYEIJAnAit0Hs//yMgRN0jVAU15koFiQ0IAAyAkFRUIMScnS6XMulQNgR+pPCMDIRNCQAAChkCtNvy/Ub/918nN5Y0ggYATAhgATigRpzOBKx/rL1tKK7WL8Qd6Y2jnm3yDAAR8JLBWO3J/K/0aZ8o1p2z2sVyKigABDIAIVGLeVJj2/CBJNV6m5ZtjSN7koGAIxI/AOlV5uiRKp8uMozbGT300doMABoAbFOOeh+kRaCy5QLsgjSGwZ9xxoD8EPCSwWIfgrpXSrTfxxu8h5ZhkjQEQk4r2Rc1zbi+QESPOEitxpQ4PHOlLmRQCgVgQsF4QO3WN1NXdI3d8uTUWKqOk5wQwADxHHNMCKpLH6djk9/Rt5QwlwLbTMX0MUDsnAintVbtfjen/VZe983LKicQQ6IYABkA3ULjkIoHv1OwjLbrPgGWfr7n2czFnsoJAVAlsUW+ct0ih+uv/v4nvRlVJ9Mo/AQyA/NdBPCSYkhwuRVaFKjtVD5YQxqPW0TIzArUafZY027NlTvnqzJISGwKZE8AAyJwZKXIhMGV+kRRu+oLuQDhFszlJD57BXHiSNuwEzDa8T+rOfHOkZeB9Mufw5rArhPzhIcCPb3jqKnqSmh0IU6kL1Rj4liqHh8Ho1TAa9UxAPfbZf5ZE4kZ25usZEne8JYAB4C1fcndCwKweGDXqdP1BvFijf1aPAifJiAOBkBEws/cfUYP3T7Jq1UPM5g9Z7UVQXAyACFZqqFWalhwjKesC1eFCPdiAKNSVifDtBHRjHrlREvZNMqN8OVQgEBQCGABBqQnk6EzAbElcW32yJKzzdCnU5/XmgM4R+AaBQBOo19ktD0jKvlVGTnqcrXgDXVexFQ4DILZVHyLFL3+2nzQ3niZ24lyV+nQ9ykIkPaLGh0CDqvqQWKl/SlHpw3LtMVviozqahpEABkAYay3OMqfdDpd+TucLGGPAzBcojTMOdM87AbPznhnX/6eUNj6Ie9681wcCZEAAAyADWEQNGIEL5g2U0tYz1MmQMQZO0aM4YBIiTjQJNKlaj6mznn9KY8H9ctNxm6KpJlpFnQAGQNRrOC76TXlisBQVn6nGwBk6Z8D4FxgUF9XR0xcCG3VMX9frW/dLc9O9MuczG3wplUIg4CEBDAAP4ZJ1nghUJQulLnGM+lA/VY2BU/WH+2CVhGc9T9UR0mJtfXZe1afmUX10HpURqWelqrwlpLogNgS6JcCPYrdYuBgpAhXJ0bpDoQ4RqEEgcrIeQyOlH8q4RWCtZvR4usG3U4/pBjwr3cqYfCAQRAIYAEGsFWTyjoBZXriq+ghdXmgmEBqD4HA92K3QO+JBzjmlws3X41FdrveIjJr0Isv1glxdyOY2AQwAt4mSX7gITHt+kNgNR6sNcKx2+eoWxnKkHiwzDFctOpXWLNN7Qbv1dWvd1DNilT0nM47a6DQx8SAQNQIYAFGrUfTJjYCZP1BrHaKTCY9Vo0ANAvMpo3PLlNR5IqBd+NYz2tjP08l7z8hI+xXG8fNUExQbSAIYAIGsFoQKFIFpT+0lrYXHqitX00NwtPYU7KefhYGSEWFa9M3+bcXwnLqSnicFLc/IjBPfAwsEINAzAQyAntlwBwLdE6haUCxrVk2QVOIgfbM8SBueA7XHQM9l1+4TcNVVApZ8pNxfV95vKPfXJZF6XYaNekuqDjDr8wkQgIBDAhgADkERDQJ9EpiSHC7FahSIGgS2GgQi5jhAj356EDInYFzpLtDjdfW097p+viFN2tjPKV+deVakgAAEdiaAAbAzEb5DwE0CZtXByuqxOmAwTsejx+tbq35K26elnyK76RHXVQhmFv4KZbJYe1GW6Hn7p71YWvT76EnLmJWvVAgQ8IgABoBHYMkWAo4IpIcTVu6uNsB4SbUbCZI2EszEw2EdjrD1Ipi39zUdDrOmfolOqlys5o5+phbLsNEf0G2vVAgQyBMBDIA8gadYCGREwOyI2LJVDQJ7mNgFbZ/mXBLt52os2FZ/vV+ib9O6J4JVkj630/sj6LmYw+yVsPO5EWOrHmb83Hx2PrfMdUuv2Vv1Tb3t3LI3azxt3C09Uu2fem61tp0XlqxhJzwlRIBAwAn8fydPH5L60cZ0AAAAAElFTkSuQmCC;" vertex="1" parent="1">
          <mxGeometry x="400" y="200" width="80" height="80" as="geometry" />
        </mxCell>
        <mxCell id="lvz8d1WP9f2KZza9czsT-25" value="" style="shape=image;verticalLabelPosition=bottom;labelBackgroundColor=default;verticalAlign=top;aspect=fixed;imageAspect=0;image=data:image/png,iVBORw0KGgoAAAANSUhEUgAAAgAAAAIACAYAAAD0eNT6AAAMPWlDQ1BJQ0MgUHJvZmlsZQAASImVVwdYU8kWnluSkEBooUsJvQkiNYCUEFoA6d1GSAKEEmMgqNiRRQXXgooFbOiqiGKn2RE7i2LviwUFZV0s2JU3KaDrvvK9831z73//OfOfM+fOLQOA2gmOSJSLqgOQJywQx4YE0JNTUumkHoAAEtAFLsCQw80XMaOjIwC0ofPf7d0N6A3tqoNU65/9/9U0ePx8LgBINMTpvHxuHsQHAcCruSJxAQBEKW8+tUAkxbABLTFMEOKFUpwpx9VSnC7He2U+8bEsiNsAUFLhcMSZAKhehjy9kJsJNVT7IXYS8gRCANToEPvm5U3mQZwGsQ30EUEs1Wek/6CT+TfN9GFNDidzGMvnIjOlQEG+KJcz/f8sx/+2vFzJUAwr2FSyxKGx0jnDut3KmRwuxSoQ9wnTI6Mg1oT4g4An84cYpWRJQhPk/qghN58FawZ0IHbicQLDITaEOFiYGxmh4NMzBMFsiOEKQacJCtjxEOtBvJCfHxSn8NkknhyriIU2ZIhZTAV/jiOWxZXGeiDJSWAq9F9n8dkKfUy1KCs+CWIKxBaFgsRIiFUhdszPiQtX+IwpymJFDvmIJbHS/C0gjuULQwLk+lhhhjg4VuFflpc/NF9sU5aAHanA+wuy4kPl9cHauBxZ/nAu2GW+kJkwpMPPT44YmguPHxgknzvWwxcmxCl0PogKAmLlY3GKKDda4Y+b8XNDpLwZxK75hXGKsXhiAVyQcn08Q1QQHS/PEy/K5oRFy/PBl4EIwAKBgA4ksKWDySAbCDr6GvvglbwnGHCAGGQCPnBQMEMjkmQ9QniMA0XgT4j4IH94XICslw8KIf91mJUfHUCGrLdQNiIHPIU4D4SDXHgtkY0SDkdLBE8gI/hHdA5sXJhvLmzS/n/PD7HfGSZkIhSMZCgiXW3IkxhEDCSGEoOJtrgB7ot74xHw6A+bM87APYfm8d2f8JTQSXhEuE7oItyeJCgW/5TlWNAF9YMVtUj/sRa4FdR0wwNwH6gOlXEd3AA44K4wDhP3g5HdIMtS5C2tCv0n7b/N4Ie7ofAjO5FRsi7Zn2zz80hVO1W3YRVprX+sjzzX9OF6s4Z7fo7P+qH6PHgO/9kTW4gdwM5iJ7Hz2BGsEdCx41gT1o4dleLh1fVEtrqGosXK8smBOoJ/xBu6s9JK5jvVOfU6fZH3FfCnSd/RgDVZNF0syMwqoDPhF4FPZwu5jiPpzk7OrgBIvy/y19ebGNl3A9Fp/87N/wMAn+ODg4OHv3NhxwHY5wEf/+bvnA0DfjqUATjXzJWIC+UcLj0Q4FtCDT5p+sAYmAMbOB9n4A68gT8IAmEgCsSDFDARZp8F17kYTAUzwTxQCsrBMrAKrAMbwRawA+wG+0EjOAJOgjPgIrgMroO7cPV0gxegH7wDnxEEISFUhIboIyaIJWKPOCMMxBcJQiKQWCQFSUMyESEiQWYi85FypAJZh2xGapF9SDNyEjmPdCK3kYdIL/Ia+YRiqAqqhRqhVugolIEy0XA0Hp2AZqJT0CK0BF2CrkFr0F1oA3oSvYheR7vQF+gABjBlTAczxRwwBsbCorBULAMTY7OxMqwSq8HqsRZ4n69iXVgf9hEn4jScjjvAFRyKJ+BcfAo+G1+Mr8N34A14G34Vf4j3498IVIIhwZ7gRWATkgmZhKmEUkIlYRvhEOE0fJa6Ce+IRKIO0ZroAZ/FFGI2cQZxMXE9cQ/xBLGT+Jg4QCKR9En2JB9SFIlDKiCVktaSdpGOk66QukkflJSVTJSclYKVUpWESsVKlUo7lY4pXVF6pvSZrE62JHuRo8g88nTyUvJWcgv5Ermb/JmiQbGm+FDiKdmUeZQ1lHrKaco9yhtlZWUzZU/lGGWB8lzlNcp7lc8pP1T+qKKpYqfCUhmvIlFZorJd5YTKbZU3VCrViupPTaUWUJdQa6mnqA+oH1Rpqo6qbFWe6hzVKtUG1SuqL9XIapZqTLWJakVqlWoH1C6p9amT1a3UWeoc9dnqVerN6jfVBzRoGqM1ojTyNBZr7NQ4r9GjSdK00gzS5GmWaG7RPKX5mIbRzGksGpc2n7aVdprWrUXUstZia2VrlWvt1urQ6tfW1HbVTtSepl2lfVS7SwfTsdJh6+TqLNXZr3ND55OukS5Tl6+7SLde94rue70Rev56fL0yvT161/U+6dP1g/Rz9JfrN+rfN8AN7AxiDKYabDA4bdA3QmuE9wjuiLIR+0fcMUQN7QxjDWcYbjFsNxwwMjYKMRIZrTU6ZdRnrGPsb5xtvNL4mHGvCc3E10RgstLkuMlzujadSc+lr6G30ftNDU1DTSWmm007TD+bWZslmBWb7TG7b04xZ5hnmK80bzXvtzCxGGsx06LO4o4l2ZJhmWW52vKs5Xsra6skqwVWjVY91nrWbOsi6zrrezZUGz+bKTY1NtdsibYM2xzb9baX7VA7N7ssuyq7S/aovbu9wH69fedIwkjPkcKRNSNvOqg4MB0KHeocHjrqOEY4Fjs2Or4cZTEqddTyUWdHfXNyc8p12up0d7Tm6LDRxaNbRr92tnPmOlc5X3OhugS7zHFpcnnlau/Kd93gesuN5jbWbYFbq9tXdw93sXu9e6+HhUeaR7XHTYYWI5qxmHHOk+AZ4DnH84jnRy93rwKv/V5/eTt453jv9O4ZYz2GP2brmMc+Zj4cn80+Xb503zTfTb5dfqZ+HL8av0f+5v48/23+z5i2zGzmLubLAKcAccChgPcsL9Ys1olALDAksCywI0gzKCFoXdCDYLPgzOC64P4Qt5AZISdCCaHhoctDb7KN2Fx2Lbs/zCNsVlhbuEp4XPi68EcRdhHiiJax6NiwsSvG3ou0jBRGNkaBKHbUiqj70dbRU6IPxxBjomOqYp7Gjo6dGXs2jhY3KW5n3Lv4gPil8XcTbBIkCa2JaonjE2sT3ycFJlUkdSWPSp6VfDHFIEWQ0pRKSk1M3ZY6MC5o3Kpx3ePdxpeOvzHBesK0CecnGkzMnXh0ktokzqQDaYS0pLSdaV84UZwazkA6O706vZ/L4q7mvuD581byevk+/Ar+swyfjIqMnkyfzBWZvVl+WZVZfQKWYJ3gVXZo9sbs9zlROdtzBnOTcvfkKeWl5TULNYU5wrbJxpOnTe4U2YtKRV1TvKasmtIvDhdvy0fyJ+Q3FWjBH/l2iY3kF8nDQt/CqsIPUxOnHpimMU04rX263fRF058VBRf9NgOfwZ3ROtN05ryZD2cxZ22ejcxOn906x3xOyZzuuSFzd8yjzMuZ93uxU3FF8dv5SfNbSoxK5pY8/iXkl7pS1VJx6c0F3gs2LsQXChZ2LHJZtHbRtzJe2YVyp/LK8i+LuYsv/Dr61zW/Di7JWNKx1H3phmXEZcJlN5b7Ld9RoVFRVPF4xdgVDSvpK8tWvl01adX5StfKjaspqyWru9ZErGlaa7F22dov67LWXa8KqNpTbVi9qPr9et76Kxv8N9RvNNpYvvHTJsGmW5tDNjfUWNVUbiFuKdzydGvi1rO/MX6r3WawrXzb1+3C7V07Yne01XrU1u403Lm0Dq2T1PXuGr/r8u7A3U31DvWb9+jsKd8L9kr2Pt+Xtu/G/vD9rQcYB+oPWh6sPkQ7VNaANExv6G/MauxqSmnqbA5rbm3xbjl02PHw9iOmR6qOah9deoxyrOTY4PGi4wMnRCf6TmaefNw6qfXuqeRT19pi2jpOh58+dyb4zKmzzLPHz/mcO3Le63zzBcaFxovuFxva3doP/e72+6EO946GSx6Xmi57Xm7pHNN57IrflZNXA6+euca+dvF65PXOGwk3bt0cf7PrFu9Wz+3c26/uFN75fHfuPcK9svvq9ysfGD6o+cP2jz1d7l1HHwY+bH8U9+juY+7jF0/yn3zpLnlKfVr5zORZbY9zz5He4N7Lz8c9734hevG5r/RPjT+rX9q8PPiX/1/t/cn93a/ErwZfL36j/2b7W9e3rQPRAw/e5b37/L7sg/6HHR8ZH89+Svr07PPUL6Qva77afm35Fv7t3mDe4KCII+bIfgUw2NCMDABebweAmgIADe7PKOPk+z+ZIfI9qwyB/4Tle0SZuQNQD//fY/rg381NAPZuhdsvqK82HoBoKgDxngB1cRluQ3s12b5SakS4D9gU+zU9Lx38G5PvOX/I++czkKq6gp/P/wJEGXx8fHyqMAAAADhlWElmTU0AKgAAAAgAAYdpAAQAAAABAAAAGgAAAAAAAqACAAQAAAABAAACAKADAAQAAAABAAACAAAAAAAoMJe/AABAAElEQVR4AeydB3ycxfH3R71YkqssWbbce+/GvWCDMbjQe8hLEhISQkJCSEKAhA4B/gGSENIopgdM78YY3LBx78bdlnuT1bv0zhwYZOlOem73eZ57ym/9mY/vnmdnd+a7p3vmtkYREgiAgFsJRLPh7Vk6snT65v9s/r/lN9Lqm/9j+P8olmYskvJZKljyWMpYilkKWQ6z7GHZ+83/u795LfmQQAAEPEZAvhSQQAAEnE8glk0cyDKCpT/LAJa+LE1YrE5HuIIVdeSg1ZWifBAAAWsJIACwli9KBwFVAvKrXR72Z7OM+ea1HQ97rspQ2s+5lrF8yPIByz4WJBAAARAAARAAAQUCaaxzFcvLLMdZalwka9jW+1gkWJHgBQkEQAAEQAAEQKABAsl873KWN1hKWNz00A9l6zH243GWQSxIIAACIAACIAACtQj05tcPsLjtl36oh36o6xvZx9+ypLMggQAIgAAIgIAvCchEvstYZOw81APTq9dL2WcZ2hjMggQCIAACIAACviCQwl7exLKbxasP+HD8kkmDY1mQQAAEQAAEQMCTBGR8/xcssmQunAekX/IuYi7TWbAaiSEggQAIgAAIuJ9AHLtwAwse/MYCny+Y1XD3Nzs8AAEQAAEQ8DOByez8eha//Io3y89qZvY/FtnJEAkEQAAEQAAEXEOgM1v6HotZD0S/liPbFN/CEs+CBAIgAAIgAAKOJSCb3vyKpYjFrw9tK/zeyjwxUZAhIIEACIAACDiPQB826UsWKx6AKJOoitnKXgnoDWAISCAAAiAAApEnILPWr2PBr357gh+ZUyEHISGBAAiYSADLb0yEiaJ8QSCDvXyGZapTvE1OSqbWLdOpaVozasbSNC2NmiQ3oeTEZEpKTKL4+HiqruYOBf5rLysvC0h1dTWVl5dTVXUVVVRUUFFxERUWFVJ+YX7g/4LCAjqZd5Iqqyqd4qZsJHQry2MsMmEQCQRAQJMAAgBNgFD3FYFR7O2rLFmR8loe5m0z21K7Nu34/yzKaJUReNgbtaempoaKS4s5CChvVKW6pppO5J6go8ePfivHThwjKSOCaQ7XfSVLWQRtQNUg4AkCCAA80YxwwgYCP+U6/sJi+3h0m9ZtqEuHztSlYxfKysiiqCj9P1v5ZV9SWkIVleH9wi8rK6Ocgzm0d99eyjmQEyjDBvZ1q5jNF66pexHvQQAEwiOg/00SXn3IDQJuIyD79/+D5Yd2Gt4mow317taLenXtRWmpckqwNam8opx7BEp4iCD8XnXpCThy7Aht372dtu3cRqVl0ktvWzqHa/rQttpQEQh4kAACAA82KlwyjYA8eaXL/yzTSmygIBmv79ujLw3sO5DSW7RqIKe5twLDAiU8LMDBgGqqqqqiPfv20JbtWwI9AzYME3zCtk5RtRd6IAAC2IMbnwEQCEWgLd94n6V/qAxmXW/ZvCUNHzic+vXqS7Ex0uEQmVTOkwGLORCQsX+dJBMK125aS5u2bqLKMIcYwqhXopVmLCVh6CArCIBALQLoAagFAy9B4BsCnfj/eSzyv2Ups3UmjR0+hrp27GrKuL4ZhspQgDzAK0yY/S9DAus3r6cNWzYEVh6YYV+dMnrx+y11ruEtCICAQQIIAAyCQjbfEOjBnkr3cjurPE7nJXvjzxhH3Tt3t6oK7XJlgmCJSWP6Ms9AAoHVG1ab3SMgGzFt0nYWBYCATwkgAPBpw8PtoAR68tXPWGStv+kpOSmJxp0xngb1GeiYX/wNOVle+fX+AGaN50vPwtKVS2nbrm0NVWv0noxTpLIUG1VAPhAAgdMJIAA4nQfe+ZeAHOazgEXG/k1NsmxvcL/BgV/9iQmJppZtdWEyua+guFBplUAo2w4dOUSLly8O7C0QKo+B69JW4w3kQxYQAIEQBBAAhACDy74iIEfQygOlo9leywS/aZOmUXaWZSMKZptcrzzZRbCIgwAz5gWcKlx6FdZuXEtfrvlSNbi4mMt67VR5+B8EQCB8AggAwmcGDW8RaM7uLGaRCWWmpsF9B9HkcZMjOrPfNId48z/pCajgYQEz0/Hc4zRv4Tw6cfKE4WJ5m+MveThhhGEFZAQBEAhKQI4yRQIBvxKQXf3eYRlmJoCE+ASaPvk8Gjl0JEVHR5tZdOTK4p8K8XFx/Gu9is8P0FsmWNsJOcegZ9eeJEMNsqlQY0l2RbzwvAvbjB02dvOy1cswAbAxYLgPAg0QQA9AA3Bwy9ME5LP/DMv3zPQyIz2Dzp86i1o0a2FmsY4pS7ruC0t4mSDvGWB2Onz0MC36clHQuQEJCQk0oPeAwCZJ0VHRfK5RVE18Uvz3HvvnY8+bbQfKAwG/EEAA4JeWhp91CfyGL/y57kWd957q8m8EhMzo19k5sKHiZVhAJgrK6YRy+JEEU3IAUmxsvU2SahLjE6989D+PvtRQebgHAiAQnAACgOBccNXbBCaxex+x1HuiqLgts/wnj51MwwYMVVF3p45FcwLChcHsq7knYNpjTz4m7YkEAiAQBgEEAGHAQlZPEGjPXqxgSTfDm7jYOJo1dSZ169TNjOJcVYYMBxTwr3Q5WTCSiYcEKuPi4oY89p/H1kXSDtQNAm4jgADAbS0Ge3UIyIy8T1lMWT/ODx26+LyLqWO7Djo2uVpXtg7OLypQXcpnmu8x0dHFVYnVnZ588snGZxKaVisKAgF3E/DIFGV3NwKst43ArVyTKQ9/2dDnyvOv8PXDX1pNVjmkJqfIpDzbGjFYRbwyITm2LHbtn/70J1OGdYLVgWsg4DUCCAC81qLwJxQBGaC/I9TNcK7LMr/LZ15GWRlZ4ah5Nm9MTAylNEmJuH88FJGZm3NCDnFCAgEQMEAA+wAYgIQsricg++9+zNJa1xPp9r90xqXUto3pOwbrmhZRfe6C58PFo8w+7Cdsn6qqqzqMHT46aemqZXKgExIIgEADBNAD0AAc3PIMgdvZEznlTytJd/eF51zg6m19tQA0opzEwyJBluo1omX+7ZKyslt+cd0vxphfMkoEAW8RQADgrfaEN/UJ9OdLsuZfO00ZN4U6d+isXY6XC0hJasLzAiI7H4D5RlWVV7138cUXy06PSCAAAiEIIAAIAQaXPUFAPt//ZonT9WbEoOE0hE/0Q2qYgPSSNOEgINKpsroyLSs184NI24H6QcDJBBAAOLl1YJsuAdnmd7huIVmZWTRx1ETdYnyjL3sjJPJEyUinsqqKSb/48S+uirQdqB8EnEog4n11TgUDu1xPQKalf8WiNVVflvv94LJrqWlaU9cDsdMB2SToZEEeyf+RTNwjUVoZX9nyX//6V3Ek7UDdIOBEAlgz68RWgU1mEPgdF6L18BcjZpw1HQ9/hdaQ7ZHlpD85MyCSiTcqSkyqSnqNbZjG0pVFeoTasOSyyI6Q61kiG6WwAUggEAkCCAAiQR11Wk1Alvv9UreSEYNHUNeO8sxAUiGQEBdP5bHlVFFp/smB4diz9+Dec3jvhrVl5WUyIbRu2sQXZJXI63Vv4D0IeJ0A9gHwegv707+72e1xOq63yWhDs86eyUvbMUqmwzGOT/ArKy/XKUJLd93mdTT387lUVVWVEaIgORPiUpZWLB+GyIPLIOBJAggAPNmsvnZKuv1nsyjP/JeZ7LLZjxN2t3N7S0oAVcP/InFg0Lad22jB0gVGEcrQgEyKnm9UAflAwO0EsArA7S0I++sS+DVfSKp7MZz3o4aMpNYtTTksMJxqPZtXNgiyuyeFu/tp4ZcLw2X6e1boG64S8oOAWwkgAHBry8HuYARkqv4Pg90weq1Z02Y0atgoo9mRzwABefjbvSxwy/YtVB7+0IPMibrVgEvIAgKeIIAAwBPNCCe+IfAj/j9Nh8aZoydRbAzmxuowDKabmJhI0VH2fd3s3b83mBlGrl3EmXDQgxFSyON6Avb9RboeFRxwOAF5at+oY2OHtu2pRxftIwN0TPCsrhwXnJhg3+ZA+QX5qixl7sj1qsrQAwE3EUAA4KbWgq0NEZB13tkNZWjs3oRRExrLgvsaBOQYZbt6ATQ3ILqO3ZQTJJFAwNMEEAB4unl95Zx8aSsnWe/fNhM9v8oADSjKXICEeHvO50lL0RoJkhmgswy4hCwg4GoCCABc3Xww/hsC8st/qg6NcSPG6qhD1yCBeJsCgOy2Wp1B4s01Bl1CNhBwLQEEAK5tOhhei8DV/Fp5T4uO7TpQZuvMWsXhpVUEYqJjSDYHsjp179ydjyXW+nqbwjbKnhJIIOBZAlp/IZ6lAsfcRkB2clNOIwaNUNaFYvgEZC6A1alJchPq3L6zTjUSUOIkQR2C0HU8AQQAjm8iGNgIgZ58v38jeULebtm8JXXp2CXkfdwwn4AcF6z569yQUf169TOUr4FMFzdwD7dAwPUEEAC4vgl978AlOgQG9hmoow5dBQIyGTCeDwqyOmWkZ1C63o6OQ9jGdlbbifJBIFIEEABEijzqNYvATNWCYmJiqF9P7Pyqyk9HT3oB7Eg9umrt6yAnQSl/vuzwD3WAgA4BBAA69KAbaQJywtsgVSO6d+oWOLNeVR966gRkIqAd5wN069iNJNDTSAgANOBB1dkEEAA4u31gXcMEzubbyuf19u7eu+HScddSAvFx1vcCJPDugx14lYdGkmOlkzX0oQoCjiWAAMCxTQPDDBBQXvsv69G7dMDkPwOMLctixzwAMV5zNYAsWRhpGQQUDAIRJIAAIILwUbU2Afl1ppRk579YG9ajKxnnE6W4mDhbhgHa8xkPmqsOJvikSeCmzwggAPBZg3vI3Y7si/LevV3x6z/yHwUevNEcnzfkg/T2ZGVo7ekzwVBFyAQCLiOAAMBlDQZzvyUw6ttXYb6QyWed2ncKUwvZrSBg12oA6QXQSMNZ1/rdizQMhCoIqBBAAKBCDTpOIKAcALRu1ZpkpzikyBOI5a2B7UhZmVo9ALJpQR877EQdIGAnAQQAdtJGXWYSUN7BJztL+6AYM/3wdVkxsfYEALLjo+YWxIN93VBw3pMEEAB4slk975Qs/VPewacdjv11zAckOipad4KeIV9k2EfzwCfl/SYMGYhMIBABAggAIgAdVWoTkIXdTVVLadtGee6gapXQa4CArAawI2luCzzADhtRBwjYSQABgJ20UZdZBJR//ScmJFLTVOXYwSz7UU4tAjEx9nwNtWrRqlatYb/sFrYGFEDA4QTs+ctzOASY5zoCylP4ZQIgkrMIaK7RN+yMZgAgH5xUw5UhIwi4gAACABc0EkysR6BjvSsGL7TWOx3OYC3IFg6BGJtWAqQ0SSHNZYedw/ELeUHA6QQQADi9hWBfMALKPQDNmzUPVh6uRZBAtE1DAOJiWmqajqfYO1qHHnQdRwABgOOaBAYZIKC8jq9pajMDxSOLnQSi+DwnO04GFJ80A4A2dnJBXSBgNQEEAFYTRvlWEEhXLbRZGiYAqrKzUs+ueQCpKVrD+FqzCK3kh7JBQIVArIoSdEAgwgRaqtbfhMeBkawncPjoYdrw1Qbaf+gAFZcUU1JiEmWkZ1Dvbr2pfdv6HTiyH0AV/7M6iR0aSTnw1KgTqiBgGQEEAJahRcEWEUjkcpWf4km8DBDJOgKlZaX08YK5tGHLhnqV7D+0n1atXxU4nve8yeeSTMo7laJ5ox47EgIAOyijDrcQwBCAW1oKdp4ioDyLT/YAsKur+ZSxfvpffvU//cozQR/+tTns3LuTnnrlaTrAvQPfJnue/ySfAY2E8SMNeFB1HgEEAM5rE1jUMAHlU9kSEpRVG7YId2ntprX07KuzKTcv1xCNwqJCev71F2jj1k2B/FFkz1dRXJzWroP4ABlqXWRyCwEMAbilpWDnKQLKX8KxMfi4n4Jo1v+VVZX08edzac3GNWEXKbpvffQWHTl2mIYPGhG2voqC5p4Dyp89FVuhAwJWE8A3otWEUb7ZBORoVqUUE23Pr0wl41yolFeQR69/8AYdPHxQy/ovVi6lYyeO0/iR4yk21tqvpJgYrdMHEQBotTSUnUbA2r82p3kLe7xAQLkPN9qmHee8ALkxH7bu3ErvzH2XysrLGstq6P62XdsCwwfnTDqHmiQ3MaSjkkmzB0A5+FSxFTogYDUB/CSymjDKN5uA+nQxdU2zfXBtedXV1bRw2UKa8/7rpj38T8E4duIYzXlvDg8JHDl1yfz/9T4Detrme4MSQUCLAAIALXxQBgH/EJD1/C+//Qot/HIR1dTUWOK41CHzArbu2GpJ+SgUBEDgOwIYAviOBV6BAAiEILB3fw69+dGbJLP3rU5VVVX06eJPA0MCwwcNt22bYKv9Qvkg4DQCCACc1iKwBwQcREC6/BcvX0yLVywheW1nWr1hNclEw0mjJ1k+OdBOv1AXCDiFAAIAp7QE7AABhxHIy8+jt+e+TTkH9kXMsp17dpLYMXXSVEptorWPf8R8QMUg4FQCmAPg1JaBXSAQQQJrNq6lf7/4n4g+/E+5fzz3OL3x/hvWTg48VRn+BwEfEUAPgI8aG66CQGME5GE7d8EnJNv1Oimdmhw4/ozx1L1LdyeZBltAwLUEEAC4tulgOAiYR0AO8ZHlfSv5sB67x/qNeoHJgUZJIR8IGCOAAMAYJ+QCAU8SqKysDGzju4gn+smvbDckmRx4Mv8knTnmTEwOdEODwUbHEkAA4NimgWEgYB2B8orywAE+sg2vHUv7zPZk195d9AZvQ4zJgWaTRXl+IoBJgH5qbfjqewLysF/EG/n8/ZknAmP9Vj/8u7bPoAd/fgElJSjv4ByyzTA5MCQa3AABQwTQA2AIEzKBgHsJyK59u/ftoTXcdf4V7+Fv1xj/9PGD6Zl7f0zN46ppSt8smnnbc5RzNM9UkJgcaCpOFOYzAggAfNbgcNcfBOQhv/dADm3ftZ02bt1IRcVFtjkeyyfu3feLS+jX10z7ehe/kgIa1DWLlvz1JzTz9udo1bYDptpyanKgzAuQnQORQAAEjBFAAGCME3KBgOMJ5Bfm056cPbR993ZexrfL9MN6jABok96MXvrzDTRuSM962dulN6WFj/2YrnngVXptwYZ693UvrOIVDLl5uZgcqAsS+r4hgADAN00NR71CQLr0C4oK6PiJ43Tg8AGWg4H/7fyVH4zlhGG96MUHb6DMVk2D3Q5cS+a5AP+743L647Pz6J7n55t+qJBMDnzzwzdp6sSplNIkJaQduAECIECEAACfAt8QkLXum7dvcby/FTxDX7q1S8vKqLKygiqrKrkLv5jyeV/8vIJ8kl/6ct8pKS42hm7/yfn0+x/OoJjoxucVR0VF0V3fn0y92qfTDx5+nUrKKkx1RY4Vfp2PKx4xeES9ZYJFRfYNhZjqFAoDAQsI4HxrC6CiSEsJDOHSV1haAwo3TKBT23Safd/1NHpQA7vz8RyAqMLcoGWu3n7AksmBQSvTv7iRi+irXwxKAAFnEGg8XHeGnbACBEDAYQSunj6G1s65v+GHfyM2y+TApX+/nob2aNtITtwGARAwm0CM2QWiPBCwkMBILvsulq4W1oGiGyGQndmSnrv/evrttdMpPs7AKGJlOUWVl4YsNTU5ga6aPIi+yjlGm/ccCZnPATfS2IZklvUs7tg20QHQYIJzCSAAcG7bwLLvCPTil7NZHmDBw/87Lra+SuQJfPLQf+mhG6hv12zjdTcSAEhBMo/g4vF9qaq6hhau32O8bHtzSrQzluWnLPJ6OYu5Exi4QCQQsIsA5gDYRRr1qBBIYKU7WH7DYv5WcioW+VRnxoTB9MhvrqQu2RnhE2hgDkCwwl76dC1d+9AcKi2vDHbbSdckUvkhyydOMgq2gIBRAggAjJJCPrsJ9OAKX2XpZ3fFqO87An26tKOHbr6Cpo7u/93FcF+FGQBI8V9u2Uez7niODh4vCLc2u/PXcIV/ZZEgtdzuylEfCOgQQACgQw+6VhGYwQU/xyJjrkgRIDCkdye69UczaebEIRQdrfk1oRAAiMv7eNtgK3YOtAjnEi73QpZDFpWPYkHAdAKaf9mm24MCQeBaRvBPFhljRbKZgCznu+Xa8+i8cYO+3sbXjPoVAwCpWoYBfvDwHHpx3lozLLG6jN1cwVSWr6yuCOWDgBkEEACYQRFlmEXgZi7oIbMKQznGCCTEx9KsSUPp+ksnB93C11gpDeTSCACkVNn58I5nPqF7X/jM9J0DG7Ba9dZhVhzPgiBAlSD0bCOAAMA21KioEQLX8/2/s+Az2Qgos273796erj1/PF113mhq0dTCbXM1A4BT/rpocuA+tnkMy55TtuN/EHAiAXzZOrFV/GeTdJu+y4JlqRa3vazhlxn918wcR0P7dLK4tm+KNykAkNKWbc6h8Tf9m8oqHL9CQPYKGM3i+FmMwhXJnwQwzurPdneS153ZmJdZ8PC3oFVkb/4R/bvQuTymP23sQBrQo70FtdhX5Ihe2dQkMc4NAYCsXnmW5QL76KAmEAiPAAKA8Hght7kE5PP3Akvo4+PMrc/zpclmPYN6dqThfTvT8P5dacrIvtSqWarn/Xaog+ezXTK09Q+H2gezfE4AAYDPPwARdv/XXP8ZEbbBldXLFrzSnd+hTcvA5jyDevFDv18X6tctO7Crniud8qbRD7NbH7Ds9qZ78MrNBBAAuLn13G17RzZfdvkzPcXFRFPXNs2oQ+s0SuYZ7rXTtoMnaf2eY7UvGX7dvUMmd6F3MJxfNWOTpASSmfnNUptQAv+iT2KR18mJ8dSpXTo/9FtR29Yt9NfnqxroYr3zhnaieN52uHY6ll9C2w+dpAMnimpfNuu1nB3wOIvsbYEEAo4icPq3o6NMgzEeJ3AP+ydfjqak5IRYOm9oZ5o+rDNNGdie0pLig5b7+Ltr6HfPLQp6r7GL540fRA/ffGVj2XDfwQSe/MmZ1CI1MaiF2zk4fGf5Tnrry5305bZDQfMoXpzOehNZ5ivqQw0ELCGAAMASrCi0EQJypvrljeQxdDuGd6m7ekIvuu3iEZTVookhHWQCgWAEpNfophmDA/LJur102wtLaN1utd6iIOVLwCurApBAwDEEEAA4pil8ZYiM/UfretyRu/hf/vU06t+xlW5R0AeB0whM7t+eJvXLJukxuv3FJYFTCk/LEP6bUawiAcDi8FWhAQLWEND+ErbGLJTqYQLp7Jv2r/8xvbJo4X2X4OHv4Q9KpF2LjoqiX04fRK//djqlJQcfUgrTxhvDzI/sIGApAQQAluJF4UEIXMbX5Jhf5TSieya9/YeZ1DLEWK5ywVAEgSAEZE7J27fOoMS40ycPBsna2KWZnKFZY5lwHwTsIoAAwC7SqOcUAQkAlFO7limBbn8TvoyVbYCi/wgM75ZJf7tukq7jEvhiYyBditA3jQACANNQoiADBFpyHuV1/9wjS8/ceDZlNDNt8YABk5EFBL4mcMW4HnTNxN66OM7TLQD6IGAWAQQAZpFEOUYInMmZlD9zM4Z1oVE92xipB3lAwBICt18ygmTJqUaS5YDaYwka9UMVBL4loPxl/G0JeAECxgmMNJ719Jyy3O/Oy5U7D04vDO9AQJGALDX92TkDFLUDajIHoJdOAdAFAbMIIAAwiyTKMUJgkJFMwfKM6plF3bOaB7uFayBgK4FrJmkPAyj/HdjqKCrzPAEEAJ5vYkc52FPVmnOHdFJVhR4ImEqgc0ZT6p0t01mUE3oAlNFB0UwCCADMpImyGiIgM6BbN5ShoXvThnRs6DbugYCtBDQ/j9m2GovKQCAEAQQAIcDgsukEMrlEnscffpJJV10ysXw6fHLQsIpAvw5au09iJqtVDYNywyKAACAsXMisQUB57V7bFikkSwCRQMApBOQzqZG0lDXqhSoInEYAAcBpOPDGQgLBj2AzUGGS3rIrAzUgCwiERyAlMS48hdNzK/8tnF4M3oGAHgEEAHr8oG2cQKnxrKfnrKisPv0C3oFAhAmUVlTqWFCiowxdEDCLAAIAs0iinMYIFDSWIdT9I3nFoW7hOghEhMDRPK1nuPLfQkScRaWeJYAAwLNN6zjH8lUtOl5QSsfytb5wVauGHggEJbBlf27Q6wYvKv8tGCwf2UDAEAEEAIYwIZMJBORL74RqOXPX7lVVhR4ImE7gE73P4y7TDUKBIKBAAAGAAjSoKBPYqqr57gp8Z6qyg565BHILS2nxlgM6hX6lowxdEDCLAAIAs0iiHCMENhvJFCzP3DV7KK+oLNgtXAMBWwm8uWwHVVZpTUzdYqvBqAwEQhBAABACDC5bQmCxaqmFpRX0yNurVNWhBwKmECitqKIHXl+hU5ashlmpUwB0QcAsAggAzCKJcowQmG8kU6g8f3tvDe07XhjqNq6DgOUEnvhgLeUc05rEv4SNxIxWy1sKFRghgADACCXkMYvATi5oh2ph8uvrJ/+Yp9v9qlo99HxOYP2eY/TAnOW6FObqFgB9EDCLAAIAs0iiHKMEXjSaMVi+T9fn0G9nLwp2C9dAwDICJ3gp6mWPvE8yFKWRalj3FQ19qIKAqQQQAJiKE4UZIPAc55EvQuX0jw/X0T2vLqMarVKUq4eizwgcyi2iGfe9TbsOay/fX8jodvkMH9x1MAEEAA5uHI+ato39+kzXt/teW05XPfohFZdpbcmqawb0PU5g1c4jNObW/5H8b0L6jwlloAgQMI0AAgDTUKKgMAjcH0bekFnfWLqdzvjtyyT/ozcgJCbcUCBwkpec/uGFJTT5jjl04ESRQgn1VGT+y0v1ruICCESQQGwE60bV/iUgE6GWsYzQRbD94Em68i8f0rCuGXTd2f3onEEdqUUqDlvT5epX/Y17j5Os83+Ch5lkwx8T0wNcFrqrTASKovQJIADQZ4gS1AjczGoLWKLU1E/XWr79MInExkTTqB5taFDn1tSxdRqlJMVRUvx3H3OZyY3kXwLvrNhJqUnx3wLILy4PPOi3cSD5+cZ9Zozzf1t2rRfr+fXTtd7jJQg4gsB334yOMAdG+IjAIvZ1Nss1ZvosO7Qt2LQ/IGaWi7K8QeD6Jz+12xGZqnojC379200e9TVKAHMAGkWEDBYSuIXLPmxh+SgaBCJNQCb+fRZpI1A/CAQjgAAgGBVcs4uATK2+nKXKrgpRDwjYSGAj1/VLG+tDVSAQFgEEAGHhQmYLCMznMu+2oFwUCQKRJCD7BV/MUhxJI1A3CDREAAFAQ3Rwzy4Cd3FFT9lVGeoBAYsJyHaB8vBXPv3SYvtQPAgECCAAwAfBCQRkotSPWd51gjGwAQQ0CFSzrkxs/UijDKiCgC0EEADYghmVGCAgs6QvZHnZQF5kAQEnEihno65gwYY/Tmwd2FSPAAKAekhwIYIE5Av0Spa/RtAGVA0CKgROstJUFhz2o0IPOhEhgAAgIthRaQMEpAtV1k1fzVLYQD7cAgGnEFjFhgxlkQmtSCDgGgIIAFzTVL4z9Hn2eBiLbBmMBAJOJCDDVg+zjGTZ4UQDYRMINEQAAUBDdHAv0gS2sAHy5SqTqo5G2hjUDwK1CKzg1/LZ/A2LDF0hgYDrCCAAcF2T+c5gWSEwm6UHyx9ZTrBEJOHEwYhgr1epfCAimL7kumeyDGeRIAAJBFxLAAGAa5vOd4bnssd3sXRk+RnLUhZbU3Fpma31eaYykyOn4lJZZm9rks18XmCZzCInWL7NEuE4hC1AAgFNAjgMSBMg1G0nIDusPfGNdOf/p7NMYhnHksJiWSooMvV4WMvsdFrBUTUyr9OcVF5ZRWUVtpyrs5Mt/pRlHst7LPK5QwIBTxFAAOCp5vSdM1vZ40e+Efksd2LpydKVJYMllUWCgiSWU6k9v5BfcWGnwmIEAGFDEwUTfysXFGv1wkgkMqeOD3n8XlabyAM+h+UrFpl7IudUIIGApwkgAPB08/rKOflZuO0bacjxGXzzrYYyhLpXgAAgFJqGr5vYA6AZAMgw0iUNG4u7IOAfApgD4J+2hqdfE1BeTZBfWAKGKgRMnAOQpzcMo9z2Km5DBwScTgABgNNbCPaZTeCYaoE7cg6rqvpbr9q8MfsdB7QWgaBb39+fRHhfhwACgDpA8NbzBJQDgJMFxXT4uAwZI4VFoMq8AGDrPuXmE5O1lMPyGZlBwAUEEAC4oJFgoqkEZBw4X7XErXsOqar6U0+6/6urTPN9y16tXvw9phmCgkDAAwQQAHigEeFC2ARksqBS+mr3QSU93ypVmffwF4Zf7dMKAJTb3bftB8c9TQABgKebF86FICDLB5XSxm2yUgzJMIFq8zbtqebeBM0eAOV2N+wvMoKAiwggAHBRY8FU0wgoPwgWrJRl4khGCURVaK3bP62aNdsP0slCrb0YlNv9NEPwBgQ8QgABgEcaEm6ERWBDWLlrZV67dQ8dP4lTimshafiliQHA/DWyOZ9yOsma+5S1oQgCHiSAAMCDjQqXGiWgfMRwdXUNfb5ic6MVIAMTkB0Aq8wbAvh0tdaJu9LmJu5JiBYGAfcTQADg/jaEB+ETkIH8/eGrfa3x2fJNqqr+0qsq5xUAsvuufqqsqqZF63frFGT74VE6xkIXBOwggADADsqow4kE5FhXpfTu52uoxsTd7ZSMcINSuXnj/5+t3Un5eucAKLe3G1DDRhBQIYAAQIUadLxAYKGqE7sPHKUFK+W8GKSGCESVyym65qTn5q7WKUh2IlqiUwB0QcCLBBAAeLFV4ZMRAh8ayRQqz/PvLg51C9eFgHT9V/AQgAmpqLScXl+4Uack6f6XSYBIIAACtQggAKgFAy99RUBm8inPKnv142VUzA8mpBAEyuXgJHPm3MnDv7BEi/UHIazEZRDwNQEEAL5uft87r9wLICcDvjFvue8BhgIQVWZe9/+zH68KVY3R6wgAjJJCPl8RQADgq+aGs3UIvFXnfVhvH3n2fUwGDEZMuv8DPQDBboZ3bcVX+2neKuWOGqlM9v9fE16tyA0C/iCAAMAf7QwvgxOYx5eVlwOu2bKH3luAZ0s9tKXmbZR07wvz6xUf5oUXOL85YxFhVozsIOB0AggAnN5CsM9KArJI/RWdCu7915s66p7UjSotMMWvTXuO0NtLZKqGVnpRSxvKIOBhAggAPNy4cM0QAfmFqJyWrd9B85ZpzVBXrtuRimU8+c+kEwDvmv0pyQFAGmkl66JxNABC1dsEEAB4u33hXeMEZIaZ1iLz3zzyIlWa9NBr3Fxn54gqyTfFwC827aVXP1+vW9Z/dQuAPgh4mUCMl52DbyBgkIAcMTfLYN562Q4dy6OWzVJpRP+u9e756kJ5KUUV6wcAVTyJcNbtz9PBE1pDCSeZ/TUs5h1G4KvGhLN+IIAeAD+0MnxsjMBLnOFQY5kaun/H31+jA0dzG8ri+XtRxXmm+Pi3N5fS6u0HdMv6FxdQpFsI9EHAywTQA+Dl1oVvRglUccYUlglGFermKyuvpINHT9KFU4bXveWP9xUlpvz6P3i8gC6680Uqq5Dde5WTKF/NYk5EomwGFEHA2QTQA+Ds9oF19hF4nKuSbmPl9NIHX5A/twiuoahCLXQB5jLh7/899BrlFcmIjFZ6nrVl/T8SCIBAAwQQADQAB7d8RUD67x/T9fin9zxNW3Zpd1/rmmGvfjGP1VfqD7Xf98Jn9NHybbq2iyF36xYCfRDwAwEEAH5oZfholMBfOOMJo5mD5SssLqVLb/4rlZRp7V0frGhnXquuMqXrf8G6XXTnbNmXSTvJzP+d2qWgABDwAQHMAfBBI8NFwwROHWA/xbBGkIxHTuTTsdwCOm/8oCB3vXUpqoDjpUq9YOcQz/Y/65anzej6lwMILmHRX4rgrWaCNyAQlAACgKBYcNHHBOSEH3mItNJhsHLTLoqLi6Wxg3voFONs3dIi7V//+cVl/PB/irbuO2aGr3dxIe+aURDKAAE/EEAA4IdWho/hEJAVAV+xyCxyrTT/y03UNqMFDe7VUascRypXVVBUAT+0NXbqK6+s4vX+z9HiDabM19vBnK5i0Vo+4EjWMAoELCKAAMAisCjW1QRkDLk/Sy9dL97nw4L6dG1HvTu31S3KUfpRefzwr1J/1sqM/yvufYXe+WKLWX59jwvSPjjALGNQDgi4gQACADe0EmyMBIHFXOn3WZJ0Kq/hB907n62ivt2yqWenLJ2iHKMbVcQLJspkuF0tVfAv/+8/+Bq9PH+dWgH1tWQjpwfqX8YVEACBhgggAGiIDu75mYDsQ5vDcqEuhMqqanrt4y8ps1VTGtK7k25xkdWXcf8i9TX/RaXldMEfX6DXF5l2Rs9+BjKdhU8hQgIBEAiHAAKAcGghr98IbGCHZRigr67j0hPw7uerqbSsgiafoV2crjlq+rLXf8FxNV3WOlFQQtN+/wzNX2PaKj05KvAylvXKRkERBHxMAAGAjxsfrhsi8CnnupylqaHcjWRavHor7Tt8gqaM7EtxsS7685NJf3lHlSf9rdt5KDDbf+0OrSMX6tJ9lC/8ve5FvAcBEDBGIMpYNuQCAV8TGMjeL2HRmg9Qm2DvLm3plYd/Tn26tKt92Zmv5eF/8ggRb/qjkmZ/vJquf/RNKubeDxOTtMdEFr1NCEw0CEWBgNsIuOgniNvQwl4PEZCfrXtZzjfLp6O8UdBz7yyi9m1aUv/u7c0q1vxyeIvfqLzD/PCvDrvswpJyuvahOXTXc59SBc+DMDFJe0xmUZ+MYKIxKAoE3EoAAYBbWw52201ApqxnsAwzq+JyPvHujXkraOP2fTRyYDdKSzGtg8EcEysr+eEvv/zDf3i/u3QLzbhtNi1Yv9scW74rRU4KOpdl03eX8AoEQECFAAIAFWrQ8SuBD9nxfiwyMdC0tGnnfvrnq/NINsYZxYFATIwDjuioKPv64V8T3sN//7F8uuHxt+l3//6IThbKs9rUJMZcyfKRqaWiMBDwKQHMAfBpw8NtZQLJrPkJy0jlEhpQ7MubBj1w02V0zpgBFBUVoT/PMl7qly9nIskke2NJjvB97PUl9OBLn5s91l/bgBv5zV9rX8BrEAABdQIR+oZRNxiaIOAAAi3ZhgUsva2yRbYPvvVHM2nWpKEUHW3Tnyk/76OKeVi92PhZOsfziwMP/r++scSKX/y18d7Hb/5Q+wJegwAI6BGw6ZtFz0hog4ADCch8gHksfay0TVYJ/OqaaXTRlOGU2iTRuqp4nD+wxr/c2H46cnjPv99bTk++s4xksp/F6QEu//cW14HiQcB3BBAA+K7J4bCJBNK5LBkOkHMDLE2JCXE0ffxgumr66MDwQGyMidN3Tm3w08gyPxnTf3vJZnpu7mqat3oHnwNkfIhAA86DrPs7DX2oggAIhCCAACAEGFwGAYME5Njg91iGG8yvnS0rvTlNHdOfJg7vTZOG96E26c0Uy6yhqELe17+kMKi+HNizetsB+nT1TpYdAZGJijYliS5uZ7nXpvpQDQj4jgACAN81ORy2gIBMDHyBZZYFZTdaZK/OWTR2cE+SzYXkwKHuHTOpfWarhucOlBfzw5/H+7850a+EN+mRbv2vco4F/l+5dT99vm4X5fL2vRFIMqbwQ5bnIlA3qgQB3xBAAOCbpoajFhOQtXuPsPzS4noMFZ+UEE+d2qVTSlJiYH8B2WMgJSmBEuNjKf9kHhUWlQTG7gtKyuhIbiHt4+V7NnXpN2Y/d0nQBSyfNZYR90EABEAABEDASQR+wMbIWbnShQ0Jj8FaZtaNBQkEQAAEQAAEXElgIFu9jQUBgHEGs5mXDKUggQAIgAAIgICrCcjpgS+zIAhomIFsOvD/XN3SMB4EQAAEQAAEghCYztcOsCAQqM9ANlPqGoQZLoEACIAACICAJwjIfgGvsCAI+JqB/Or/CQsmITMEJBAAARAAAe8TmMQuykQ3vwYCcpjP/1iyWZBAAARAAARAwFcEYtnbG1hkuZufAoFl7K9tmyVxXUggAAIgAAIg4EgCb7JVfgoAzndkK8AoEPAxAdm8BAkEQAAEQAAEQMBnBBAA+KzB4S4IgAAIgAAICAEEAPgcgAAIgAAIgIAPCSAA8GGjw2UQAAEQAAEQQACAzwAIuIzA8G6Z1CVTNhq0JyXGxZDU2a5lij0VohYQAAFbCMiSJCQQAAEXEbh51hA6b2gnOlFQSit3HKH1e4/R9oMnaeuBXNrG/x/NUzvCNy4mmrJbpVK3rGbUo21z6tamGQ3q3Jr6dWhFcu+yR96nfccLXUQKpoIACDREAAFAQ3RwDwQcTKBFaiJNGdg+ILXNLK+sCgQBh/OKA0FCfkk5H/VLlFdUFsgWGxtNKYlxFBMdRc1TEik9NYnSmyZRq7Sk2sXgNQiAgMcJIADweAPDPf8RiI+NobbcXS+CBAIgAAKhCGAOQCgyuA4CIAACIAACHiaAHgAPN66PXEtgX7uzdGZpxtKEJZVFZsrJz2C577Q00GkGWWyPHP4z1eI6VIovYCWZ2FDEksciBxUdY9nKksMiuzUigYAnCSAA8GSzetopOVlvAstIll4s8uDvwBLDguRcAmc517SQlklQIIGAyHqWz1nkTIMKFiQQcD0BBACub0LPO5DIHk5hOZNlIks/FhwjyxCQLCcgPUmDvpFLv6lNgoKFLPNZPmKR0x2RQMCVBBAAuLLZfGH0EPbyeyxXsLTyhcdw0g0EJCiQoQyRB1k2s8gRx8+w7GZBAgHXEMAkQNc0lS8MlQf9HSw7WFaw3MiChz9DQHIsARmG+iPLdhbpEbiIBd+rDAHJ+QTwQXV+G/nBwtbs5J9Y5MF/J0tnFiQQcBMBmYMi8xxeZZE5A9exoIeVISA5lwACAOe2jR8sy2Ynn2DZwyK/otJYkEDA7QS6sAP/ZEEg4PaW9Lj9CAA83sAOdS+O7bqFRcZPr2eRiX5IIOA1Ap3YIQkEVrKM9ppz8Mf9BBAAuL8N3ebBODZ4FYtMoJIJVUhhEiirqApTw5zsJeWV5hTkv1L6s8uycmA2iwx3IYGAIwggAHBEM/jCCNmY52mWz1j6siApEji1p7+iurLaycIyZV0oBpauXs0cpNdLVrYggUDECSAAiHgT+MKAAezlcpbvs2ANP0PQSdsPndRRV9bdcVg2ykPSJNCC9V9g+TdLkmZZUAcBLQIIALTwQdkAAVnLv4Slh4G8yGKAwKLNBwzkMjfLppzjgZMFzS3V16X9kL2XuQHoDfP1xyCyziMAiCx/L9cez849x/IsS7KXHbXbt5U7DtPBXNmQzr707opd9lXmn5pkD4EvWC7wj8vw1EkEEAA4qTW8Y0sKu/Iey1Xecck5ntTUEL2zfKetBr31pb312epcZCuTvxXZSfDHkTUDtfuRAAIAP7a6tT7LGOfHLJOtrcbfpf/l7dVk12qAuWv20uqdR/wN3FrvY7j4J1kesLYalA4CpxPATlWn88A7PQIdWF0e/t31iglfOyYhjpp1aUfNuren5NYtKC4lmRKapVBcciLJPSemjc+8S0dWblEybc/RfPr33A10wzSZX2ldqubuhttelCkc6mnATy+iFr06qhegqFnNentqSgPCnSbBU2EJHwZcSlTMKxxyC4n2HuNNfQ8S7TsePL+1V3/LxctqmZ+ziPlIIGApAQQAluL1VeGyvnkuSzc7vE5tn0ntxg2ituMHUZsz+lFahzYUFeOuDq3qyirlAEAY3z9nOU0f1ok6pFu3geITH6yj9Xv4oaiYYuLjaMTtP6D4tMhs+dCP7T5cU04f1Ryn/Jow9k8o4qBg8z5evc+r9hZs5JH6r74OEhQ5hKH2U85bznJTGDrICgJKBLAkSwkblOoQkCfQpyxygp9lKTU7g3pcfjbLWdScf+m7PRXkHKZne11CJIP6iqlv+5b06d0XUUqi+b0cn67PoVn3v0OVVeo/RtufOYxmvP2IonfmqZXyD+q51ScCvQFKpcomSJ+uJ3qZ9/N5fyVRaYVSMWEo/Z7zYkggDGDIGj4BGXtCAgEdAgms/A6LNVudRkVRx3NG0YTHf01j//xzyp44hJJaNtWx1zG6CU1T6MDCNZS/55CyTUfySmjD3uM0Y3hnijOxB2Td7mN04Z/f455xvQfdcP7136pvF2X/zFKM5e0nekQlk+xleJAUNjQStl3bEM0awcf8nE3UriXRV/uJ8orNMrFuOWfyhRyW1XVv4D0ImEUAAYBZJP1ZjvQgPc8y3Wz3o6KjqesFE+isp26ngT+/hNI6chc/BwNeSzEJ8bTjzc+13Np+8CTNW7eXzhnckVKTZPWlXnpz2Q66iB/++SXSE62eEpun0ZlP/JaiY53zNZMdlcAHT0TTXpUg4BQK6W0Z0oUDgbP43MpMPvLnANHxglN3zfpfPuznsqxg2W5WoSgHBGoTcM5fZm2r8NotBG5kQ28229jWg3vSuS/fSwN+djElZ8iiAu+mZt2y6asXP6LyfL11/bIvwKuLt/EP01Tq1a4FB0vhM8vlyXB3vPQF/f65RVReqd7tf6pmCdzaTx5+6q1j/s+IiqdmUXG0iycIqg++sDscpFI/nvd67ZlELVKJlm3l0XvpYzAtyaSWqSwvseSbVioKAoFvCCAAwEdBlcBQVnyZxbTPkEwUG/PADTTx8ZsppW26ql2u0ouOiSGZKLfno6XadhfyuPQbS7fTR6t3cyCQEpgcGB3deCRwvKCUnvxoHV31lw9p4Sbu1jYhxfMqjLOfu5Nik2SEyHmpJQcALVh21PAqAN0kgcCwrrzD/zgeX8j9evKgbpnf6csmWjzuENhUSz8q+65cvAIB7MuOz4ASgWasxTOhqLOSdhCl1kN60tRn/0RpnbKC3PX2pSoeZ39x6Pcob6c5D99TtJqnJPKwQAea1K899WzXnJo3SaQmibFUUFJBsoxQZve/v3I3LdlygKqqtX4Ln6ry2/+H/+H/0fBb/9+37536YmNNIc2vNvlsBZkoeNPTRLKSwLz0Zy7qt+YVh5JAAAez4DOgRuAVVuPp6yYk7qse8NMLadQ91wd+CZtQoiuL2P3hF/Tuhd74fpf5GlesmO3YX/91PyDLa/JpWbXJPewyL+Cax4g25tStTvW9RGjnsHykWgD0QKAuAdO6b+sWjPeeJSATk+41wztZtz/pb7fQ0N9cTdIV7ufUrGs2ndiym05s3u1uDBzQnfX07dSiZ0fX+NGWJwYWUBUdI70VD6c5zHMx6PKxRGt2Ee06fNotxTcyljOK5d8spk40ULQHah4g4O9vXQ80oM0uJHF9suSvuW69sjvfWU//kXpcxjOpkQIEsnnN/LZX51F5Hu9I59Iku/71v/5C11nfISqRdvOkwGIzN+CL533WLhpJdIDnBazbbQYT+buTeQDzzSgMZYAAAgB8BsIhcAdnnhWOQrC8MjFsxpsPUcez+csR6VsCsYnxlDG4B219ZS7VaGy+822BNr+QeRxnP32Ho5b9GUUQzdOh2nEQsKWmmPsCpLfdpCQTBKcNJuI5F3ygghmFnsGF/I/luBmFoQx/E0AA4O/2D8f7bpz5BRb+WaOeZE341BfucuTyMHWvzNOU3Q5T22fQzncXmVeoDSWltGtNs95/lM9f4K5vl6bEqGhKZpHlgaYmWZN51sCvNw7aoj3RU/7+erA8b6qNKMyXBBAA+LLZlZz+G2vxt5hG4i/CSU/cQt0uOlOjEO+rturXlQ8wiqd982WhhfNTUqtmNOvd/6OmHljBkc57BBzmrfjzzB5mlyBg2hCiL7fxCUVHdRu1CxcgESJPMEACAXUCCADU2flJU379/4NFNiZRToNvuoIG33S5sr6fFLNG9afouBja9/kqR7sdePjzL/+WvU1bERpxfzMpnjbWFJk5EPC1T7Ij4rm8fcYbvOfDSb2Nn7jAbJZnIw4LBriaAAIAVzefbcY/xDXxzxf1lDGsN53139tcd2Kfusf6mlmjB5B0re/5eBnVVDtvD5imndvSzPf+4qoZ/0ZaRYYC5NzAAzrbBYeqSLYRPqM77+23kHjzhVC5jFzvxJnmsew1khl5QCAYAQQAwajgWm0C7fnNf1mUPyuJLdLofBkfbu7e8eHaQOx8nT6wO2UO70N75y6jymKTx6Y1HMmeODRwyl8qByheTJk8FCATAsvN7wcgasOT+dN4Qc3ctbroMrmAF3ULgb5/CWh16foXm688/xV7yz9b1NOYB28I/JJVL8HfmtmThtJly57mkxBl9+XIJtm2eNS91/PD/2GSwM6rSU4PHBRlYcD6Yz5RcHRPXXzncAEDdAuBvn8JKP+q8y8yX3kez94+wyL7kSulNjyWPY6P8VU6nUapRm8qyd76PS8/K7BV8qFlG6jC3G1mDUHLGjOAznv1fuo8fawnT2asCyGdzwrYzL0AFVb0AsikQDlR8NlPeWW/8rJDLoRKWLA7YN3Gw3tDBBAAGMLk20zT2fNrVb2Pjoul6XMeoKR07X2DVE3wlh4/NGSFQO/vn8dr7WPp2LrtVFVu4u51IWi17NuFJjz6axrN2zX7qS1lb4CaqBrKqSkLQUbzcjr3oPAJjIFTBNWLktmXj7JoTShQrx6abiYgESQSCIQi8DrfOD/Uzcau97l2Bk38682NZcN9RQKlufm08al3aOPT71D+rgOKpQRXi+INbGRnwn4/mkWdpvEOtPKL1YepnJ+rT1cfpIoa5V/pDVMr4B/wfW7UXRVwHlfyXsMV4S4I1Cfgz7/q+hxwpT6BlnxJnioyDBB2kg1/rlrzgi9P9wsblqaCrBDYv2gt7Xp3Ie16f4lyMCBt1mZkP+o4bTR1mTme0jrIHDOkT6pzeUKg9rK90CDve43oAYm1lZPsDHipsjYUfUsAAYBvm75Rx3/AOf7TaK4QGWSP/ym87A/JfgKF+4/S4eWb6OjabZS/+wAV7D1EpSfyqaqsnCqKyyguJYlkTkFy6+YkJ/c17dKOMob0ovRBPSiOjwxGOp1ADpXSW1XHTr9o5rsThV/3AqjP65B5ABKwy/9IIGCYAAIAw6h8l/FF9lh5157Llj4VGK/2HTU47DkCNTwJ8NmqQ1QY2B3AIvdumU305Ic6hU9h5U90CoCu/whgGaD/2tyIxxIYTjSSMVie9AHd8PAPBgbXXEkgiicDdouSgzAtTFeM1S1c+e9Vt2Lou5cAAgD3tp2VlvfmwpUHgHtczmuckUDAQwSy+aRAS9PATkS9s3WqmKSjDF1/EkAA4M92b8xr5V8TUTHR1P3SyY2Vj/sg4CoCWZSgvhWmUU8vHWM0Z7B8sksUrytEAgHjBBAAGGflp5zK30SteSJZcusWfmIFX31AIJaXQWZEJVjrqRwZrJ7kmOAz1NWh6UcCCAD82OqN+9yr8SzBc7QbPzj4DVwFAZcTaMe9AJam3u2IWjfVqUJ7b2GdyqHrPgIIANzXZlZbLJ+JrqqVtEUAoIoOeg4n0Iq3BrY0yWZLY5RjbzGth6X2oXDPEUAA4Lkm1XZIZiIp7f0vu8e1GdFX2wAUAAJOJNDc6gBAnB6l9SNeS9mJzGGTtQQQAFjL142lK3+JyNn1sskMEgh4kUAaTwO0/AuzW5YOOvQA6NDzoa7ln2cfMnW7y8rd/8268hgmEgh4lEAM7weQGiVz7SxM3bUCAFFW6r2z0CMU7WACCAAc3DgRMk356L7mPTpEyGRUCwL2EGhq9WLALP7zU9+OmScRUDN7SKAWLxBAAOCFVjTXhxTV4lLapquqQg8EXEEg3upBAJkIKEGAesJeAOrsfKeJAMB3Td6ow8pfIHLADBIIeJlAnNUBgMDTm0ejHMB7ud3gW3ACCACCc/Hz1VRV5+NSEQCosoOeOwjEyy90q1Nqok4Nyn+/OpVC150EEAC4s92stFr5F0RcE6wAsLJhUHbkCcTX2BEAaP0dKffgRZ4uLLCbAAIAu4k7vz7l3U6i4yyeIe18drDQ4wSi7egBiNf6O4r3eBPAPRMJIAAwESaKAgEQAAEQAAG3EEAA4JaWgp0gAAIgAAIgYCIBBAAmwkRRIAACIAACIOAWAlqDTW5xEnb6m0BlSRkV7jtCNdXVlNIujW1lXQAALrVJREFUg+LUN1rxN0gPeF98+ASVHDtJic1TKTmzJcn5FUgg4FcCCAD82vI+8HvvvOW05rGXad+C1VRdURnwOCqGDywa2Y8GXH8RdZk5jsiOSV0+YO1kF8vyCmn1oy/T1lc+pvw9h741NSm9OXW7cCIN+fWV1CQLm1h9CwYvfEMAAYBvmto/jlaVVdD8nz9EW174sJ7TNVXVdGDR2oB0mjaapjx1G8WnNqmXDxe8QeDg0g30wRW3kfzyr5tKjubSuidfp83Pf0CT//WHrwPCupnwHgQ8TAD9Xx5uXF+6VlNDn/z4vqAP/7o8dr2/mN654LdUVV5R9xbee4DAsXXb6O0Zvwr68K/tXkVhCX141R20673FtS/jNQh4ngACAM83sb8c3DT7fdr26jzDTh9cso67h18ynB8Z3UGgurKKPvrenVRRVGrIYJkf8sl191Fpbr6h/MgEAl4ggADAC60IH74mwL/+l9//TNg0Vv3fSyQTBZG8Q2Dbq59Q7ra9YTlUdrKA1j0xJywdZAYBNxNAAODm1oPtpxE4suorKsg5fNo1I2/KC4ooZ/4KI1mRxyUEdry1QMnSHW9+pqQHJRBwIwEEAG5sNdgclMCJLbuDXjdy8cRmdV0j5SOPvQRUPwu5W/eSTBRFAgE/EEAA4IdW9omPpSfUx29Lj+f5hJI/3FT9LMjcgbL8Qn9Agpe+J4AAwPcfAe8AqOE5AMpJR1e5UihaRkCnPTU+Rpb5g4JBwAICCAAsgIoiQQAEQAAEQMDpBBAAOL2FYB8IgAAIgAAIWEAAAYAFUFEkCIAACIAACDidAAIAp7cQ7AMBEAABEAABCwggALAAKooEARAAARAAAacTQADg9BaCfSAAAiAAAiBgAQEEABZARZEgAAIgAAIg4HQCCACc3kKwDwRAAARAAAQsIIAAwAKoKBIEQAAEQAAEnE4AAYDTWwj2gQAIgAAIgIAFBBAAWAAVRYIACIAACICA0wkgAHB6C8E+EAABEAABELCAAAIAC6CiSBAAARAAARBwOgEEAE5vIdgHAiAAAiAAAhYQQABgAVQUCQIgAAIgAAJOJ4AAwOktBPtAAARAAARAwAICCAAsgIoiQQAEQAAEQMDpBBAAOL2FYB8IgAAIgAAIWEAAAYAFUFEkCIAACIAACDidAAIAp7cQ7AMBEAABEAABCwggALAAKooEARAAARAAAacTQADg9BaCfSAAAiAAAiBgAQEEABZARZEgAAIgAAIg4HQCCACc3kKwDwRAAARAAAQsIIAAwAKoKBIEQAAEQAAEnE4AAYDTWwj2gQAIgAAIgIAFBBAAWAAVRYIACIAACICA0wkgAHB6C8E+EAABEAABELCAAAIAC6CiSBAAARAAARBwOoEopxvoUPti2a4hLP1YerB0YUllacbidqZd2YemLGGnpl3aUkJaSth6ZikUHzlBhfuPKhWX3Lo5pbRtraQLJecROLZ+O1VXVikZ1qpfV4qOjQmqW0RVVFSjVm7QAoNd3H2E6GRRsDtGru3kTLlGMro0Tw3bfZIln2UHy1aWdSyrWCpZkMIg4PaHVRiuameVh+LFLLNYxrHIAx8JBEAABEAg8gQK2ITPWd5geY1FAgSkRgggAGgEEN+WX/m3sFzIksSCBAIgAAIg4FwCJWzaqywPsWxwrpmRtwwBQOg26Mm3HmCZwQJOoTnhDgiAAAg4kUA1G/UWy+9ZvnKigZG2KfhAV6Stimz9yVz9nSyzWfqw4OHPEJBAAARAwGUE5Lu7F8uPWBJZvmDBPAGGcCrh4XaKxNf/y6/+/7FItz8SCIAACICAdwhsYVcuYVnvHZf0PMEywO/4XcEvV7Lg4f8dE7wCARAAAa8QkB940gtwqVcc0vUDQwBfE/w5//cvlnhdoNAHARAAARBwLAH5jpcJ3bLOcoljrbTJMAQARLcz6z+zYDjEpg8dqgEBEACBCBKQ7/qzWGQ+wMII2hHxqv0eAPyEW+CRiLcCDAABEAABELCbwCSu8ATLl3ZX7JT6/Pyr9xxuhHdZMA/CKZ9G2AECIAAC9hKQbR2nsXxsb7XOqM2vAUA7xr+apZUzmgFWgAAIgAAIRIiA7B8+iGV/hOqPWLV+/PUrQc9zLHj4R+xjh4pBAARAwDEE0tmSZ1l894PYjwHA97ihJ7AggQAIgAAIgIAQOJNFloL7Kvkt4pEDfbay4Ng3X33M4SwIgAAINErgEOeQ0119c5CQHGvrp3QDO2vewz8qilp2HUzZI6ZTWlY3apLejmITmviJJ3wFARAAAUME9pbWUG6FoawhM9WUFVHl8X1UfmgrFa58h8p2y1Qu01Iml/QzlvtNK9HhBfmpB0CezLtZtMf+o6JjqOvka2jA5bdRSmYnhzcxzAMBEACByBOoqiFam19DpXJEj0mp4shOOv763ZS/kKd11ZhSsEwI7MhSbJKJji7GTwHAj7klntRtjWbte9P4379CzTv21S0K+iAAAiDgKwInuQdgUyFHAiansj1r6eBfL6fyA7Ldv3aSw4P+o12KCwrw00ZAj3N7ZOu0Sbth02jKPR9wV79WMTomQBcEQAAEXEsgkZ84Bbzy3sxeAIER2yyT0sZcRRIIVBzersunORfwtG4hbtD3Sw9AF26MbSzK/mb0HUtn3/8JRcfiuAA3fLBhIwiAgDMJFPAGvOsLzO8FEG9rKspo372TqWTrYh3nxbhOLHt0CnGDrl+WAcq+z8oP/yat29PE2+bg4e+GTzRsBAEQcDSBVJ563sSivueouATKuuk1im0he70pJ3lWnK2s7SJFvwQAk3TaZNgPHqLEprJXBBIIgAAIgIAugfQE5d9jjVYd0zSD0q94sNF8jWSY2Mh9T9z2SwAwSrW1WnUfRh3HXqyqDj0QAAEQAIE6BFrE1blg8tvUkZdRYqchOqWO0VF2i64fAoA0bows1QbpcS4fGMjr/ZFAAARAAATMIZDIT54EK58+/J3d9MzrdIxty8qpOgW4QdfKJnCK/z1UDYmKiqZ2w85VVYceCIAACIBACALJFs0DOFVdytCZ/ONN+REnv/q6nSrLq/8r03EREInklFLzTv0oqXmGki6UQAAEQAAEQhNIsvjpE5PWmhLa9QltQON3tGYSNl585HNY3ASRd5AtUO7GwXp/R7QfjAABEPAggdho64dWY1tq7dmi/OxwS3P5IQBIUW2MpOayNTQSCIAACICA2QRirX/+U2xz5elf4q7MH/N08kMAoDzfNCYh2dOND+dAAARAIFIEbHj+U5Ted7jysyNSTMOt1w8BQLhMkB8EQAAEQAAEPE8AAYDnmxgOggAIgAAIgEB9AggA6jPBFRAAARAAARDwPAEEAJ5vYjgIAiAAAiAAAvUJIACozwRXQAAEQAAEQMDzBBAAeL6J4SAIgAAIgAAI1CeAAKA+E1wBARAAARAAAc8TQADg+SaGgyAAAiAAAiBQnwACgPpMcAUEQAAEQAAEPE8AAYDnmxgOggAIgAAIgEB9AggA6jPBFRAAARAAARDwPAEEAJ5vYjgIAiAAAiAAAvUJIACozwRXQAAEQAAEQMDzBBAAeL6J4SAIgAAIgAAI1CeAAKA+E1wBARAAARAAAc8TQADg+SaGgyAAAiAAAiBQnwACgPpMcAUEQAAEQAAEPE8AAYDnmxgOggAIgAAIgEB9AggA6jPBFRAAARAAARDwPAEEAJ5vYjgIAiAAAiAAAvUJIACozwRXQAAEQAAEQMDzBGI97yEcNIVAVUUZ5e5aRyUnDpK8tiRFRVF8k2YUl5RCsYlNKC4xhZJbtaXo2HhLqnNjoSW5hyh//zYqOXmYqKYm4i7ExCdSUos21KJTf0e1U011FZ3YuZbK8o8RRUVT8459Kal5ZsR5mW4AfwaKju2j6qoKSmzaOvC3Y3odKNCzBBAAeLZpzXFMvlzWvng37frsJaooKTCn0DBKiYqOodTMTtQ0uxdLT2rZdTC1GXgmf9mlh1GK+7MeWDWX2+EuOrJpCT/3qx3nUFxyGnWeeAUNuPx2Sm6ZFTH7SvmBv+F/D9LWD/9D5UUnv7ODg8uM3qOp/+W3UdshZ3933aWvJLjZOOdh2vvFm/x3WRjwIjomlv8+hlCPc39CXc68muOeGJd6B7PtIoAAwC7SLqznwOpP6LP7LqHywtyIWS+/5PIPbA9IzrJ3AnZE8S+6Fl0GUtagKdR+1CxK73lGxOyzumLxf/m/b6ZNbz5qdVVa5VcU59NX7z1Juxf8jyb+4TXKHDBRqzwV5aNfLaP5d19Ixcf311fnX8qHNy6iubdNpZ7Tf0Yjrn+c5HPkxrT2pXto7Qt38q/+ytPMl/fCQEQCoAm3/i+iwdhpxuGNIwm48y/AkSi9ZdTx7avo0ztnRvThH4qo/AIW+9a/+iC9d9NIeuO6XoHX8uvPa2nlU79z/MO/NvOyghM0945z6djW5bUvW/46L2czP9zPCf7wr1P7lnf+Tsv/9as6V93xdvVzf6TVs2+v9/Cva/2RTYvp41unOPLvt66teB85AggAIsfesTXLL4kFf76SKsuKHWtjbcPycraQPChfvTqblj35Cyo9eaT2bde+ll9yG15/xHX2V5WX0OK//ICk98KWxL/ulzx2XVgPu01vPU6H1n9ui3lmVSIP9XX8699oOrl3U6D3yGh+5PMfAQQA/mvzRj3eu+QNkoeq21JVeSlt5i/2Odd2IfmlJN3Sbk7rXrrXERP9VBjm7l5POcveVVENW+cwPxilez+sxEHD+lfuD0sl0pnXvXxf2PM/ts99hgqP7Im06RGrPzouSadud/wC0vAQAYAGPK+q5ix929WuyaQomTD3+o960r7l77vSF/kVfWD1XFfafsronKVvnXpp6f8yEU4lycTKoPMFVAqzWKf4+AHav+LDsGuR4bI9i+aErecVhdiWbXVcydFRdoMuAgA3tJLNNubt+8rmGq2pTpYsfsLj0Qsf/l5EVjDoeFV4ZC9Jj4abkyxXtCPl7d2sVI08HHd9/oqSrt1Kexa/Hvav/1M2yvJdv6bkPmequl7CimF2K6lWFTk9BACRY+/YmsuL8hxrm4phO+Y9R2//bBDJmKhbUoUH2qCSezHsSHVnw4dTpyxvdUPavfB/yma6PZBUdpwV49v2ouTeE1SKmM1KRSqKbtJBAOCm1oKtygQKDu6g9355BnejfqBchp2KNRT5TX50/W3Sqp1uEYb0deo5tm1FYImpoYoilEl6so5sXKxce0LTVsq6XlBMv/ovFJWQHI4rBznzn8JRcGteBABubTkL7Y7iTVO8mGQjo3m8tFEmRiFZT6DNwMnWV8I1ZPQbp1XPrs9f1tK3Wlmn+19sa91rpNUmOrr8hA4DqM0NL1BUvKEJgbKWeCbLIUc7ZZJxCABMAoli3EGgurKCFv3lWt4o5d/uMNilVsY3aUqdJlxmi/Xtz5hBMXEJynXtnP+Csq4dirt4cyXVFB0bR22HnqOq7hm9lCEzqf0fF1JitwaDIdlpbBiLvZtYRJAyAoAIwkfVESLAS8C++Ov1gV3rImSB56sd9L17KDHNnq7n+JTmlDX4LGWmsuTVqRPl5OwHWf+vmmTb7ITUFqrqntJL6DSY2v9pEbW/exm1uvguaj7ph+LfEyy/YenNMoNlN4tvEgIA3zR1GI66dIvUMDwMbFIjqwNku2Mkcwn0mnkj9Zpxg7mFNlJapwmXN5Kj4ds7HToZUJbw6Wyo1HHsxQ077re7PLyZ2GUYtTj/Nmpz3b9kos3PWB5mUVtK4nJ+CABc3oAwX52AnGr42b0XU+GhXeqFQPNbAnLa3phfPU0jfvLYt9fsetF+5MzACZKq9e387EVHbrq0e+Grqi7x6Yxx1P4MGc5GAoHgBGKDX8ZVPxPQmQQoJ63JyXAqSdZly/K38sKTVM67+BXxDmaWHT38jYFyYtxn919K0x5Z5KjjbFX4ndKRLl/p+rUjyQl08uBv3WcMtRt2DsUYm2hlummxPMs7e/h5tGuB2rr+It534eiWpZTuoAlzJbmHw9/hsBbZNgMmUUJay1pX8BIETieAAOB0HninSWDYdf9HzdrLcJp+kvXdX4/PrqWDa+bx0advkRw2Y3aSg2uW/+c3EfnlarYvUl5aVrfASXBWlO3kMmUYQDUAEL928moAJwUAexaj+9/Jnzcv2IYhAC+0otk+6CwD5Al2ZiX5ddm8Y18+Z/5KGn3TU3TpS4dpyj0f8qzmqWZV8W05cobA/pUfffseL9xHQHogdCa8yXJAnU2FzCam1f3PfzvZPCyCBAINEUAA0BAd3HMUAQkIZIhhyt0f0HmPL6esQeauM1/2j59bPuTgKKAeMyY6Np7aj5yl7JWcInnYIScEBrr/NyxU9kWGgOxahaFsJBQjTgABQMSbAAaoEGjVbSiddd/cQFe3zq++2nXL3vUbXnuo9iW8dhkBr6wGQPe/yz54LjUXAYBLG85Ks3UmAdaYOARgxEdZ5iS9AU2zexrJ3mgeOXK18PDuRvMhgzMJtBkwMTApUdU6WXZn9cRTI7Zpd//z5khIINAYAQQAjRHy5X2drYDNmwNgFH1qZmc69/+WUGa/8UZVQuaTY3jXvnh3yPu44WwCUdExpLP2XVaFHIjwXJDSvKO89/8iZdCZPPs/sWm6sj4U/UMAAYB/2trTnspucFPu+YBa9x6l7eeOT5+jQl6CiOROAp3G621BHOlNgXYvek1rMqJOAOTOFofVqgQQAKiS87KeQ1YBhItY1qBP+uNblNa2e7iqp+WX8wI2zpHNwZDcSEAOv0nJ6Khses7St6mipFBZX1dRt/tfNkVCAgEjBBAAGKGEPIYJ2D0HoK5hMvN54m1zeEOaxLq3wnq/9cP/kszERnIhAQ5gO427VNnwyrJi2vflu8r6OoqB7n+N2f+ZPAcC3f86LeAvXQQA/mpvy73VmUBolnGyd8DQH/xZqziZC7Bj3mytMqAcOQJuXQ0gkxB19iJA93/kPnNurBkBgBtbzWKbdR7isp2vE1Kv6TdQRt+xWqZs/+RZLX0oR45Ai84DqFmHPsoG7F/xoSW7TjZmkE73v0yAxN7/jRHG/doEEADUpoHX3iHA3cByKE2UxsmGJ/dspGPbVniHic880RkGqK4sp71L3rCVWGn+MTq8YYFynbIEMrFZa2V9KPqPAAIA/7W5AY81lgHavA9AQ8606DKIOk+6sqEsjd7bPveZRvMggzMJdJ54BXEEqGyc3asB0P2v3FRQVCSAAEARHNTcQaD/ZX/Q6gWQL2VyUFDjDurOsDK1TRdq1XWIsjGH1s6n4uMHlPXDVdTu/tfYBjlcW5HfGwQQAHijHc31QuNXk7mG6JfWtF0PrcODSnIPUe7u9fqGoISIENDZE0Dms+zhNfl2pED3v8Y5BJn9J6D7346G8lgdCAA81qBmuKM3CdD+nQAb87nn9J81lqXB+zglsEE8jr4pqwF05oHIEcF2pL2LX8fsfztAo47TCCAAOA0H3niRQNbgs3h/+Axl1w6s+lhZF4qRJZDcMota9xmjbMTRLUup8NAuZX2jirrd/x1GnW+0KuTjnp2y3aupYMU7wuI8ll5+hYIAwK8t35DfOkMADhwvl2OEddZHH+aNWarKSxsihnsOJtCZewGUE3+edy14RVndiKJ0/x9a95mRrEHzyBkYmP0fFM1pF6vLiuj4G3fTjp+2pT23DqGch2fKDFGJAjax7GS5niWWxTcJAYBvmtrfjmaPUD8dTU6Hy92zwd8AXex9h7EXUXRsnLIHVq8GkOWG2PxHuXkMKVYc3U17bz+Djr/6R6rKC7rDZycu6AmWj1iaGyrUA5kQAHigEZ3kQg05bw6A8JFNgWITkpVRndixRlkXipElINtDtxk4WdmI3F3rSPaEsCrpdv+3R/d/g01TVZRL+x+YSuX7DLXhJC7sdRb1iLFBa5x1EwGAs9rDEdboTJpy6pI5ORsgo984Zb4ndqxW1oVi5Al0nqB3QqBVwwBl+cdJlhuqJvlM68xvUa3XTXrHXr6Vyg9uDcfkCZz5hnAU3JoXAYBbW85Kux04jm+Gu+k9z1Au5jgCAGV2TlCUX8lyWqRq2jn/RUv2g9iD7n/VJjGkV5V/lPI/+6+hvHUy3cLvPf989LyDdRoVb40QiNb4WDg4eGjVbagR74PmsbILOGiFuGgqgbikVGo3fJpymQUHd9Cx7SuV9UMpanX/8zbXHbD5Tyi0getFaz+kmqrKBvOEuJnJ14eHuOeZyxrf9J5hAEdMJODUOQDiYsuug5U9rSjOp/KiPGV9KEaeQOfxGqsB2Pxdn71kqhOB7v91Gt3//cdTUos2ptrktcIqDm3XcambjrIbdBEAuKGVXGRjFKnvvW61m/JlGZecplxN8bF9yrpQjDyBdsPPpfgmTZUN2cWbAtVUVynr11UMdP9XVtS9bPi9ztJWw5W4PGNViVbQ3szl7jdqvq/WPDZKAxkCBHQe4k7uARDnZH941Ql9RRwA6Bwxa9fH6zh3Vb94cQvLqpOdImXdubBsz13QXSZdxePriZbVZ1bBYmP2GTNpx7zZSkXKuQCHNy4iWXdvRkL3vxkULS3Dub9mTHIbAYBJID1VjMc2AqrdNmkaAYBbegBkTXl5YW5tt01/XVZwgvJyttC+L9+jtS/eRWN//Sxl8nG0Tk+yKZBqACC+yTCAGQGAtI/O5j+B2f/o/nf6x83x9mEIwPFN5DIDHTwJUEgmamwJLAcDIdUnUHQ0hz6+7Wza+8Vb9W867EqbQZO1ds2TX+3VleXaXu2Rvf81ykH3v3YToAAmgAAAHwNfEUhsmq7sb2VZsbKu1xWreSx74UNXUeHh3Y52VbaF7jD6AmUbpefj4Jp5yvqnFHW7/2XoBQkEdAkgANAl6EV9jSGAGof3ACSktlRuscpSBAANwasoKaQ1z/+poSyOuKd1NgB7oLs1sHT/H9TZ/Id3tZRDjpBAQJcAAgBdgtB3FYHYBPXNYKoqcCBQY40tv2yd3lOS0WcspbTu0JgrIe/vXfImHw5VEvJ+Yze+nv2vPoyA7v/GCOO+UQIIAIyS8lE+meXt1RQdl6DsGnoAGkcnD/+Tux1+cBJ/vuWAINVUUVJAOTz5UTVpd/9j739V9NCrQwABQB0geCsEdAKAGkcjjImNV7YPPQDG0JWcPGIsYwRzRWpToPKikzyH4FNlz1v3GYPuf2V6UKxLAAFAXSJ472kCVRozr2PinL/W3QmNl5imPs/CLvtbdhtCaW27K1e3b/n7SjtD7lnMR/9qfAbR/a/cZFAMQgABQBAouKROwOmTAKvK1cfxYxPVjxNWJ+ouzejYOGravpcrjO40/jJlO+VztPeLN8PW1+3+11nBELaxUPA8AQQAnm/i8B3UmgPg8FUAOpO3YjVOkwu/Fdyp0XbI2bzdrjt2UNVdDSBbA4eTvu7+V19C2LrPaHT/hwMceRslgACgUUTI4CUCJbmHld2JSUAPQEPwoqJjaNDVdzWUxVH3mmb3pBadByjbdHD1J1QaxnwHWT2A7n9l3FC0gAACAAugur5IrVUAzp4EWHpSPQCITWzi+qa10oFhP3qYWnQZZGUVppfdibcGVk2y5fLuxXMMq6P73zAqZLSJAAIAm0C7qxr1VQBOnwMgB7qoJmy+EpxcDA+NjLrxn9R71i+DZ3Dw1cBqAI2A1+gRwdL9f4B7DFRT696juPu/rao69EAgKAEcBhQUCy6qEtCaP6BaaRh6coCNatLZPEa1TifryWmA2SOmU58LfkVN0rOdbGpI25q0bk+te42kI5uWhMzT0A05HbDwyJ5GNxaScxLQ/d8QSdyLBAEEAJGg7uE6ndwDIDO35ctaNcnDwg1Jlridfd9cS02V4ZBojT0VLDUuzMI7jb9cOQAgnvQqXft9L7y5wVp1uv+JeyjaY/OfBvniphoBPwQAlWpo+KQkntTkx6T1K97BqwDycjZTTXWVUpNGRUW7pgs2OjqW4lOaK/npR6VO4y+l5f+6iWRMXyXJaoCGAoDA7H+d7v9eo1zbw6LCEzr2EfDDHADlbcmSmmfa1xJOqkljTFR+ETk1Hdn8hbJpMv4fo7GNsHLFULScgJwQmTlgonI9x7etpPz9W0Pq5yx9m6oqykLeb+wGNv9pjBDuqxLwQwCwQhVOy+5DVVWh50ACquO84orbZrc7EL+jTdLZFEgca2hPAN3u/w7o/nf0Z8fNxvkhANjNDRT2Tz+ZcSunhvkyafQA1JBDewC4Z+LwhgXKzdmy62BlXSg6n0DHMRdRTLz6Vs+hjgiuKM7Xm/3PExTdMvfE+a0MC+sS8EMAID7fylJd1/mG3g/+/r08ySmuoSy45yICJ3auoaKjOcoWt+yG3iBleC5QjEtOI9nFUDXJ6hL5jNVNsl2wzvbT6P6vSxTvzSTglwDgM4Z2m1Fw3af+kLpOvsZoduRzAYGcZe9oWdmKZ9YjeZuAzqZAQiZYL4B+9/8F3oYO7yJKwC8BgEC+n+UnLEXyJliSX/wDrriDRvKmJn5OMuNdOTl0EqDOF3FqZmdKatFGGQkU3UFA9jSIS0pRNjawKVCtzz+6/5VRQtEmAhrf9DZZaG418mTvxnIPyyqW/NiEpJpmHfpQn/NvollPbuS9zO/kZbd+w8IkPJyObV1Oubs3KHvYbvg0ZV0ouodALJ/1kH3GDGWDZYjpyObvNhSSzX/Q/a+ME4o2EPDDPgB1MR7kC7d/I3TVm8Un+DUWTdeipLMPgBM3Atr28VO1vAv/ZdshU8NXgoYrCcimQDvnv6hsu6wGaN17dEBfp9dJNv/pMArd/8oNAUVDBPBT1xAmZHIrgbL847Rj3nPK5svMcJ014soVQzEiBGQiYEJaS+W6d33+SmBDoYqSAp79r74bY3rPMzD7X7kVoGiUAAIAo6T8lE9jGaDTNgLa+MZfqLI05LSPRlu1zcAzSbqGkfxBQOYB6ay7L807SofWzid0//vj8+J2LxEAuL0FHWe/c/YBkC/jLe/8TYtQ1zO/p6UPZfcR0F0NsOvzlwLnAyh7Lt3/o9H9r8wPioYJ+HEOgGE4yOhuAqueuZXKi/KUnUhIbUHZI2cq60PRnQQy+40PrPooOSHThcJPexa/rrX1b3r34Y2eLhi+VdAAgfoE0ANQnwmuUJQyA6dMAjy2bQVt+0hv8l/niVdi/3/lT4J7FaP4ELBO4y5RdkCCTq3Z/xp1KxsNRV8SQADgy2Zv2GmdVQBOmAMgY/4L/3wVmxLW5o/1oHQ7+wf1ruGCPwjoDgMoU5Lu/zEXKqtDEQTCIYAAIBxayOsKAsv+cSPl7ftKy9a2Q6dSi84DtMqAsnsJpPcYQWlZXW13AN3/tiP3dYUIAHzd/N5zfsu7T5Duun+h0v+yP3gPDjwKi0DHCHTFY+//sJoImTUJIADQBOhJdZ1lgBE8DVA2YVn2xM+1m0TW/Wf0GaNdDgpwNwHdI4LD9h7d/2Ejg4IeAQQAevw8qu2+SYDyq3/hQ1drj/tLgw688o8ebVe4FQ6B5h37UfOOfcNR0crbqvswSsnoqFUGlEEgHAIIAMKhhbyOIyAT/dY8/yda/OgPAzuw6RrYadylJMvAkEBACNjZC4Duf3zm7CaAAMBu4qjPNAJy+MpHv59Ma164k8xYfRCXlErDrnvENPtQkPsJBFYDaA2JGWeAzX+Ms0JOcwggADCHo6dKcfoywMqyYtow52F66/r+gW1XzYI/8Ko/UXLLtmYVh3I8QECOgpaueauT1CF1IYGAnQSwE6CdtN1Sl8YvHis3ApKd2XZ8+jzJ/v6qu7SFaoL0XiOp18wbQ93GdR8T6Dzhcjr21ZeWEkD3v6V4UXgIAggAQoDB5cgTkN3Ujm9fRce2fkn7lr9PB9d8SjXVVaYbFp/SnMb/7iWKjsGfg+lwPVCgzAtZ/u+bLfnsncKD7v9TJPC/nQTwjWcnbZfUpTMEsP2TZ+jIxkW8GLCGygtPhvS4irvxqyrK6t2vKCmk0rwjVHryCJXkHqLqyop6eUy9wL0dY371tKf2Xi86lkMrn/qdqZhCFRabmMz75mdRRt+x1LRdj1DZXH09qUUbyug3ztThptpAWnUbSqltutS+hNcgYAsBBAC2YPZPJXsWzXGVs30v+DW199iBP8XHD9D6Vx+0vR3kDPthP3qYWvcebXvdVlfYefxllgUA6P63uvVQfigCmAQYigyue56AjO0O+YH9D0qvgj26ZSl9eMsE+uq9Jz3nojyko2PjLfELe/9bghWFGiCAAMAAJP9lUd8IyC2ssgZNptHc9R8VhT8BM9usuqqSlv79Z5Sz9G0zi414WTJPJGvwFNPtaNltCLr/TaeKAo0S8OO3XxbDuZdlNUv+87OSm71xXW/68p+/1D5Axih0x+fTWAXgeN/YQBmvnnTHmzjq16LGks2Zvvjb9STLNb2UpMfI7ITuf7OJorxwCPgtALie4WxjuZVlIEtqZVlJVF7OZtr05mP01k/60qpnbzNlO1kuG8mBBGS8/6x7P6LYxCYOtM47Jsk8hN0L/ucdh9iT9iNnmf656TjmIk8xgjPuIuCnAOAP3DRPsCSHaiLpvlz38r205NEfhcqC6y4m0O2sa2nCH16jmPgkF3vhHtP3r/jQPcYasFSCxnbDzzWQ01gWdP8b44Rc1hHwSwAwkRHebRSjHCyzfe4zRrN7Lp/XxsVj4hNpxPWP0+ib/ou1/jZ+WgsP77axNnuqktUAZiV0/5tFEuWoEvBLAHAfAwprZpsMBVi+Bl211SzWi0tKsbgG+4pvmt2Lzv3LF9Rrhv4xwfZZTSTnErg+eXAuSdth0yi+STNTmqbD6AtNKQeFgIAqAT8EAB0ZzhnhAio+vp8Ob1gQrpon8qdkdnK9H7KrX+9Zv6AZf1tJLTrLdA93pSbp2RQVHeMuo+tY68WjbWPiEviEwEvreBr+W9krIS2ra/iK0AABEwn4IQBQPsnj2LYVJqJ2T1Fth0x1j7FBLG07dCrNeGItDf/xo64d75cegIw+Y4J4555L7Yad4x5jw7C096xfag8l9bv4ljBqRFYQsIaAHwKAdFV0pbmHVVVdrde69yjezW2U63wQm6fc/T7LB9SsfW/X2V/X4N7n31T3kmvey6mKHTw6w71pdk/qc+HNym2RfcYMEkECgUgT8EMAoLzdcbUFB89EusGN1j/yhn+YvuTJaN3h5JMu2a6Tr6Hpj6+gaY8sprZDvfOrU5YsunGZmEwiHXXjPyk2IeSCm3Ca2JF5B33vbsoecV7YtjXv1J/G3jw7bD0ogIAVBPwQAFjBzfNlyhfVpNtf5wlPTR3nq0xSlO1Tx978LF3y/H4a8+tnSJZUeTGJb24KaqJj42jUL/5l6nI5J7arzDGZeNsc6jHtx4bNazvkbDrnoc8d+Tdl2Alk9BQB5V/HnqIAZ4ISyBp8Fp3Hv6xXPvVb2rvkzYhskCRftNLl2rzTAGrBQUnL7kMDh83IL38/JFl7PvnOd2jLO3+ntbxHhZyS6NSU0Xdc4DCgVt2Vp9041bWgdsnZACN//iTJccFrX7qHDq6bT/xHUi9viy6DSMb8JR/vPV3vPi6AQKQIIACIFHmX1CszleWXjhzNe3DtfCrhHd6qqytDWh8Tl8hdvw1vtBPLE9zkwR4syZr9hNSWLC0oIe3r/90+Gz6Yn+FcE/97zbyRepz3UzqyaTGd3LORKkoKwinCsrzS3Z/UPINa84TF1MzOltXj5IIzB0wkEVk5dGTjYiri/2t4+DCpeSbJCYmY7e/k1vO3bcG/hf3NBN7///buL0SqKg7g+FmMTWspJYoFLewPUZZWRkUvRkQ9mEJgiS8VVA9CQZRv0UP0FBUZ9BQ9pPbSUyG0lklZQX/sj9quSha5irlu7bjTzs7MurMzO/1+7QwsOjM755571zvnfC/8nLn3nnPnnM8Z9/72zrmzDQT0h1kS34Xe4KXY1ERAk6belff9H02KsPkCCujEx+VrNl7AFvDSCNgJMAfAzovSCCCAAAIIeCFAAuDFMNIJBBBAAAEE7ARIAOy8KI0AAggggIAXAiQAXgwjnUAAAQQQQMBOgATAzovSCCCAAAIIeCFAAuDFMNIJBBBAAAEE7ARIAOy8KI0AAggggIAXAiQAXgwjnUAAAQQQQMBOgATAzovSCCCAAAIIeCFAAuDFMNIJBBBAAAEE7ARIAOy8KI0AAggggIAXAiQAXgwjnUAAAQQQQMBOgATAzovSCCCAAAIIeCFAAuDFMNIJBBBAAAEE7ARIAOy8KI0AAggggIAXAiQAXgwjnUAAAQQQQMBOgATAzovSCCCAAAIIeCFAAuDFMNIJBBBAAAEE7ARIAOy8KI0AAggggIAXAiQAXgwjnUAAAQQQQMBOgATAzovSCCCAAAIIeCEQQgJQjjpS01OTUatSDwEEEECghUC1xb64dlXdfoZHPnfE1f6kjxNCAlCIijiRHY5alXoIIIAAAi0EKvOQAZSzQy1aMOeu8TlLdHiBEBKAyINYPOP05unwtwbNRwABBJITKFeTzwAqJAAtBzCEBODvlgItdmYH+81UMdeiBLsQQAABBKIITFSi1Gq/znRxzEyeHGi/wvklI587zj9UOreEkAAcjUpfkc+PTv38WdTq1EMAAQQQaCJQnG6yI6bNhYO7TLVccjla5HOHy4vOZ90QEoCMgJ6JivrHnvejVqUeAggggEADgZKc/M8mfAVg7JvtDV657U0jUnK07dIdWjCEBECHZl/U8dErAKcPfhG1OvUQQAABBM4RyE6dsyHm1eKRr0yx/3OXo/7gUrlT6oaSAOx1GZCf3ttiKqUJl0NQFwEEEECgJpApJTcBsDpZNCPbn3e1/tL1AJ1QP5QEYI/LYIwe+9V8u/VpY+Zh1qpLO6mLAAIIpF2gKJf+c0ndYS8/o4fffcp18p8SOp0z0j4G9fYtqD/x/FFncz4mcVXUfmaPHzKT+axZuvoh09UVSt4UVYt6CCCAQGOB4xNVU0jg8/9qpWxGdrxgcl87z9vql5a/2rj1fm0NJQHQUeuReNBl+DJH95nM7z+aZXetNRddvMjlUNRFAAEEghMoyG/+gwl8mloZz5ihrRvM+PcfxmH6phzkuzgOlPZjdKW9gTG2T3/7H5S4xPWY3T1LzKpNL5mb1z9nFnQvdD0c9RFAAAHvBfRT/4Fc1eRj/O2/KnOzsrvfMaM7XzPTxX/jMNRvjr1WQu8C8H4JKQHQwXxbwnl2SP1doYnA1Xc/bJbds84svmaFWbSk1yy8/Mr6bh4RQAABBGoCeul/6KwbRyU3Yspjw6b012FT2N9n8gf64jrx1xv2ljzZUl/x/TG0BGCpDKh+ucOlvg8s/UMAAQQQsBLIS+kbJU5b1ergwiHNAdBh0r8LoFeiHtAVFgQQQAABBGoCL8vj7pA0QrsCoGPbLXFAYoWusCCAAAIIBC9wSARWSyT8FUXpcg7xfjb9cuhNEgnMRU3X4NIaBBBAAIE5BXRmwuMSQZ38VSW0jwC0z7r8I6F/I2CdrrAggAACCAQrsFl6/mmIvQ81AdCx/kXiMol7dYUFAQQQQCA4gTekx68H1+tah0NOAJRAv+7xBolVusKCAAIIIBCMwAfS02eD6W2DjoaeACjJToleiTt1hQUBBBBAwHuBbdLDZyTkDxOHu5AAzNwW2CdvAZ0QuUYixDsjwv0fQM8RQCAkAb0N/BWJFyWCPvlL/znZKcKsRScFbpO4YtY2niKAAAIIdL6ATvx+UmJX53clnh6EeBtgK7lPZOcdEvqxAAsCCCCAgB8CH0k3bpfg5D9rPEkAZmHUnp6Ux0ck1kv8VtvGAwIIIIBA5wkckSavldggcarzmp9si0kAmvvq1YBbJDZK7G9ejD0IIIAAAikT0Nu8H5VYKRHkPf7tjAcT3tpRmilzmzw8IaFXB66b2cS/CCCAAAIpEfhT2vGxxA6JgZS0KdXNIAGINjzLpdr9ErdK3CRxvcRiiR4J/tKgILAggAACCQgU5Jh5iazEMQn9mFZP9nslTkiwWAj8B4FV2vTbatSJAAAAAElFTkSuQmCC;" vertex="1" parent="1">
          <mxGeometry x="120" y="200" width="80" height="80" as="geometry" />
        </mxCell>
        <mxCell id="lvz8d1WP9f2KZza9czsT-29" value="" style="shape=image;verticalLabelPosition=bottom;labelBackgroundColor=default;verticalAlign=top;aspect=fixed;imageAspect=0;image=data:image/png,iVBORw0KGgoAAAANSUhEUgAAAgAAAAIACAYAAAD0eNT6AAAMPWlDQ1BJQ0MgUHJvZmlsZQAASImVVwdYU8kWnluSkEBooUsJvQkiNYCUEFoA6d1GSAKEEmMgqNiRRQXXgooFbOiqiGKn2RE7i2LviwUFZV0s2JU3KaDrvvK9831z73//OfOfM+fOLQOA2gmOSJSLqgOQJywQx4YE0JNTUumkHoAAEtAFLsCQw80XMaOjIwC0ofPf7d0N6A3tqoNU65/9/9U0ePx8LgBINMTpvHxuHsQHAcCruSJxAQBEKW8+tUAkxbABLTFMEOKFUpwpx9VSnC7He2U+8bEsiNsAUFLhcMSZAKhehjy9kJsJNVT7IXYS8gRCANToEPvm5U3mQZwGsQ30EUEs1Wek/6CT+TfN9GFNDidzGMvnIjOlQEG+KJcz/f8sx/+2vFzJUAwr2FSyxKGx0jnDut3KmRwuxSoQ9wnTI6Mg1oT4g4An84cYpWRJQhPk/qghN58FawZ0IHbicQLDITaEOFiYGxmh4NMzBMFsiOEKQacJCtjxEOtBvJCfHxSn8NkknhyriIU2ZIhZTAV/jiOWxZXGeiDJSWAq9F9n8dkKfUy1KCs+CWIKxBaFgsRIiFUhdszPiQtX+IwpymJFDvmIJbHS/C0gjuULQwLk+lhhhjg4VuFflpc/NF9sU5aAHanA+wuy4kPl9cHauBxZ/nAu2GW+kJkwpMPPT44YmguPHxgknzvWwxcmxCl0PogKAmLlY3GKKDda4Y+b8XNDpLwZxK75hXGKsXhiAVyQcn08Q1QQHS/PEy/K5oRFy/PBl4EIwAKBgA4ksKWDySAbCDr6GvvglbwnGHCAGGQCPnBQMEMjkmQ9QniMA0XgT4j4IH94XICslw8KIf91mJUfHUCGrLdQNiIHPIU4D4SDXHgtkY0SDkdLBE8gI/hHdA5sXJhvLmzS/n/PD7HfGSZkIhSMZCgiXW3IkxhEDCSGEoOJtrgB7ot74xHw6A+bM87APYfm8d2f8JTQSXhEuE7oItyeJCgW/5TlWNAF9YMVtUj/sRa4FdR0wwNwH6gOlXEd3AA44K4wDhP3g5HdIMtS5C2tCv0n7b/N4Ie7ofAjO5FRsi7Zn2zz80hVO1W3YRVprX+sjzzX9OF6s4Z7fo7P+qH6PHgO/9kTW4gdwM5iJ7Hz2BGsEdCx41gT1o4dleLh1fVEtrqGosXK8smBOoJ/xBu6s9JK5jvVOfU6fZH3FfCnSd/RgDVZNF0syMwqoDPhF4FPZwu5jiPpzk7OrgBIvy/y19ebGNl3A9Fp/87N/wMAn+ODg4OHv3NhxwHY5wEf/+bvnA0DfjqUATjXzJWIC+UcLj0Q4FtCDT5p+sAYmAMbOB9n4A68gT8IAmEgCsSDFDARZp8F17kYTAUzwTxQCsrBMrAKrAMbwRawA+wG+0EjOAJOgjPgIrgMroO7cPV0gxegH7wDnxEEISFUhIboIyaIJWKPOCMMxBcJQiKQWCQFSUMyESEiQWYi85FypAJZh2xGapF9SDNyEjmPdCK3kYdIL/Ia+YRiqAqqhRqhVugolIEy0XA0Hp2AZqJT0CK0BF2CrkFr0F1oA3oSvYheR7vQF+gABjBlTAczxRwwBsbCorBULAMTY7OxMqwSq8HqsRZ4n69iXVgf9hEn4jScjjvAFRyKJ+BcfAo+G1+Mr8N34A14G34Vf4j3498IVIIhwZ7gRWATkgmZhKmEUkIlYRvhEOE0fJa6Ce+IRKIO0ZroAZ/FFGI2cQZxMXE9cQ/xBLGT+Jg4QCKR9En2JB9SFIlDKiCVktaSdpGOk66QukkflJSVTJSclYKVUpWESsVKlUo7lY4pXVF6pvSZrE62JHuRo8g88nTyUvJWcgv5Ermb/JmiQbGm+FDiKdmUeZQ1lHrKaco9yhtlZWUzZU/lGGWB8lzlNcp7lc8pP1T+qKKpYqfCUhmvIlFZorJd5YTKbZU3VCrViupPTaUWUJdQa6mnqA+oH1Rpqo6qbFWe6hzVKtUG1SuqL9XIapZqTLWJakVqlWoH1C6p9amT1a3UWeoc9dnqVerN6jfVBzRoGqM1ojTyNBZr7NQ4r9GjSdK00gzS5GmWaG7RPKX5mIbRzGksGpc2n7aVdprWrUXUstZia2VrlWvt1urQ6tfW1HbVTtSepl2lfVS7SwfTsdJh6+TqLNXZr3ND55OukS5Tl6+7SLde94rue70Rev56fL0yvT161/U+6dP1g/Rz9JfrN+rfN8AN7AxiDKYabDA4bdA3QmuE9wjuiLIR+0fcMUQN7QxjDWcYbjFsNxwwMjYKMRIZrTU6ZdRnrGPsb5xtvNL4mHGvCc3E10RgstLkuMlzujadSc+lr6G30ftNDU1DTSWmm007TD+bWZslmBWb7TG7b04xZ5hnmK80bzXvtzCxGGsx06LO4o4l2ZJhmWW52vKs5Xsra6skqwVWjVY91nrWbOsi6zrrezZUGz+bKTY1NtdsibYM2xzb9baX7VA7N7ssuyq7S/aovbu9wH69fedIwkjPkcKRNSNvOqg4MB0KHeocHjrqOEY4Fjs2Or4cZTEqddTyUWdHfXNyc8p12up0d7Tm6LDRxaNbRr92tnPmOlc5X3OhugS7zHFpcnnlau/Kd93gesuN5jbWbYFbq9tXdw93sXu9e6+HhUeaR7XHTYYWI5qxmHHOk+AZ4DnH84jnRy93rwKv/V5/eTt453jv9O4ZYz2GP2brmMc+Zj4cn80+Xb503zTfTb5dfqZ+HL8av0f+5v48/23+z5i2zGzmLubLAKcAccChgPcsL9Ys1olALDAksCywI0gzKCFoXdCDYLPgzOC64P4Qt5AZISdCCaHhoctDb7KN2Fx2Lbs/zCNsVlhbuEp4XPi68EcRdhHiiJax6NiwsSvG3ou0jBRGNkaBKHbUiqj70dbRU6IPxxBjomOqYp7Gjo6dGXs2jhY3KW5n3Lv4gPil8XcTbBIkCa2JaonjE2sT3ycFJlUkdSWPSp6VfDHFIEWQ0pRKSk1M3ZY6MC5o3Kpx3ePdxpeOvzHBesK0CecnGkzMnXh0ktokzqQDaYS0pLSdaV84UZwazkA6O706vZ/L4q7mvuD581byevk+/Ar+swyfjIqMnkyfzBWZvVl+WZVZfQKWYJ3gVXZo9sbs9zlROdtzBnOTcvfkKeWl5TULNYU5wrbJxpOnTe4U2YtKRV1TvKasmtIvDhdvy0fyJ+Q3FWjBH/l2iY3kF8nDQt/CqsIPUxOnHpimMU04rX263fRF058VBRf9NgOfwZ3ROtN05ryZD2cxZ22ejcxOn906x3xOyZzuuSFzd8yjzMuZ93uxU3FF8dv5SfNbSoxK5pY8/iXkl7pS1VJx6c0F3gs2LsQXChZ2LHJZtHbRtzJe2YVyp/LK8i+LuYsv/Dr61zW/Di7JWNKx1H3phmXEZcJlN5b7Ld9RoVFRVPF4xdgVDSvpK8tWvl01adX5StfKjaspqyWru9ZErGlaa7F22dov67LWXa8KqNpTbVi9qPr9et76Kxv8N9RvNNpYvvHTJsGmW5tDNjfUWNVUbiFuKdzydGvi1rO/MX6r3WawrXzb1+3C7V07Yne01XrU1u403Lm0Dq2T1PXuGr/r8u7A3U31DvWb9+jsKd8L9kr2Pt+Xtu/G/vD9rQcYB+oPWh6sPkQ7VNaANExv6G/MauxqSmnqbA5rbm3xbjl02PHw9iOmR6qOah9deoxyrOTY4PGi4wMnRCf6TmaefNw6qfXuqeRT19pi2jpOh58+dyb4zKmzzLPHz/mcO3Le63zzBcaFxovuFxva3doP/e72+6EO946GSx6Xmi57Xm7pHNN57IrflZNXA6+euca+dvF65PXOGwk3bt0cf7PrFu9Wz+3c26/uFN75fHfuPcK9svvq9ysfGD6o+cP2jz1d7l1HHwY+bH8U9+juY+7jF0/yn3zpLnlKfVr5zORZbY9zz5He4N7Lz8c9734hevG5r/RPjT+rX9q8PPiX/1/t/cn93a/ErwZfL36j/2b7W9e3rQPRAw/e5b37/L7sg/6HHR8ZH89+Svr07PPUL6Qva77afm35Fv7t3mDe4KCII+bIfgUw2NCMDABebweAmgIADe7PKOPk+z+ZIfI9qwyB/4Tle0SZuQNQD//fY/rg381NAPZuhdsvqK82HoBoKgDxngB1cRluQ3s12b5SakS4D9gU+zU9Lx38G5PvOX/I++czkKq6gp/P/wJEGXx8fHyqMAAAADhlWElmTU0AKgAAAAgAAYdpAAQAAAABAAAAGgAAAAAAAqACAAQAAAABAAACAKADAAQAAAABAAACAAAAAAAoMJe/AABAAElEQVR4AeydBbxVVfbHN93d0igC0tIKKKLImIhiYmH32I6tmNg16jjq/K2xZuxCHXEwUIYG6e7uRvyv35GL9913380TO37783nvntzx3eecvfbaa69dTDEYTaBHjx7VS5QocbAUopP8NSpWrFgd+aslf1Xlr1Lx4sXLy29ZOVcMBZXtknt+ZdM7hF0GEiABRwns3r37tz1F/022d/32G35275TfLb/++uta+V2xY8eOxTt37pwp+/Plu7FMzs+rXLny3B9//HGro9isKDZbAAOqsVOnTuUl9JMX8XBp0A+UF7C+NPpo+NG4FzegCMwiCZCABQREAFC7du3y/kQoUPK3UoSB2fJtmiffprlSxEn4K1Wq1PQxY8bstKDIVheBAoBm1bunR3+aNOz95YU6QBr5evJXTvY1yymzQwIkQAJKQSjYtm0bhAHvTwQCYNkh36xf5HeS7E+Ub9lPFSpU+B81Bno9MWxVIq6P3r17txXp+TR5QQ6Vhv6AkiVLVok4S0yeBEiABHIiIN8yTwiAQLB161aF/biwS7YniGDwvfyOEcFhxJQpUxbEnedmyAQoAIQMvF+/fhXkxbhAXoLTpLFvJ38Yn2cgARIgAesIQCuwZcsWT0OQIAzEyjpHNr6S7+HHct3wWbNmbY+d4G/wBCgABM9YHXTQQV2kd3+N/PWRsTEY6YWQKpMgARIgAT0IYFgAGgEIA7AhKCJskuNfi6DwuXwrP5owYcLiIq7jYZ8IsCXyCWRiNH369GktD/1N8iAfI3+wyE+8hPskQAIk4BQBaAG2b9+uNm/e7A0VpCj8bvlm/ijn35Hv5zvjxo1bkuJansqRAFulHMElu61bt27NS5cuPVTU+kfKHxv9ZJB4jARIgASEAIYHNm3a5AkEaYDAqvC/IhC8Lfe8PW3atNVprufpDAlQAMgQVIrLivXq1esikVKvFfX+fuzppyDFUyRAAiSQQAAagY0bNyrxM5BwJukubAQ+lL+/TZo06Wv5LWBlmPQOHiySAAWAItGkPiHj+m3Ecv9u6fEfJb39Mqmv5lkSIAESIIFUBDBzYMOGDd60wlTXxZ2bJR2u12Wo9cXJkycvjDvOzQwJUADIEFTssu7du59SpkyZ++WvaewYf0mABEiABPwhAG0AhgayCFAdvCWCwCMyrXB8Fvc5fykFgMwegWIyX/9aUfPfKGr+mpndwqtIgARIgARyIYCZAuvXr09nKFgoatEIwMfAgxMnTvxYfjk8UIhQwQMUAAryKLB36KGHlpUH8WlR8w+mmr8AGu6QAAmQQOAEoAnAXxE+BFKlP1mEgYerV6/++ogRI4qcd5gqAhfOUQBIUsvS8JcUL1WPipr/IhnnL53kEh4iARIgARIIgQCMA9etW5fKf0CqXMyTk/e3bNnyxXfeeefXVBe6eI4CQMFaL96zZ8+7pMd/rfT4yxU8xT0SIAESIIEoCEADgCEBOBPKMUwVjcADMjTwmtzvLVaQYzxW3UYBYE91HnzwwTdLj/9WNvxWPd8sDAmQgEUE4EkQMwVyGBLwKIgQMF6MBW+UWQPDLcKSc1GcFwCk4T9CDPtekl5/g5wp8kYSIAESIIFQCGBIYM2aNUoa8nzS+0ruv0pmDWDFQmeDswKAzONvLL39N6XX312kQmcfABacBEiABEwjgCWIIQSkWFcgkyLtlG//s9IBvH3MmDHrM7nBtmtcbPmKi+e+f5QtW/YMqfzitlUoy0MCJEACLhDAMMDq1asz9SCYCskKOXmTeBb8h/w6NXXQKQFA1P19pMf/rvT8q6d6GniOBEiABEhAfwIQAjBDAF4EfQgjpVN4gRgKTvchLiOicEIA6NGjRzkZ439b/o6hut+I55KZJAESIIGMCaxdu9YvIWCrtBHDZIjhPrEP2JFxBgy90HoBQMb6B4u6/2+07jf0CWW2SYAESCADAj4KAUhtnAgC54s2YGwGSRt7ibUCQKdOnUpVqFDhfWn8jzK2dphxEiABEiCBjAhgOABCAFYX9CnsEiHg3hYtWgy11YmQlQJAt27dupcvX/5zse6s4tODwGhIgARIgAQMILBq1So/DAPjS/qj7AwWI8E58Qdt2LbOCl4M/R6tVKnSD2z8bXg8WQYSIAESyI5AjRo1lHz/s7sp9dU95PS4Nm3aDE59mXlnrdEAyFh/ban0n8TKv4l51cAckwAJkAAJ+EUA/gEwRTBPZ0HJsvN/Ykx+qfgN2JLspGnHrBAAxMq/r6j8P5blesuaVgHMLwmQAAmQgP8EduzY4TkLytVtcIocTZQ4B4o74dkprjHilPFDAKLyv6tixYpfsvE34nljJkmABEggFALSU1eVK1cOIq12Yhw4tm3btgOCiDzMOEuEmZjPaRXv3bv3J+XKlTtfKsMKTYbPfBgdCZAACThNALYAcBucp8vgZAzLyMFT6tSpU27FihX/kW0jPQga2XBivF+ku4nyVydZzfAYCZAACZAACYAA7AAwMwCCQEDhA+mDniE+AzYHFH9g0Ro3BCCNfweZ2z+XjX9gzwQjJgESIAFrCBQvXlxVrx6o9/fjxSbg+3bt2hm3oqxRAoAs4nO8qPxHi1e/8tY8nSwICZAACZBAoASkzVBiKxZkGu1FCBjVunXr9kEm4nfcxggAYux3nUzxe0+M/Ur6DYHxkQAJkAAJ2E1A/MMoGAYGGOqLtmGkaAL6B5iGr1EbYQTYs2fPp8Wt7y009vO17hkZCZAACThFAEaBW7YEOoUfxoEn165de6YYB07RHa72AoCo/V/ZY+mvO0vmjwRIgARIQGMCokFW8Auwc+fOIHNZQjqrJ4gQsFiEgHFBJpRv3FoLANL4vykGf6dzll++1cz7SYAESIAEQABagK1bt3qCQIBEiku7dWzdunXXL1++fFSA6eQVtbYCgDT+n0vP/3g2/nnVL28mARIgARKII4A2BZqAbdu2xR0NZBPT7PuLJkCJJuDbQFLIM1ItBQBp/EdK439YnmXj7SRAAiRAAiRQiABmBUAACGCtgEJpicBxqDgMKi5CwIhCJyM+oJ0AII3/l9L4HxoxFyZPAiRAAiRgKQFoASAEYCggpHCIaAJ2iBDwXUjpZZSMVgKANP7vSON/TEY550UkQAIkQAIkkCMBCABYMChAD4EFciZCR18RAjaJEPBjgRMR7mgjAMhUv7/Lin7WrbccYd0yaRIgARIggRQEYAsQohZAiRBwhAwHLBEhYGyKbIV2SgsBAPP8ped/EdQyDCRAAiRAAiQQBoGwtQBSJjRyR4kmYLoIAZH7CYjcE6B4+PuzNP6XsfEP43FnGiRAAiRAAvEExMlc/G4Y2/AT8KosJ3x4GImlSiPSLrf0/I+Vxh8rKUWaj1SAeI4ESIAESMBuAtIbD80WII7kBtnuOUlC3LFQNyPTAGBVP/Ht/282/qHWNxMjARIgARJIIBCBFgA5qCx/H7Zp0yayZe0jEQDE2r+WePj7jgv7JDyF3CUBEiABEgidgGiiYaAXerqSYBNJ9xNZQCj0cQgUNnQB4NBDDy0pDf8kMb6IpMBR1DDTJAESIAES0JeArOKnRCMdVQY7yfoEr0niobfHoSconpf+I0syRqbyiKqGmS4JkAAJkIC+BKAFiDAMEKPAW8JOP1QBQCz+7xIpq1fYhWR6JEACJEACJJCKgAxLK2gCIgx3ihBwVJjphzboIY3/EeLo5wsa/YVZvUyLBEiABEggUwLr1q0L1TFQknytleGALpMnT56d5Jzvh0IRd8Tiv7b0/D9k4+97/TFCEiABEiABnwhEPAyAUlSTdvLfnTp1Ku9TkVJGE4oAIOsv/yRGf2VT5oQnSYAESIAESCBCAmKfFvUwAErfTtYoeDoMDIELAKL6f1Z6/03CKAzTIAESIAESIIFcCUjvW0mHNdfb/bzvXJkaeKqfESaLK1AbgO7du3erWLHij2JYEWg6yQrGYyRAAiRAAiSQLYHNmzerDRvgpC/ysG7Xrl0dpk6dOj+onASmAZAxjFIw+mPjH1TVMV4SIAESIAG/CUToDyCxKFVl6PzVQYMGBbZoX2ACgDT+n0nmqySWiPskQAIkQAIkoCsBabd0sAOI4ek1bdq062M7fv8GIgCI1f9gsabs63dmGR8JkAAJkAAJBE1AEzuAWDHvbt++fcfYjp+/vo/Ni6vfsqL2Xy1SVCjTGPyEwbhIgARIgARIYNOmTWrjxo06gZggMxS6jBkzZqefmfJdAyCufj9g4+9nFTEuEiABEiCBMAlgOqBmof3OnTv/7HeefBUARPXfT9wp9vM7k4yPBEiABEiABMIiIAvWhZVUxumIh8C7WrduvV/GN2RwoZ8CQHGxnnwzgzR5CQmQAAmQAAloSwACQMTrAiRjU07y9IKc8G3o3jcBoFevXv8Qw4lqyXLNYyRAAiRAAiRgEgHMBtAwHCoLBp3jV758kSRE9d+4QoUKc8SLkm8ChV8FZDwkQAIkQAIkkC0BDRYGKirLK8RGYX8xCFxf1AWZHvelwRZJ6T02/pki53UkQAIkQAK6E9BwCCCGrPb27dtvie3k85u3ANCjR4++MvYfyBzFfArGe0mABEiABEggVwKaDgF4xZEO91XiG2D/XMsWuy9vAUBUEW9gAQUGEiABEiABErCFgI4zAeLYlpYp9w/F7ee0mZcAIIZ/N0jvv3ZOKfMmEiABEiABEtCUgAEd2+NEC3BkPvjyEQCKi9X/nfkkzntJgARIgARIQEcCGtsA7MUlWoD7ZCdnFXzOAsDBBx/8sIyRlNubE26QAAmQAAmQgCUETBAABPWBbdq0GZAr8pwEAPH3X1I8/l2Sa6K8jwRIgARIgAR0JmDAEICHT/I5VDZyastzukl8Ej8lBhJlda485o0ESIAESIAEHCDQWrQAg3IpZ9YCwKBBg0pL739ILonxHhIgARIgARIwgYApGgCwlLzeDc18tlyzFgCWLl36V+n9a7dUUrYF5/UkQAIkQAIkYAmB/VetWnVqtmXJVgAoLvP+B2ebCK8nARIgARIgAZMIyOp7JmUXWoAbJMNZzQjISgAQn/+3ieV/GaOoMLMkQAIkQAIkkCUB0wQAKV5bsQU4IptiZiUAiNOfq7KJnNeSAAmQAAmQAAmEQ0C0ANdmk1LGAoB4/TuJy/1mg5bXkgAJkAAJmEpAnOyYmPV+rVu37pBpxjMWAMQpQt5+hzPNFK8jARIgARIggSgJGCoAwBbg6ky5ZSQAyNh/G1H/N8k0Ul5HAiRAAiRAAiYTMFgAOLVdu3YZrdGT0bxBmfbH3r/JTzLz7iSBcuXKKRm2UxUqVPDKLz2DQtvi1EvJ2uLeeXzwtmzZspcVtvGHaxhIwDUCpgoAUk+Ypn+2/KVttzMRADD1r69rlc/ykoBuBMQBl6pdu7aqWbOmqlGjhrddrVo1VbFiRVWpUiXvN37br+VMISBs3LhRbd682fvdtGmTt71hwwa1YsUKJfOP1erVq9XKlSvVmjVr1K5du3RDx/yQQNYEfv3116zv0eUGmcFwvuTlYflLOZcx7ZzBnj17Xlu+fHlExEACJBAwgerVq6uGDRuqBg0aeL/169dXderU8Rr9WE8+4CzkFT2mTq1du9YTCsRpmFq4cKFatGiR97t48WK1devWvOLnzSQQFgE8x9u2bQsruSDSOWTSpEn/TRVxWg2AzPu/IlUEPEcCJJA9ATTm++23n2revLlq2rTp3kbfhEY+VWkxzAAhBn/7779/oUuhJYBAsGDBAjVr1izvb/78+crk3lahQvKAFQQseCYvkIpIKQCk1AB069ateeXKlWfgpWYgARLIjQDU8mjo8Rdr9OvVqwdr3dwitOyuHTt2qLlz53rCwMyZMxX+sG/BB9iymnKrOMuWLVMGOgOKrySoL/YRLcDa+IPx2yk1AGJAdA8/UvG4uE0C6QlUqVJFtWrVSsl8XNWxY0ev0ed7VDQ3sTFSLVq08P5iV0H1Onv2bDVlyhQ1duxY7xeCAgMJhEEAwqfhjT8wYcVerBL4N+wkCym7IH369FknQkCVZDfyGAmQwO8E0OCjoW/btq2S6TeeOp8Nvr9PBwwRp0+frqQ3o8aPH+8JBNQQ+MuYsf1BAAIobAAsCF/LO3N4UeUoUgAQ47/2Mo1oPD9kRaHjcZcJNG7cWMkQmTrwwAO9hl9sZVzGEXrZ8YGeMGGCGjVqlPr55589o8PQM8EErSWAmS6Y+WJB+FU0GfUnT568PFlZUn21bmfjnwwZj7lIAHPqO3XqpLp06aK6du3qGbm5yEGXMmNKJAQw/EFVC4PC0aNHewLBjBkzbFDf6oLayXxYNNxUQrz4niiV+NdkFVmkBkDU/xtE/V8p2U08RgIuEMDYNHr4vXv3VuINU0EIYNCfAGYafP/992rkyJHeUIEFY7n6Q7csh8uXL1cGOwJKrI1vZRjg0MSD2E8qAMjHrotMR/qZGoBkyHjMZgLwnIeePht9O2oZjop++OEHCgN2VGcopYAjKwiRFoXdMkTZcNy4cUsSy5RUAJCV/96U3s4piRdznwRsJQCL/SOPPFKJ7cted7m2ltXVcsH/wJdffun9wXMhAwkkIwCPl/ByaVm4SLQAhWYDJBUADj300GWi/qxjGQAWhwQKEID7XBF21XHHHec54ylwkjvWEsCQAGYSfPrpp552gK6Lra3qnAoGd9ax9TFyikDPm94TAWBgYtYKCQAHH3xwJXH9u17U/4XOJd7MfRIwjQD848OQr3///t4vrfdNq0F/87t+/Xr19ddfq88++8zzTuhv7IzNNAIQDjH+b6HdyEaxaagpfjUKONMo1MhLj+gGUf8/aFrFMb8kkIqACLWein/gwIHeIjqpruU5NwnA6dD777+vvvvuO5sMwNyszBxLbdH8/0IERKjpI9MBR8SfKDQNUKYMnBx/AbdJwGQC++yzjzr++OO9Hj+mjjGQQFEEYAeCPyxihOEB/GE+OIM7BCAA2BpEqf8nKduI+PIV0gAcdthh20QtWib+Im6TgEkEMHoFS/4TTjjB++Volkm1p09et2zZooYPH+5pBSAUMNhPwLLpf4kVJmYAk9rFHywgAMjUp7bSS5oYfwG3ScAUAmjo4RjmjDPOSLoSnSnlYD71IoDxYPgUePXVV2knoFfV+Jobm9X/e0D9Jt/IuhMnTlwRA1dgCEAe9LNiJ/hLAqYQiDX8Z555prfwjin5Zj7NIIDnC34hMGMEbodfe+01BW+DDHYR2Lp1q10FKlyaYtLG95DDH8ROFRAA5EE/LHaCvySgOwFY8MuUVXXaaaepBg0a6J5d5s9wAjFBE1omcaqi/u///k9NnTrV8FIx+yAAr382j//HalkEgINlO7kAIB/U/WMX8pcEdCWAD7G4qlZnn322qlu3rq7ZZL4sJoDVH/GHxYhefvllNW/ePItLa3/RHOj9e5Uo304IAHvDXhuAHj16VK9YseJqfFwZSEBXAvjonn/++VT161pBDuYrZiPw4osvqmXLljlIwPwiw2W0I8tLb5dVDquKwOpNd9g7BCAN/xls/M1/kG0tQZMmTdSQIUM8Iz9by8hymUkA383Y2hGYNYChgXXr1plZGAdzjd6/I40/areMrPPTSX6/x85eAUA8pPXDAQYS0IlA7dq1vYYfY/0UUHWqGeYlkQBsUo466ihPGHjrrbfUv//9b0U3w4mU9NvHdE+Xgvj66Sbl9QSA4rGCy8HWsW3+kkDUBPAxxTz+v/3tb954Pxv/qGuE6WdKQIZS1XnnnadeeOEF1bVr10xv43UREIDP/x07CnjHjSAXoSe51xfA3gF/cQC0VT66dJUWel0wwUQCGOe/7LLLVMOGDRNPcZ8EjCPw008/qWeffdbzMGhc5i3PMFaFdFAAGCsOgTAMoDwBQLymla9evfpm9rIsf9o1L169evXUJZdcwnF+zeuJ2cueAHqaH3zwgXrjjTeUKxbn2VMK9w7UCVb+czBsr1GjRsURI0bs8oYAxPtffzb+Dj4GmhS5VKlS6qyzzvJUpphjzUACthEoU6aMOvnkk9Xzzz+vOnfubFvxjCsPZm6INbxx+fYpw2VWrlzpTfkvgQgbN258hXyEu/gUOaMhgYwJ7Lvvvuquu+7yHPpgqV4GErCZAOwD+vbti2+umjBhgo3rzhtRfdDCuGb8l1AxI2Xq4xRPAyAGgB0STnKXBAIlgB4RDKWefvppzukPlDQj15EApg3CwBXuhRnCJQCvfw73/j3YovFvgw1vGqDs1A+3CpiaywSw5Oo111xD970uPwQsu6pWrZq69dZbFYwEn3zySbVq1SpSCYEAGn8IAY6HZih/TANQw3EYLH4IBNDrh3X/I488wsY/BN5MwgwCsHvBLAFoBRiCJbBz507XVf8xwE2w4QkAMv2vXOwof0kgCAIY83ziiSfUcccdR4c+QQBmnEYTqFy5srrlllu8P9gJMARDYP369cFEbF6sTZHlYgcddFBteeCWm5d/5tgEAphdMmDAAG+8H9b+DCRAAqkJLF++XD344INqypQpqS/k2awIbNq0yfmx/zhgv8lQSPkS4mP9cPkwnxp3gpsk4AuBqlWrej2a448/XtHC3xekjMQBAtAAHH744UqMs9XkyZMVpqwx5EcAqn+uz1CAYTGZ/v9acVkEgTMACnDhjh8EMK4JK2e6QvWDJuNwjQAE5sGDB6thw4apmjVrulZ8X8sLgz82/kmRNhUhs7hnDZj0NA+SQJYE0Gs588wzvbn9VapUyfJuXk4CJBBPoG3btuqvf/2rEm+t8Ye5nQWBDRs2cFGmJLxEs1SvRKNGjS6UIYDmSc7zEAlkRQCGTLfffrvq378/Df2yIseLSaBoAqKq9RbEgnAtPtyLvpBnChHYvHmzwh9DYQJin/U9bACuklkA9ANQmA+PZEFgv/32Uw888IDaf3/Pw2QWd/JSEiCBdARgTNuuXTvVvHlzNXr0aBcXsEmHqNB5LPJDq/9CWOIPjC0uD1bV+CPcJoFsCcBg6dFHH1V169bN9lZeTwIkkAUB2NY89dRTqmlTbxZXFne6danYtqm1a9fSgDJFtcsQQI0S8iDdLAYnnHiaAhRPJScgmiN15ZVXqrPPPlthm4EESCB4ApUqVVJHHHGEWrhwoVqwYEHwCRqWAoz+sMofhACGoglI538+BIA7RAAoU/RlPEMChQlgqhIW8aEv88JseIQEgiYAgRueAzE0MHHixKCTMyZ+TJlEzx/T/hjSElhVolmzZneIcQm7b2lZ8YIYgXr16nmOSlq0aBE7xF8SIIGQCcTsAurUqePZBbju3z7W+GPsnyEjAhthA+C5A87ocl7kPIEDDjhAPf7440pmjzjPggBIQAcC/fr18/wFuDztFo0/5vpv375dhyoxIg/CrAwafwoARlRX9JmEsR8ck8DDHwMJkIA+BLDC5mOPPebkIluxxn/btm36VIgBOZHOfxnR/hcvZkBemcWICZx++unquuuuU/TnH3FFMHkSKIJA/fr1vdk4Lk3Fjan92fgX8VCkPly6uACkAJAaktNnMc54wQUXeJb+2GYgARLQlwCGAR566CHVuXNnfTPpU85i1v5U++cMtEyJfffd905+2HMGaPWN8Dx29dVXe0v4Wl1QFo4ELCKAGQKHHHKIWrRokZo/f75FJfujKLt27fKm+tHa/w8mOWz9VkI8uN2Zw428xXICUPVjffI+ffpYXlIWjwTsIwDhvWfPnt6UuJkzZ1pVQDT6nOfvS5UW9zQAvkTFSKwhUKFCBTV06FDVpUsXa8rEgpCAawSg2YXnQPSWsaywDWHLli308OdTRcrwPwUAn1haEw0c/MCnP6b7MZAACZhNAEJAx44dFTQCEyZMMLYwsSV9ubCPv1VIDYC/PI2ODT3/+++/X9HBj9HVyMyTQCECWEioTJkyaty4cYXO6X4Ajn3g3Y8OfvytKcygoADgL1NjY0Pjf99996mWLVsaWwZmnARIoGgC8BVgmhCwadMmb0U/170cFl2ruZ+hAJA7O6vuZONvVXWyMCRQJAFThICYlf/WrVuLLAtP5EcAQhU1APkxNP7u8uXLez3/Vq1aGV8WFoAESCA9AQgBCDouIoReKXr9cOvLXn/6usznCgoA+dCz4N6yZct6Y/5s/C2oTBaBBLIg0L59e29MfcqUKVncFeylsPCnP/9gGcfHjuWSuQpgPBGHtuEs5NZbb1Vs/B2qdBaVBOIIDBkyRG3cuFF99tlncUfD34Rx34YNG7iEb8jooW2hABAydB2Sw9SgP//5z5znr0NlMA8kEBEBfAeuvPJKT+U+cuTI0HOBhh/qfrryDR29lyCGACgARMM+0lQvvPBCdcQRR0SaByZOAiQQPQH4B7jpppsU5tePHTs2lAzBsA/qfk7rCwV3kYlAAOBSwEXisfMEVvUbOHCgnYVjqUiABLImgOHA2267TTVv3jzrezO9AY0NhIwVK1Z44/xs/DMlF9x1FACCY6tlzH/605/UWWedpWXemCkSIIHoCGA20D333KP22WcfXzMB9T6c+KDhxzg/DM8Y9CBAAUCPegglF506dVJXXHGFwrgfAwmQAAkkEqhataq3BgjcgecaYFi2bds2r5e/fPlyb9Ee7OM4g14EKADoVR+B5aZhw4bq5ptvViVKlAgsDUZMAiRgPoEGDRqoO+64Q2FYINOA1fkwpo8V+tDoo8ePcX40MAz6EkD90BGQvvXjS84qV66shg0bpmrUqOFLfIyEBEjAbgJ16tTxvhejRo0qVFB46EODj149xvSh1scvVP1U7xfCpfUBzMDIXMzTuijMXDICsbn+fo/rJUuLx0iABOwh0L9/fzV9+nT11ltvecsJo3HHH3v19tQxhDkKAPbUZ6GSXHXVVQoev0wMs2fPVp988om3hOnq1au9j1CjRo28xYqwvGmHDh1UpUqVTCwa82wZgfXr16uff/5Zocc8adIkNWfOHE+Fjp50586d1cknn2zkCpuwGZoxY4aKwkeAZY+IdsWJaWuK9evXj9YZ2lVP/hk66aST1AUXXJB/RCHHgLHDZ599Vn3xxRcpU4YxI6YtHXjggQoGjvBvThuHlMh40icC+HhiWd0ffvjBa/R/+eWXtD1jTL294YYbFKztTQpQ72Pq8Ny5c03KNvOahgCGcVatWqUoAKQBZeJprP39wAMPGNcgovH/y1/+oqZOnZo1dlguo7fVvXt3z8NhPpbMWSfOG6wngLHu7777To0YMcJr+LGfbYDW6vnnn1flypXL9tZIr4c27owzzvAM/SLNCBP3jQC+tVh3gQKAb0j1iKh69erqr3/9q6pWrZoeGcoiFzBW/Prrr7O4I/mlpUqVUl27dlV9+/b1frHPQALZEoCzGqi/P/74Y+/XD+c1xx57rLr33nuzzUrk13/++eeeBiPyjDADvhCAASDWgaAA4AtOPSKBChyNaJs2bfTIUBa5QK8f6xP4HaAJ6NOnjzruuOMUbAgYSCAdAfR433zzTW+RnFx6+qnix9DVK6+8YqRtDrSKb7zxRqri8ZwhBDBVEzM5aARoSIVlkk2s7mVi44+yffrpp5kUMetrIOl+9NFHXi8ObI4//nh18MEHK/hAZyCBGAFYt0O9/89//tMz6AvKcQ3ifffdd40UAK699lqF5YMnTJgQw8ZfQwlgBgACNQCGVmBittGowZ+3iZ7+8FGEpbSfvS180GHoArUt5ihjOxagCTj//PPVMccck5XDk9j9/LWHAD6EUPG/8MILauHChaEUrEqVKurbb781UgiFo59TTjnFc/oTCiwmEgiBZcuWed4ZKQAEgjfcSOvWreuN+1eoUCHchH1KbebMmeryyy/PKzYIEWjo0eDjDx/2dL24+vXrezMlMDyQjeezvDLKm7UggOfjww8/9Br+xYsXh54naBowc8XEgNkPl1xySdr3y8SyuZDn2AwAlJWeAA2vcfT44boT7n5NDV999ZU3rSrb/GM6FsaxYMwC7QEsW/FwZ+qsBPdB7fvZZ5+pmjVrqn333TfbLPB6Awlgvj58ZLz33nvesxNFEeByF1NYTQz41uB9g88DBvMIoIOE7yYCB0LNq78COcYcXUz7MzlgTnUmIdbLh+MVrC6GP2yj55+ut58q/gULFqjrrrtODR48WE2cODHVpTxnMAEYmp533nnqwgsvVDD0izIkc7MbZX6yTfvqq69W+++/f7a38XoNCMQPh3IIQIMKyTULLVq0UI899phx8/3jy4vGG06LIJUmC1DVQlrFeVwbdIBxIOwR0EM0dUglaEamxQ9D0CeeeEK98847GWuHgi5jmTJlvKmFZcuWDTqpwOKHl0B0QIp6dwNLmBHnRQAOgGJCADUAeaGM7mZ8OOBZzHTvd+iVJX5AoNrHRxsP6sqVKz01bRiNP2oTwweYAga7AAxNMJhNAPP4TzzxRM+nfaZDQ2GUGM+z6domaAAgKDOYRSDW+CPXFADMqru9ub344osVxhFND5hWhIBGH25H0ehDtY/x+fgHNexyQvC45ppr1I033hjZOHHYZbYpPTw/qLvLLrtMLV26VMuijRkzRst8ZZMpDJv16NEjm1t4bYQEEjtbFAAirIxck8YL96c//SnX27W6b/To0XsbfRgWRdnoJwMDA8FBgwblZKSYLD4eC54AbEpQZ6g7ncP48eN1zl5GeYMR8tChQxVdb2eEK/KLKABEXgX5ZQDj0vlOmcsvB/7djV4/jKF0a/QTS7hkyRIFJ0vPPfecNmPIiXnk/u/DN6gj1BXqTPeAIQC8A6aH2rVrKzgJYtCfQOK3lhoA/eusQA5hxYwpazYErDe+ZcsWI4qCDzXWWLj00kt9dVhkROENyCS0R6gb1JEpjSqGvOADw4aA1Q6x/gaD3gQSNQB0Bax3fRXIXdu2bdVRRx1V4JjJOxAATAtwggLL5yeffFI1a9asQPZh2LVo0SIFxzKxvzVr1nirbmHlLWzDuBEBkjj8FjAob3W82IJNlSpV8hayqlq1qsIfFreCw6bYH+xeYEEfH+bMmaOuvPJKhemcpgW8Ay1btjQt24Xyi6GA22+/3TO4DMtgt1AmeCAlAcyoSjSEpQCQEpk+J0uXLu0tlmOiq9+iKEY9F7uofKU7joYGxk9XXHGFZ7g4bdo0hQ85XMkmvmDp4uJ55QlCMWEIPflUnvkwTROOaDAFFg0nxp4hjMUEK9N4zpo1y7QsF5lfuNiG0eWjjz5a5DU8ER2BmPOf+BxQAIinofE21uO2weo/HrHJHz80OPfff398cbgdAgEIWPPnz/f+hg8fHkKKwSZh8juQjMxZZ52lvvjiC2/RoGTneSw6Ask0M7QBiK4+Mk65adOmnrOcjG8w5EJbxj8Nwc1sakjAtncAGhq4JjfdP4mGj0peWYKn1EQDQERIASAvrMHfDJU/rP5tW6wGxn+Ya89AAi4TgM+L2PCHLRwwNANvmgz6EEDvP5m7dAoA+tRR0pz06dNHYR1724Kuzlls48zy6E8AS7PaFmALACNOBj0IJFP/I2cUAPSon6S5gLXzueeem/Sc6QexrjgDCZCAUja+C5UrV7bGX4kNz2gyA0CUiwKAxrWL6WZwsmFjsLHXY2M9sUzBE7D1XcAiX61btw4eIFNISQBz/4uanUQBICW66E7us88+3pza6HIQbMoY+2QgARKwUwOAeoVBIBYss2nqsonPayobEwoAmtboRRddpGLOUTTNYl7ZWr9+fV7382YSsIUAfB/YGjp27GjNuiUm1hEM/4pS/6M8FAA0rFW8NN27d9cwZ/5lKZVU6l8qjIkE9CcAl8A2BywZnOi90eby6lS2VOp/5JMCgE61JXmBuuycc87RLFf+Z8dUz23+k2CMrhMwZT2MXOupXr16nBaYK7w870vX0aIAkCdgv2/v2bOnFb7B03Gx/aOXrvw8TwIxArZrAFDOCy64gEsGxyo8pF+o/4ua/hfLAgWAGAkNfmE0c/bZZ2uQk+CzkGpcKvjUmQIJ6EMgXS9Nn5zmnhP4BICbYIbwCOC5Ksr6P5YLCgAxEhr89uvXz1voRIOsBJ4FWgYHjpgJGEIAgr8LAQJAjRo1XCiqFmXMRLB048nTojpSZwKr/WHBH1cCBQBXaprlTEfAFQGgfPny6vzzz0+Hg+d9IIClf2EAmC5QAEhHKKTzRx99tLVOf5IhdOWjl6zsPEYC8QRcehcGDRqk4OOEIVgCmdpYUQAIth4yih3z/V1bPIMagIweDV7kAAGXBABoOl2xc4rq0YXxXybqf+SPAkBUtRSXbv/+/VX16tXjjti/WbZsWfsLyRKSQAYEXHsXBg4cqGrVqpUBGV6SCwEYWKcz/ovFSwEgRiKiX0j/J554YkSpR5csVwqLjj1T1otAlSpV9MpQwLmBUyCsc8IQDIFsfKxQAAimDjKOFcv9wlGGa8G1j55r9cvyZk7AxXfhlFNOUVgxkMFfApj3DwPATAMFgExJBXAdxsFdG/uPYeTLHyPBX9cJuPguVKxYUZ166qmuV73v5c/WqRQFAN+rIPMI4e+/SZMmmd9g0ZUu9nosqj4WxUcCLgoAwDd48GBVrlw5H0m6HRV6/uk8/yUSogCQSCTEfZclYBeHPUJ8tJiUQQRcfRdgBwSDQAZ/CGQz9h9LkQJAjETIv61atXLC539RWOvXr1/UKR4nAacINGjQwKnyxhcWxoAuTYOML7uf2+j95+JenQKAn7WQRVzHHXdcFlfbdymcgdAXgH31yhJlRwCNn6saAJBq2LChOvjgg7ODxqsLEdi4caPC/P9sAwWAbIn5cD3Gv3v16uVDTOZGgalANWvWNLcAzDkJ+EAA8+HhHMflcNppp7lc/LzLvnPnzpx6/0iYAkDe+LOPAG5/4f3P9dC4cWPXEbD8jhPgO6DUQQcdpBo1auT4k5B78XMZ+4+lRgEgRiKk3xIlSigIAAzKaRsI1j8JgEDLli2dB4FhEGoBcnsM8un9I0UKALlxz/kujHdR9f07PhhCMpCAywQoAPxe+wMGDFDwDcCQHQGM/ecTKADkQy+He4899tgc7rLzFgoAdtYrS5U5AQoAv7OqUKGCOuqoozIHxyu9cf9s5/0nYqMAkEgkwH1Yvrdt2zbAFMyKumnTps4bQJlVY8ytnwRg/Id3gOF3AtACMGRGABb/+fb+kRIFgMx4+3LV4YcfzqlvcSS/+eYbtWPHjrgj3CQBdwjg2f/yyy/dKXCakrZp00Y1a9YszVU8DQJw+ZuNz/+iqFEAKIqMz8cx571v374+x2pudCtXrlR33XWXuQVgzknABwJDhw5Vy5Yt8yEmO6Jw3T9KJrWIpX7zsfyPT4MCQDyNALfbt2+v6tatG2AK5kQN9dUdd9yh1q9fb06mmVMSCIAA1Li33357Tk5cAshO5FHCRoqeAVNXw4YNG3x7XigApGbt29kjjjjCt7hMj+iNN95Q3333nenFYP5JwBcCo0aNUm+++aYvcZkeCRwjwS8AQ3ICGDbaunVr8pM5HKUAkAO0bG+BsQ8f6t+pzZ07Vz3++OPZIuT1JGA1gUcffVTNnj3b6jJmWjgOAyQnBc3punXrkp/M8SgFgBzBZXobDDU6deqkypcvn+kt1l4XU/3nO3XFWkAsmLME8E7AJgbviOuhT58+qlKlSq5jKFR+DBf9+uuvhY7nc4ACQD700tyL1ZlWrVql+vXrl+ZKN05//PHHavz48W4UlqUkgSwJ4N349NNPs7zLvsuxTsihhx5qX8HyKBE6klu2bMkjhuS3UgBIziXvo5imAXUNvFt16dIl7/hMjwDC0NNPP216MZh/EgiUwGOPPebrGG+gmQ0wckyZZvidALRCa9euDUQ7RAEggKcMVpoxS01Islz4R6kXXnhBLV26NADajJIE7CGwYsUK9dJLL9lToBxLApfpdA38OzxM+fNjzn+yqqAAkIxKjscwP3PNmjWek4ZYFLT+V17D/+qrr8aQ8JcESCAFgX/84x9qyZIlKa6w/xQMp3v27Gl/QdOUEFb/0CYHFSgA+EQ21vjHG7jB8K9Hjx4+pWBuNA8//HDO61WbW2rmnARyI4BvCGYFuB5c7zyhTcEwcpCGoRQAfHjLsCQjjP3wGx969+6tYNDicpgxY4b66quvXEbAspNA1gTgInjmzJlZ32fTDb169VLlypWzqUhZlQWO0vy2+k/MAAWARCJZ7kNFA7V/soqi61+l/v73vwcqwWZZXbycBIwggF4f3h2XQ9myZRVsAVwMsPiH4XTQgQJAHoRRSatXr1ZQ1SSGkiVLOj+GtWDBAjV8+PBENNwnARLIgMAXX3yhFi5cmMGV9l4CLYBrAQZ/MCIPI1AAyJEyKiiVL/sOHToorHHtcoA1czLhyGUmLDsJZEoA7w4MAl0O0ABgITVXAuocGuUgx/3jWVIAiKeR4TYa/3SWma67/sV0Jjj+YSABEsidwAcffKCwcqaroXbt2mrfffd1pvgw+ks2nBwUAAoAWZJFrz9d448oXRcAMO0P9hEMJEACuRPAO+T6FFpX7ADg6jd+FlnuT03md1IAyJyV540pE3eMVatWVS1btswiZrsuxWyIDz/80K5CsTQkEBGB999/32lh2oXOFAz+4PAn7EABIAPiMVeMmVpl4oF1eU3rESNGeMJSBmh5CQmQQBoCUAuPHDkyzVX2nj7wwAMVZgTYGtBhQh1HESgApKGebeOP6FxRWRWFDj0WBhIgAf8IuPxOwZdK586d/YOpUUwY7w/T6C+x6BQAEonE7aPxR+VkOy7TvXv3uFjc2oTB0g8//OBWoVlaEgiYwHfffee0MaCNHlVjFv9RzpSiAFDEi4tKwRz/bA3ZGjVqpGrVqlVErPYf/uijj0K1YrWfKEtIAsp7pz755BNnUXTs2NGqsqNzCbV/UIv8ZAqLAkASUqgcNP6Jrn2TXFroUPv27Qsdc+kAjf9cqm2WNUwCmBLoaoBRtS1ugWONf7aa5SDqngJAAtVYzz9Xycw2STUBT8rd+fPnqzlz5qS8hidJgARyIzB79mwF75ouBnhWbdu2rRVFhx+ZTA3Kgy4wBYA4wpDM1q5dm1PPPxaNywKAy5bKsfrnLwkEScDldwzeVU0PaPwzmUoeVjkpAOwhHWv8sx3zj6+oSpUqqaZNm8Yfcmrb5Y+TUxXNwkZGAMaArgbTO1dw9JOJE7kw65cCwB7a6PnnOyaD8X9X5/9v3bpVjRkzJsxnl2mRgHMERo8erVUPMswKMPn7Cic/UTj6SVc/FACEkB+NP0DboKJK98AUdX7UqFFZz5goKi4eJwESSE4AGkoIAS6GihUrqubNmxtXdPT88adjcF4AwFQMvwwy2rRpo2Mdh5Inl1WToQBmIiSwh4DLQ22tW7c26jnAmL+OPf8YxJKxDRd/sbAPVNd+BZf9/48dO9YvjIyHBEggBYHx48enOGv3qf3339+IAsKmzO/2JYiCO6sB8NsaE85/qlevHkQdaR8nrFrnzp2rfT6ZQRKwgcCsWbN87biYxMSUThY0y352LoOqIycFADRYfltjtmjRIqg60j7eqVOnqijdWWoPiBkkAR8J4F2bNm2ajzGaExU0AMWKFdM2wzE/Mn4NKwddUOcEAFj6QzXjdzBFMvW73IhvypQpQUTLOEmABIog8MsvvxRxxu7DMASsX7++loXEwj65uI+PsjBOCQBw7QuL/yCCKWNTQZSdAkAQVBknCRRNwOV3TkdtK2ZnrFq1KnLf/kU/McnPOCMAQDWDxh/GGUEEHR/KIMqZLE6XP0bJePAYCQRNwOV3TrfOFtT9WDXWxGFQJwQAVAwqCCqaIALWq27cuHEQUWsfJyTfRYsWaZ9PZpAEbCKAdTdyWazMBgY6dbYwxS/IjmXQ9eWEAACLzCBfliZNmjjrAXDZsmVGSr5Bv1iMnwSCJIBOzYoVK4JMQtu4dehsxTqVujr4ybTyrBcAMN0vXxe/6WA2bNgw3SXWnl+yZIm1ZWPBSEBnAq6+ew0aNIi0w4XOJMb7g25Xwnj2rBYAoJ7xe7pfskqhAJCMCo+RAAkESWDp0qVBRq9t3BhyrV27diT5wxRyNP5BDSeHXShrBQAYZoSlnnFZAHD1IxT2i8r0SCCRgKsaAHBo1KhRIo5A96Hyx1ByEFPIA814msitFAB27doVakWF/TCmqdNQT7v8EQoVNBMjgQQCLgvfYXa6YlP8TPDsl/CIpN21bi0ASGqwysRvWAFjUq4GVw2RXK1vllsfAsuXL9cnMyHnJAxDQEwZxzCyzov55IvdOgEAKhpoAMIKpUuXVnXr1g0rOe3SCcPGQrtCM0MkoAEBl9+9oDtdMPSDyj/MtiSKR8oqAQCSWtg+mPfZZ59ILVKjeGji0wybd3za3CYBlwnYqJLOtD6DEgBivX4IV0E5jcu0jGFcZ40AgCkZYRn9xVdMVNao8XmIcpsCQJT0mbbLBFx+92rWrOl71WOsP2wNsu+FyDJCKwQAqGmC8vGfjmcQD2K6NHU67/JHSKd6YF7cI+CyBgBLr5coUcKX6XiwF0PnEVP8XAvGzwKAmgZjNVGpa2rVquXaM1OgvBQACuDgDgmERsDld6948eIKQkA+AW0GVP0wZHax8Qc74wUAePoL0s1vugesRo0a6S6x+rzLvRCrK5aF056A6+9ePt9eCE8rV65UaD+i6jzq8IAZLQBAaotacnN9CMDll0eHF5h5cJdAmFOddaSci/YVnUUsDIchY1u8+eVTN8baAGDcH9Jb1CGXhzDqPPuZfqlSpazwie0nE8ZFAmEQwBRkl0M23140/FHMEtO9fowVAKIc94+v1HzUUPHxmLpNAcDUmmO+TSeAd8/lkMm3Fx3FWMNPbWXhp8VIAQAWm1GO+8djrFatWvyuc9uuf4Scq3AWWBsCrmsAKleuXGRdxBp+1+0kigS054RxAgDmaurkmrFChQrpGFt9vnz58pFNwbQaLAtHAmkI4N1zOVSsWLFQ8WPtgw1L9RYqXAAHjBIAoMKB6l+XgKkoZcuW1SU7keSjatWqavHixZGkzURJwGUCePdcDrHOF9oF9PQxpQ89f4bMCRglAKDx18lyM/YAZo7bvitd/wjZV6MskSkEXB9+hAYk5sDH9RkRuT6zxggAmO6nm+MLCgBKuf4RyvXF430kkC8B14XvMmXKaDUcnG99RnG/EX4A0OuPws9/ugqhAKBUJpa46TjyPAmQQPYE8vWEl32Ket1RqVIlvTJkYG6MEADgtEFHFY/rRjh43rEaIgMJkED4BIJaES/8kuSWYjIjwNxicvcu7QUAGHboMuUv8TGhBkCp+vXrJ2LhPgmQQAgEXBe+KQDk/5BpLQDoqvqPYecceAoAsWeBvyQQNgHXNQCYhcWQHwGtCWJtZp29N/EBVAofIXLI7yXk3SSQLQEsheu6BgAMGPIjoK0AAKt/3Z05FCtWLD/6FtwNS9xGjRpZUBIWgQTMIdCkSRPluidAdjzyf161FAB0V/3HsFMC/Z3E/vvvH0PCXxIggRAING/ePIRU9E6CAkD+9aOlAIBV/nS0+k/ETQ3A70T4MUp8MrhPAsESoNCtFDtg+T9j2gkAcPajm8OfojBTAv2dzAEHHFAUIh4nARIIgECrVq0CiNWsKNkBy7++tPIEiF4/ev+mBAoAv9dUhw4dPENAE7Q2pjxbzCcJxAjAEBo+7jE0iinR2G/Xrl3stLO//P7mX/VaCQBY5Q8POYNZBOCRq2nTpmr27NlmZZy5JQENCWBFOzT4sV9sx8+Gat26taIXPGXEMLGGj1eBLGkjAOBhh+W/SUH3WQphsuzYsSMFgDCBMy0rCEBrhm9f7C+xsU9WyO7duyc77NwxU4aKda4YLWwAIN1C9R8v5eoMLZY3PoAxEkp17dr1jx1ukQAJJCWAbxw6DvjerVy5Ui1fvlzB1XnM42km38CePXsmjdu1g+yA5V/jWmgA0JDq6u43FWIKAH/QOeigg2gH8AcObpHAXgLo5eNbgQYLf5k08ntvTtgoWbKk6tWrV8JRN3e3bt3qZsF9LHXkAgBeDh1X+suEMSXQPyhVrlxZtW3bVk2YMOGPg9wiAUcJxBp9NPxQ7+fT6Mcj7NKli6pSpUr8IWe3+f3Nv+ojFwBMNvzjA1jwAYRqkgJAQSbcc4cAGnk0+LBlQqMfRDjssMOCiNbIOKmBzb/aIrUBgMW/aYZ/8cj5AMbTUKpfv34FD3CPBBwggI7AunXrvPF8/AbV+APl0Ucf7QDRzIrIIYDMOKW6KlIBwETDv3iY1ADE01DeVMB999234EHukYCFBKDiR+dl1apVas2aNQqNkV9q/qJwYfofvW7+QYcdsD9Y5LoVmQAAKdn0CjTVdiHXhyWT+/r375/JZbyGBIwkgGl6WKUU1vv4DdN4+YQTTjCSWVCZhraFIT8CkQkAJnn8KwoxNAAmD2EUVa58jkMAoIvOfAjyXh0JoMOCnj6m7kXxzuOdGjBggI5oIssT6oMhPwKRCAB4gcKUnPNDlPpuSqEF+TRu3FjBKRADCdhAAFpKNPqrV6+OdHlyGNji3WL4gwDqhCE/AqELABgns6H3H8MOJx4MBQmceOKJBQ9wjwQMIxBr+PF+Q+0fdRg8eHDUWdAufWoA8q+S0AUAeLwK2lgmfyyZx0ANQGFWmA3AucqFufCI/gR0a/hBrHr16rT+T/LosPOVBEqWh0IVANDwY96/TYEPYeHaLFOmDMcrC2PhEY0JYIwfFv269PjjUZ1++ukK7xRDQQLUABTkkcteqAIAGn+bev8ATg1A8scOKku4LWUgAZ0JQL2PhgTjyTraJZUqVUqdf/75OiOMLG+0AcgffWgCABr+KKxn80eUOgZKocn51KlTh46BkqPhUQ0I4HuEabzo9evszwNT/+rXr68BMf2ygLpjyI9AaAIAXjY4z7AtLF261LYi+Vaes88+m1MCfaPJiPwigI7IihUrvOFInTWSmPp32WWX+VVsq+KB5obf3vyrNBQBwHSXv6kw8yEsmk6rVq1U7969i76AZ0ggRAJoNKA2hgMfEzojcPt7wAEHhEjInKSWLVumxewMc4glz2koAoCNY/8xnEuWLIlt8jcJgSuvvNJbJjjJKR4igVAIoJeP2UdQGQfpp9/PwhQvXlxdd911fkZpVVyLFi2yqjxRFSZwAQC9f5sXbYAqUYd5wlE9QOnShe/yvn37pruM50kgEAJ4N9Hwm7buyPHHH6/g+58hOQEKAMm5ZHs0cAHA5t4/YEOVCL/gDEUTuOKKKzgjoGg8PBMQAfT64cXPNAG9dOnS6qabbgqIih3RUgDwpx4DFQBsHvuPx087gHgahbebNGmiTjvttMIneIQEAiCA7w7G+k31OHrhhReqZs2aBUDGnigXL15sT2EiLEmgAoBtTn+KqifaARRF5o/jF198sapateofB7hFAgEQwHAjev2mjPUnIqhZs6a6+uqrEw9zP4HAggULEo5wNxcCgQkAsfWyc8mUaffMmzfPtCyHnt9KlSopGAQykEBQBGDdD8dcOk/tS1f22267TVWuXDndZc6fnzlzpvMM/AAQmACA8TdXwty5c10pal7lHDhwoDrwwAPzioM3k0AiAYzxR7VMb2Je8tk/6KCDOFSWAUBoeTgEkAGoDC4JRACABG6z5X8i19mzZyce4n4SApjadNddd9GveRI2PJQbAXjxw3i/aYZ+iaWF4d/DDz9Mx1mJYJLsT58+3Qg/Dkmyrt2hQAQANP4wxHElLFy40Ngxx7DrCGuaX3TRRWEny/QsJAAbI7jiNsGpTzr8N9xwg8KUWYb0BGbMmJH+Il6REYFABACX1P+gDGFn/vz5GQHnRUqde+65qkOHDkRBAjkRgIYRq/bBvbgNoWvXruryyy+3oSihlIECgH+YfRcAoJIzXR2XC14OA2ROrUSJEur+++9XFStWzPwmXkkCQgDCNhz7bNu2zQoeMPh77rnnFN4JhswIYAiAwR8CvgsArkz9nRd/6AAANiVJREFUS8Q/Z86cxEPcT0EAK5z95S9/SXEFT5FAQQLoWNgw3h9fqoceekg1bNgw/hC30xCgBiANoCxO+yoAYD1tU+ffZsEs6aV8KJNiSXnw2GOPVZgZwEAC6QhAs4iev022Reeccw6f/3QVn3Aewz6cdp0AJY9dXwUA18b+47lPmjQpfpfbGRK4+eabVZs2bTK8mpe5SABGxRjzN3l+f2K9derUSd17772Jh7mfhsCECROsMPpMU8zQTvsmAEAyd2nqX2INYR4y/hiyI4DpT4888oiqVq1adjfyaicIbNmyxXjnPokVBW9/L730ksKzz5AdgfHjx2d3A69OScA3AcDlxj9GmFqAGInsfuvVq6eeeeYZVbZs2exu5NVWE4A9Ebz72RTKlCmjXnnlFbXPPvvYVKzQyjJ27NjQ0nIhIV8EAKjmIKm7HiZPnuw6gpzLj2GAe+65R8FZEAMJYKzXlml+sdosVqyYeuKJJ1SXLl1ih/ibJQFqALIEluZyX762MNCxyTgnDbMiT0+ZMqXIczyRnkC/fv24XkB6TNZfgYbfxtlEd955pzrxxBOtr7+gCogZIHC6xuAfAV8EAPb+f68QDAHYZKjk32OWeUxDhgxR+GNwk4CtjT9Ww7z00kvdrFSfSj1u3DifYmI0MQJ5CwDo+UMDwKC8Xgs9Aub/JFx11VXqlFNOyT8ixmAUAfT6bez5n3/++Wro0KFG1YWOmf3f//6nY7aMzlPeAgCN/wrWPx/Sgjxy2cNYKZwEDRgwIJfbeY+BBDCF2LYxf1TD6aefru677z4Da0S/LH///ff6ZcrwHFEA8LkCR48e7XOMbkYXWznwjDPOcBOAQ6VGJ2LDhg3WlRhrXjz22GNc4c+HmsUzwhkAPoBMiCIvAcBVv/8JDAvs/vzzz7QDKEAk9x1oAm688UauHpg7Qu3vxDfEtql+gH7llVeqYcOGcVaLT08gvquuepn1CWHSaPISAGj8V5gpLFXnzp1b+ASP5EzgsssuU3/+85/Zk8qZoJ43wnW4bR7+Ypqr2267TU/ohubqhx9+MDTnemc7ZwEA1u40/kteubQDSM4ln6OYGQCPgXCkwmA+ARgP29b4w7MfVvajtb//z+d3333nf6SMUeUsAKD3zylvyZ8gqKsY/Cdw+OGHq7/97W90G+w/2lBjxHdjzZo1VvkOgXvf999/X51wwgmhsnQhMYz/0wFQMDWdswBA6/+iKwQagN27dxd9Ac/kTKBjx47qzTff5AJCOROM/kb0/LG0ry0BC/t8/fXX9PAXUIWOGjWK4/8Bsc1JAID6DuN3DMkJoHfzyy+/JD/Jo3kTwNoB//jHPxRnCOSNMvQIMNXPpqHDs846S3344Yf07R/gkzR8+PAAY3c76pwEAPb+0z803377bfqLeEXOBDDeihkCWFK1YsWKOcfDG8MjsG3bNmsc/VSuXFk9//zznl0KV/UL9hn68ssvg03A4dhzEgDwIjOkJkABIDUfv84ee+yx6t1331UHHnigX1EyngAIQOVvy3S/zp07eyr/gQMHBkCKUcYTmDZtmqJ31Xgi/m5nLQBQ/Z9ZBUyfPl0tX748s4t5VV4EsLTqiy++6M295iyBvFAGcjOM/jDub7pdDJ6tW2+9VX388ceqSZMmgbBipAUJfPXVVwUPcM9XAlkLAFT/Z8YfHz1qATJj5cdVJUqUUPC5/u9//1t17drVjygZh08E0PM33eivW7du6ptvvlFYpwLPGkM4BDj+HyxnCgAB8v3vf/8bYOyMOhmBhg0bqhdeeEHdcccdnC6YDFDIxzBcaHKnAdP7nnjiCfXRRx+p5s2bh0zP7eTWrVun6Fo92GcgKwEAUrzpknywOAvG/tNPPynaSxRkEsYeXAhj3XWoamGlXbJkyTCSZRoJBPCtwEfcxADDPnigxDuMBX3wTDGESwBTK9neBMs8KwGAjVl2lYHpTtQCZMfMz6srVaqkrrvuOvXee++pI488kn7Z/YSbJi4MgUH1j1+TAlz5wpnPyJEj1Z133qlg7c8QDYEPPvggmoQdSpUCQMCV/fnnnwecAqNPR6Bx48bqoYceUv/6179Uv3792JtLB8yH81je17TFWw455BAFozN4m2zWrJkPFBhFrgQgPEIDwBAsgYwFAKhi6Pwn+8pAT2LTpk3Z38g7fCew7777qocffli99dZb6uijj+bQgO+Ef48Q3wpTnvlSpUqpk08+2TPYxXTStm3bBkSF0WZD4NNPPzVOgMymfLpcm7EAQPV/blWGYQBYDzPoQ6Bly5bq/vvvV/jInHPOOapKlSr6ZM6CnJiwyE+1atXU5ZdfruC2+5lnnlEHHHCABeTtKQKG7RiCJ1BMVKIZDdJhmVvTVHrB48sshZ49e6q//vWvmV3Mq0IngOd6xIgRnkMhGH2ZNm4dOrAUCcLVr869//bt23uGoYMGDVLlypVLURKeiooA2po2bdrQADCECsjIPBoOPNj4514bWMwC1tBVq1bNPRLeGRgBWHzDNgB/CxcuVLDb+OKLL9SMGTMCS9PGiHVV/bdu3VoNGDDAM+6DPQiD3gSwtgKt/8Opo4w0AJjHa+p0nnAwpk/ltttuU+h1MJhDYO7cuZ4hEuw4Jk6caNXytUHUAhbB0mGhH0z77NKlizrssMPUMccco/bbb78giss4AyIA997oNDEETyAjAQAWmVu2bAk+Nxan0K5dO/Xaa69ZXEK7iwbV9o8//qh+/vlnNW7cODV79mzjXdv6WWNRdhIwdQ92Hd27d1e9evVSvXv35vQ9Pys3xLjwXvXo0YPDcCExz2gIQAepPiQegSWDHuTMmTPpTSwwwsFGDJ8CsWECpIRx7vHjx6upU6d6QwWoWyxagrUyXAuwmdiwYUMoxUbvHrM5WrVqpaDah9U+evucrx8K/sATeeONN9j4B075jwTSagAwFrNy5co/7uBWzgSwfj2WsGWwkwDsZBYtWqSWLFmiFi9e7P3BoAnDZ7E/aBJgU4P3yhatGhp/zPvPNVSoUEFhOh568piRUb16dc+NM35r166tGjVqtPcPY/hcfjdX0nrfh2nmHTp0UCtWrNA7oxblLq0AgBc7LOneIq5Ji4KPGxyN6LxiHXqyWFAHY3BoyNCjxQcaPWD0sho0aKBatGjhaTLQC6tVq1bSsvJgZgTwsbvpppu86WiZ3aHXVXg+0EHIduYEVPWYGVO3bl29CsTcREYA03LPPvvsyNJ3MeG0AgCn//n7WDzwwAPqqKOO8jdSH2JD73XYsGHeVLhMl22Ff3QIA/Cghj+oZOkzPfvKwFz0IUOGZH+jBnfkavj3ySefcNVGDepPpyxgzYUvv/xSpyxZn5eUjoAg1dP7n7/PANzR6hbQ+F966aXq7bffzsqwDc/HtGnT1PPPP+8tmDJw4ED1zjvvGL36WxR1s2zZsiiSzTtN2Ablah+EIRIGEogRWLp0qfrPf/4T2+VvSARSCgB4ubNV7YWUb2OTQW8PxmI6BfT8Yd2eb4AF79ChQ9URRxzheVczeRnYfFlkej+MQ6EVMjHk4/DnhhtuMHbYw8S60j3Pr7/+upMGtFHXS0oBgM5//K8eCFSwdNUlYMwfPtD9DLAZgVYAc7CxjjqFyOR0v//+e3XBBRcYaWMD1+D5fB9gFIklm9nrS/5suHQUz9HLL7/sUpG1KSsFgAiqAstcwhpchwCDv0zH/LPNL4zDbrnlFs/fPgwKGf4gAIOnK664wsjhEgh0fjy/mAUxePBgb5XGP8hwyzUC+AbR8j+aWi9SAIhNVYomW3anig+fLrYAYXjcguMcrLiGGRAMSsEA7uabbzbW3Sl6/365aoWNEexP0AgwuEkA2kKGaAgUKQDgxaTqNrhKwTCADk5jwjJAw7DANddc4y3H6/Jz9e233yq4hQ5K6xLcE/tHzPnM+f8jlj+2wALaECzIxOAWAQyDTZ482a1Ca1TaIgWAfMb3NCqftllBw+vilJdXXnlF3XrrrVoIP2E/HGPHjlXXXXedb73nsPOP9ND7D2JmEL435557ruddMYpyMc1oCDz33HPRJMxUPQIUACJ8EF599dUIU/896SgcscAw8Nprr83LiCxycFlmANOcrr766pynzWWZXGCX52P5ny5TiPu0005TCxYsSHcpz1tAAIttDR8+3IKSmFsECgAR1t2kSZO8hWUizIK3gEoU6cP6G6pwF4YDMJ0Wwx9r166NArVvaaIcQfT+4zO4atUqb2YENZDxVOzchidIk4fCbKiVErKwxp2JBcHLxznciVSC2Yf1K6bLRRWgAYDzniga4lmzZnmeA7GYi80BvhH++9//Gl9E2HGEYbcCbQmGGvr06WM8MxYgOQHUMew+wniekueAR0EgqQaA0nd4D8cPP/zgrTUfXooFU8Ja6bDQjypgDPCzzz6LKvnA04Wm47333gs8naATQM8/V69/ueTt2WefddJGJhdWJt7z1FNPOTUEqGsdJRUAglbz6QojqnxFPQ3m+uuvV926dYuk+NA83H777Z5L4UgyEGCicHaD3r8NIeyVC/FcXH755QprkTDYRQBaTx3sn+yimltpKADkxs3Xu0aOHKmmTJnia5zZRIalWDEeBwMsLMkadkDP8s9//rO3ZG7YaQeZ3n333WdFA4Zx2iiGBLHQkC0CVJDPmWlx41uDIR6G6AkUsgHAmEyQlr7RF1nPHMD4KcpVAkuUKKGwRCv8+GO9dfT4gprylawG4Flu/PjxHoOSJUsmu8SoY1hb4dFHHzUqz0VlFs9CmOr/+HxAMD7ssMPUPvvsE3+Y24YSgFB38cUXB25Maiie0LNdaDlgfPRNt1YOnaIPCWIZ3bfeeku1bNnSh9j8iwIffjTO8+bN8xx2fPPNN2rChAmBWe/C8Ouxxx6LRBPhFzX0mE899VRrhjXg0tkvz3+5MO7QoYP64osvjH4mcim3jffce++96vHHH7exaEaWqZAGAAIAjQCjqcvly5dHqgVIVmr0xsuXL+/1wPAhPuGEE9TRRx/taQdmzJjh++wBCBpYKhaCAIQiE8P777/v+wJLUXHAt8Bvz3/ZlgVOsxo1aqTatm2b7a28XiMC+L6x969RhUhWCg340gAwugrCVLHRo0dHl4EMU27YsKG68847FZbwbN68eYZ3ZX4ZHAVhESET5wijpxy1UWfmpNNfGcXYf7JcodfIKWPJyJhz7KGHHvKGFs3Jsf05LSQARKnqsx93+hJC/R3FnPz0OSt8xQEHHKBee+21QOZrY8EceAuMauy5cGkzO4IpjbasfIjnUBcBYM6cOerjjz/OrBJ4lXYEsOw4OgwMehEoIACgx0UBINoKwsIYGO80JZQrV84bs4ehlt/h66+/9rzCYTqdCQEN5ksvvWRCVjPKI4YDdRJGn3jiCa3ykxFEXuQRuOeee9i2aPgsFBAAqP7Xo4bgJMOkusDUwQcffDAQA0bMDIBB3dSpU/WonBS5wMpms2fPTnGFWad06f3HqMF1NlcMjNEw5xczYj799FNzMuxQTgsIAOz961HzCxcuVG+//bYemckwF2XKlFH333+/wq/fASr1s846S/s1423w+BerO2gDdTQG/uc//xnLIn8NIAANEuyFGPQkQAFAz3rxDMkw/c6kIOtKqCFDhgSSZdgC4EMCh0E6TlPFMMW3334bSNmjiFQ39X+Mweeff04/JTEYBvx++OGHRhg2G4AykCxSAAgEa/6RokF5+umn848o5BggADRo0CCwVOFbf+DAgQpGgjqNT6Nh0rHHnGtF6Kb+j5UD+aIxYIyG3r9wIHXHHXfonUnHc1dAADBp3NmFeoNjoGnTphlVVAwB3HrrrYHmGf7h//KXv3gGglhRUIcAg0VbAtT/On8L3n33XVtQW10OeMKETw8GfQnsFQDw0uvUo9IXWXg5Q53An7xp9XLQQQep4447LnBQMC466aST1G233aawvGhUAa6zx44dG1XyvqeL4RadnzkYW5o2POZ7JWkeIQRzrOjIoDeBvQIADQD1rChYwX/wwQd6Zi5FrrDCYI0aNVJc4c8pCEngA++EcB4UhRX+qFGjtO4xZ0sa4/86B3yrfvrpJ52z6HzeoAW0aUjM1grdKwDQy5a+VQwvaBs2bNA3g0lyVqVKFa9BTnIqkENoFOBBEPYBcDf65ZdfhtYo//jjj4GUKapITXC+BC0Ag54E8B7aNCSmJ2V/crV3LQCuAeAP0CBigeET/LH37t07iOgDi7NZs2becrhhL3WMaZTDhw9X77zzjlq0aJE3NRGryQW1tsAzzzyjsJqjDQGNv64GgPF8YaNw5plnxh/itgYE8J1CvZjWYdEAXSRZ2LsaIKZW6a76i4SQJonC2c7LL7+sOnbsqEmOMssGGpQzzjhDYeGgKEOlSpVU165dVY8ePRQWNcKURSyBnG9A+RCnLUNoGFs3YTlw1B2GeypUqJBvFfJ+HwncdNNN6sUXX/QxRkYVJIG9AgB6MDpb/gYJwZS4mzRp4vVqg3C2EyQDrPAHb36YFqRLKFu2rOe5EFqKxo0bKyxwBJuF6tWrq2rVqnlLz1asWDFtdrE0sk09UZO+AxjmgTDHoAcBDIUNGDDAyEW89CAYfi72CgBYqhEGVQx6EzjnnHPUNddco3cmk+Tuu+++U5dffjmfsSRsdDmE9x/fAVMCVl2EzQdD9AQwbHTooYcqLNrEYA4BzwgQLz4bfzMq7ZVXXlHjxo0zI7NxuezZs6eRgktcEazfNM1qO4oZH9Y/BDkWENOV2fjnCC/C2zwBgDMAIqyBLJOGoHb33XcbOcUG/vwHDRqUZYl5eVgETBMAdHECFVb96JrO6NGj1QsvvKBr9pivFAQoAKSAo+sp9Hyee+45XbOXMl8333yzOuKII1Jew5PREDDNBgizPRiiJQAjWKzPwU5ktPWQa+oUAHIlF/F9mBEAJ0GmBVhvY+ngQw45xLSsW51feP4zTQAwYbaC1Q+NFA4LdEU9w8d2xkGWb68NQJCJMG7/CUDixpQbEz+CJUuWVI888oiCy2AGPQig8dfZ/W8ySiY++8nKYeoxzMLglD9Ta+/3fFMDYHD9LVmyxNjVtkqXLq2efPJJ1a9fP4NrwJ6sm9b7B3k4nWGIhgCmi0L1b5rQGA0tfVOlAKBv3WSUM0jhWHPbxAAhYNiwYTQM1KDyTHRkRA1ANA8OGv0rr7xSrVixIpoMMFXfCHAIwDeU0UWEKTgLFiyILgN5pAwPh1jND/77g3LVm0f2nLnVtBkAqBgT82zDAwX/C+h4MJhPgBoA8+vQ87B34403GmfEFY/+0ksvVQ899JAqX758/GFuh0TAVCtuqqBDekD2JDN58mQ1dOjQcBNlaoERKI4XiC9RYHxDixgL7jz66KOhpRdEQrAHePXVVz23vEHEzziTE4D639RvgKn5Tl4Teh9dv369GjJkCDUveldTVrkrTg+AWfHS+uLXX39dffLJJ1rnMV3mmjdvrv75z3/SODAdKB/Pm2gAGCs+BYAYiWB/0U5ASzd37txgE2LsoRKgABAq7uATw7zcqVOnBp9QgClUrlxZPfzww94fthmCJWCiAWCMCO1GYiSC/cW0XSyxzWAXAQoAdtWngmeua6+91or1uDEk8Pbbb6tu3bpZVkt6FcfU8X9QpAYz+Gfpq6++8oTx4FNiCmEToAAQNvEQ0lu0aJG6/vrrrfg47rPPPp6f8aeeekrVrVs3BHruJWGyBsC92gq3xHC3fNlll1nxLQmXnBmpUQAwo56yziXW5jZ1vYBkhYXr4H//+9/qjDPOUKVKlUp2CY/lSIAagBzBWX7bli1b1JlnnqnWrFljeUndLR4FAIvrHvN1TTcKjK+eihUrKkx3/Pjjj9VJJ52k4EOAIT8CMKIzWY1OG4D86r+ou/FMXHLJJQqzixjsJeBNA7S3eG6XDB93GAWauGhQqpqrV6+euv3229W//vUvdeSRR1IQSAUrzTnT1f+cBZCmgnM8je/Gp59+muPdvM0UAsW6du3629atW03JL/OZA4GqVauq1157TTVq1CiHu/W/BWsiwFjwnXfeURs3btQ/wxrlEEajJqt4Fy9erOBSmsE/AphODD//DPYTKNalS5fftm3bZn9JHS9hkyZNPCc7VapUsZYEfMNjeABrI8BjGUN6AhjnhYMXUwOM1MqWLWtq9rXL9zfffKNOP/10ZbpmSDuwmmaoWOfOnX9DL4DBfgIi7HmGgS4Y0c2ZM0d99NFHns9yU9dJCOOJhNBkstaEAoB/T8m0adPU0UcfbcUUYv+o2B1TsQMPPPA3kz2B2V09/pfu2GOPVffcc49TC+/Ae9mIESPUf//7XzVhwgT2buIeqw0bNhi9rC6Eu3LlysWViJu5EMAw2jHHHKMgUDG4Q4ACgDt1vbekmEoHa3oXA7RdGB4YN26cZxw5ffp0tXz5chdReGVet26dMtkGaP78+VxAKs+nFzYg6BjMmDEjz5h4u2kEStKK1rQqyz+/MPKBi11M83EtlClTRnXq1Mn7i5UdanBoCWbOnKmWLVvmrXO+atUq7xfnNm/erDBXPvYbu8+GX5OnAII/v1/5PYUY/jnllFPY+OeH0di7Sxqbc2Y8LwLPPvus13M6++yz84rHhpvhX6Bt27beX7bladeuXba3aHW96Q0o/QDk/jjt2LFDnXfeedZNE86diHt30hGQe3W+t8RYPhje9RjcJUANgJt1D43WRRddpGD1z+AuAToCcrfuPfXp3Xffrb7++muHKbhddNM1AKYLMFE8fWB2xRVXeFNmo0ifaepDoDhVaPpURhQ5wcfghhtuoBAQBXwN0jRdANAAoVFZQM//qquu8pxmGZVxZjYQAtQABILVrEgxDRRLCNP1p1n15kduKQD4QdGMOGKN/5tvvmlGhpnLwAlwNZXAEZuRADQBN998M9WCZlQXc7mHAAWYzB4FNP5XXnmleuuttzK7gVc5QYAaACeqObNCQgi49dZbPQ96md3Bq0ggWgIUANLzR+OPMX+sl8FAAvEEOA0wnga3vaVhb7vtNs9A8LjjjiMRywmY3oCanv+gHy80/pdddpm3cmbQaTF+8whgCOBX87LNHAdJAJoALLfLHkOQlBm3HwQoABRNER4ezzzzTDb+RSNy/gwEgB3OUyCAQgQgBGDNgMcff5ze1grR4QES0JsAXDyfdNJJ3mJYeueUuYuSAAWAKOkbkPZLL73kaQOgSmSwj4Dp04CpASj8TMKdNYbvfv7558IneYQE9hCQd/83CABcC5iPREoCH3zwgbr66qsVl41OiYknSSByAljcqn///mrq1KmR54UZ0JtATADgEIDe9aRF7rCc7pAhQxRUiwz2EDBdA2BPTeRfkv/9739ez3/x4sX5R8YYrCcg2jNPA0ABwPqq9qeAkyZNUueeey7XDPcHpxaxmC4AwFaFQal3331XDRgwQGFpXwYSyISAvPu7MQSwLZOLeQ0JgMDs2bPV6aefzvFFSx4H0wUAS6oh52LABuKhhx5Sl156KYfocqbo5o3Fixf/FWsBrHWz+Cx1rgTWr1/vrST2+uuv5xoF79OEgOkCgMtGgFu2bPE0csOGDeNMHU3eJ8OysR2eAFcZlmlmVwMCmBXw4IMPKqwmuGvXLg1yxCzkQkB6AbncxnsiJrB06VJvvP+TTz6JOCdM3lQC8u5vwdu/2tQCMN/RE8DY4yWXXKKgFWAwj4DpAoCLNgCY3te3b181YcIE8x445lgbAqL92wwBgBoAbarEzIz89NNP6uSTT1YTJ040swAO59r0IQDXqu6VV15RJ5xwglq5cqVrRWd5fSYg7/5qagB8hupqdFBJYpog7QLMegJKlChhVoYTcuuKDcCmTZvU+eef7y3bvWMHJ24lPAbczY3AStgAcAggN3i8K4EAPkywC4DToI0bNyac5a6OBEwXAHRk6neeJk+erA477DAFh1wMJOAXARn+W4JZAEv9ipDxkAAIfP31195UQXglY9CbgOk2ALZrALAg11FHHaXmzp2r94PE3BlHQN79ecXFiGaecTlnhrUnMH/+fDV48GCuRKZ5TZkuANhqBLhhwwZ18cUXe0v5YlU/BhLwm4AIzxOLV65cGaLlb35HzvhIAGsH3HXXXd6HjEZLej4PHALQr15Gjx7tWfn/61//0i9zzJE1BGT69qjiP/74I8RLmpRaU636FeSHH37wlibF0ACDXgSgATBdC6AX0dxzAxuaoUOHqmOOOUbNmzcv94h4JwmkISDv/G5ZM8KbBYBLOcCUBhhP50dg7dq1nnHgddddp6DeZNCHQMmSJfXJTJY5scUGYNq0aerII49UTz75pLJ1WCPLquXlARIQAWAzovfcgIkh4LwA02LUJLCXwPDhwz2fAVi5jEEPAiYPA5guAMCLJhp9OPaBtT8DCYRBQAQAb/afJwCIxDk7jESZBgmAwJIlS9R5552nbrnlFqOXF4YvdhuCyQLA5s1eR8bIapgyZYpn4Q+1P+f2G1mFxmZa3vn5yLwnAIg0QNHT2Ko0M+PouX300Udq4MCB6osvvjCyELYMZZg8BGBiHUBwvO2227xe/7hx44x89plpswlIm++pYD0BQIoyyeziMPemEli1apW6/vrrvelO0AyYFGwx1DJZAJg1a5ZJj4z66quvVM+ePdVzzz2nsKAWAwlERMCzyPYEgOrVq0+TTGyPKCNMlgTUyJEjPR/n8HVuyocRhls2BJMFgEmTzOi7LF++XF1wwQXqtNNOUwsXLrThsWEZDCZQqlSp/yD7ngAwYsSIXWIIONXg8jDrFhCAw5OHH37YGxaAQKB7+O6773TPYkb5k3dfmSoEwKhU54Cx/RdeeEH16NFDvf/++zpnlXlzhIC861tEc+Z1+GNDAJh6wqXcHHkAdC8m3J5edtll6oorrlDwKKhjWLNmjRozZoyOWcspT6VLl87pvqhvWrBggbarUH788cdew3/zzTdzbYyoHxSmv5eAGAAuiu3sFQDkgBm6tFjO+Ws9gW+//dYbFrj77ru1my3w5ptvGjNUkcmDIirBTC7T8prnn39eq3xhWOL4449X5557roKAwkACOhEQAWBvZ3+vACBWgT/plEnmhQRAAPOk3333XXXccccpNLrYjzqsX7/ey0vU+fAzfVOHAMDgvffeUzoYA2JJ7GuuuUYdfvjhCt4vGUhARwLS1n8ay1ex2MZ+++1Xply5cutlv0zsGH9JQDcCDRo08NYWgLtUeZAjyR7WN7DNTzumZcJQzVTHOr169fLqBPYMYYfVq1erJ554Qr388stq27ZtYSfP9EggKwIy3F9FhjA9d6wlYnfKgV/r1KlztOw3iB3jLwnoRgDzvv/zn/+ozz//XFWrVk01a9ZMhfnRR9qPP/64bljyzg8YYvEmU2ZgJBYYqvby5currl27Jp4KbH/dunXqkUceURdddJHX49dBOxVYYRmxFQRE07dRFma7M1aYvQIADtStW7eV/BwUO8lfEtCVAD6+X375pcICQzVr1lRNmzYNXBCYMWOGZ5hoq9c2NGA7d+7UtcrT5guzMtq0aaNEm5n22nwu2LRpk3r66ae9aX2wUzGZWT4ceK95BMTYd7x0ov4ey3kBAaBWrVoVpCdwSuwkf0lAdwKwxocnQXyIq1SpEpggMHXqVHXhhRdabc0N9b/JKmzk/5NPPlEtWrRQ+++/v++PLp61Z555xuvxQ/iExoSBBEwiULZs2Rel8zQilucCAoBoANbIietjJ/lLAqYQgEdBzAmHe2Gos9EA+GXYBu9tV199tfWrGMKmwvT1DTCE8eGHH3qzRnr37q38WOcAjnuGDRvmTU0VnykK/ioYSMA0AvguVqxY8TyxWVkby3shi5m2bdtiXYDWsQv4SwImEoB9ALyunXrqqapq1ao5FQFW3Y899phnb5BTBAbeBEHKFpV2hw4d1L333puzXQAW64GqHw58OL5v4MPMLBcgIFN9t8g3rUL8wUICQLt27R4SVdp18RdxmwRMJSAzW9SAAQO8v1atYOKSPsDF79tvv+1pE1xT827cuFFhjNuWgF4PfO8PGTLEm54nKtCURcMQCIaUXn/9dYXevqmzIlIWkiedJCDP/o+LFi0qYOOXTADoKw/9V04SYqGtJtCoUSPVuXNn1bp1a1W7dm1Vo0YNr2eHBk9eDDV9+nQ1atQotXjxYqs5pCocBB6MddsY0Ph369bNq//GjRt7miEMe0DrAW3P2LFjvT/Th0FsrDuWKX8CMkvmSpkt81R8TIUEAPk4lpaXYpVcVCn+Qm6TAAnYTwA93hUrVsA1uP2FZQlJwBECogn7TYYAKsqKq1vii1zIk4qMe+2QC76Jv4jbJEACbhCAytzUdQHcqCGWkgSyJyCNv7T9BRt/xFJIAMBB+Qh8jl8GEiAB9wikGyd3jwhLTAJmE5AZUUmH9YsSAD6U4lIHaHadM/ckkBOBMmXKBO5UKaeM8SYSIIGsCUCrJ2FYshuTCgATJkyAFdT3yW7gMRIgAbsJwDDO5NUB7a4dlo4EsiMg7/IaMf77JdldSQWAPRe+newGHiMBErCfAIcB7K9jltANAqL+/6yokhYpAIgV8Lty069F3cjjJEAC9hKA/4Q9qkN7C8mSkYDlBPYY9d5XVDGLFABkNsAyuWlkUTfyOAmQgL0EMAzA2QD21i9L5gYBUf+vnjVrVlL1PwgUKQDgpMwJfgu/DCRAAu4RgBaAgQRIwFwCov5/L1XuUwoA4v/6Hbl5W6oIeI4ESMBOArAD4DCAnXXLUtlPYI/6/65UJU0pAIhP9NVyc0oJIlXkPEcCJGAuAXxAqAUwt/6Yc7cJyBCeaP9nLUpFIaUAgBvFGPCFVBHwHAmQgL0EKADYW7csmd0ERP3/RLoSFloLIMkNxdq0aTNdegPNk5zjIRIgAcsJYG2AX3/lhCDLq5nFs4iANP47li1bhqUvf0tVrLQaAEQgjf+LqSLhORIgAXsJVKhQYAlxewvKkpGAJQTE+v8TKUrKxh9FzUQAwGyAf8i1WCSIgQRIwDEC9AngWIWzuEYT2GP8d0MmhchIAJg8efJyiZRTAjMhymtIwDIC8AlAWwDLKpXFsZaAGP/NmD179qxMCpiRAICIRAvwEH4yiZTXkAAJ2EWAwwB21SdLYy8BGf+/KdPSZWIEuDeutm3bDpedI/Ye4AYJkIAzBNasWaO2b9/uTHlZUBIwjYD0/lcuWbKkdqb5zlgDgAhFFfhIphHzOhIgAbsIUAtgV32yNPYREOO/B7IpVVYaAEQsWoDx8tM+m0R4LQmQgB0EVq1apXbu3GlHYVgKErCIgKj+t8rUP0zZyXioPisNAFiJMeCjFjFjUUiABLIgQC1AFrB4KQmESEDU/89Lchk3/sha1gJAixYtXpf7puFmBhIgAbcIYH0A6Wm4VWiWlgQ0JyCq/+21atXKaOpffFFKxO9ksv3LL7/8VqdOnbVy7YmZXM9rSIAE7CGAOcaYFrhtG9cIs6dWWRLTCZQpU+YJWbvn82zLkbUNwJ4EiostwDjZbpdtgryeBEjAfAIrV65Uslqo+QVhCUjAcAKikdsmY/+VpBhZv5BZDwHsYbVbegJ3G86N2ScBEsiRQKVK+N4wkAAJRE1Aev+wy8u68Ue+c9UAePeKFmCMbHTEDgMJkIBbBFavXq127KCHcLdqnaXViYCM/W9aunRpZclTVsZ/sTLkqgHA/Vgk6LpYRPwlARJwiwC1AG7VN0urHwHp/d8qucqp8UdpsjYCjEewfPnyuWIQeKAcaxF/nNskQAL2EyhRooRnB0BbAPvrmiXUj4BM+1u8cOHCU/LJWT4aAC9dWSPgGtmgf9B8aoH3koChBKAFwMwABhIggfAI4J2T3v+5+aaYlwYAia9YsWJt3bp1q8jmQflmhveTAAmYRQBTAnfv3k3vgGZVG3NrOAHxx/HjggULbsm3GHlrAJABWSAEMwKW5ZsZ3k8CJGAeAWgBMBzAQAIkEDwBEbp3y/vmix8eXwSA6dOnb5Ri3xx80ZkCCZCAbgSgjqRBoG61wvzYSkBU/8/Nnz9/qR/l83Pwrtie5YIP9yNjjIMESMAsApwWaFZ9MbfmERDDv7Wy3G9NyfluP3LviwZgT0YwLfBC2d7sR8YYBwmQgFkEqlSBKRADCZBAEASgaZN5/1D9+9L4I4++DtzJtMB1Mi3wV4mXWgDQZSABhwjAIBAfKToHcqjSWdTQCIjh38cy7e8+PxP0UwPg5atGjRqPyAY8BDKQAAk4RgDLBUsvxbFSs7gkECwB8fe/VVI42e9UfBcARowYsWvPUMBOvzPL+EiABPQmAA1A1apV6RtA72pi7gwjUK5cubMXLVoEIcDX4OsQQCxnMhSwVHwDYCigb+wYf0mABNwggKEABA4FuFHfLGWwBET1/4nM+YfLX9+D7xqAWA4nTpz4gPQGvont85cESMAdAhUrVlRisexOgVlSEgiAgKj+14tx7cAAovaiDEwAkNhhqXiW/K3xUuI/EiABpwhgKCCmDXCq4CwsCfhAQDrQv4nDnz9NmTIlsCU3gxQAlGgBFu2xB/ABB6MgARIwiQC8A1aujJVKGUiABLIlIOP+TyxevPjHbO/L5vpAbADiMyD2AFNlamATOdYh/ji3SYAE7CeAGQG//vqrt2qg/aVlCUnAHwIy7v+LTPk7zp/Yio4lUA1ALNmNGzdeItucGhgDwl8ScIgAhgI4NdChCmdR8yKAKX8y7t8rr0gyvDkUAWDevHnbZM3wE2Xp4FUZ5ouXkQAJWESgWrVqtAewqD5ZlGAIYNxfev9Hybh/KLZzoQgAQDV16tT58nO6/GF6IAMJkIBDBGAPQFfBDlU4i5oTARn3v1M6zCNyujmHmwK3AYjP04oVK+aIPQAO9Yk/zm0SIAH7CYhq0ysk/QPYX9csYfYEpOc/XMb9L8j+ztzvCFUAQDZFCBgpQkB72WyZe7Z5JwmQgIkEZClTGgWaWHHMc6AE5L0Qg//FnSWR3wJNKCHy0IYA4tLdLU5CMBQwKu4YN0mABBwhgKEAGgU6UtksZloCohnbIr3/A+VC31b5S5vonguKZXqh39d17NixlhgG/iDx7ud33IyPBEhAbwKYGrh69WpPG6B3Tpk7EgiOgNjG7CpfvnynuXPnTgwulaJjjkID4OVm3LhxK2VWAOY5ri06ezxDAiRgIwEYBXJmgI01yzJlSgAW/2L0d1JUjT/yGZkAgMQnT548VX4GyN927DOQAAm4QwDDABACGEjANQLS+Cvp+d8gFv8fRFn20I0AEwsrRoHza9euPUOAYMGDSAWSxLxxnwRIIFgC0ARAENi2bVuwCTF2EtCEwJ7G/7H58+ffEXWWIhcAAECEgCmyfPA82Txe/iKzS5C0GUiABEImgOmB+KMQEDJ4JhcJAen5vyLL+8I7buRBCwEAFGTNgAkyPXC1bB4VORVmgARIIFQC0AJAG7B9O0cDQwXPxEIlIGP+H8lc/1NCTTRFYtoIAMijaAJGiyZgvWz2T5FnniIBErCQAIQAqEfpKMjCymWRlDT+cPRztE4otBIAAEY0AaNECMAwwKHYZyABEnCHQOnSpb3CUghwp85dKKnM8/960aJF/XQrq3YCAACJEDBChgO2yuYRugFjfkiABIIlAG+B1AQEy5ixh0dAGv//SON/eHgpZp6SlgIAsi/DAd/L7IDl8iGATQANAzOvU15JAsYTgCagePHitAkwvibdLoCo/T+Uxv9PulLQVgAAMBEC/ieagNmyCYdBnCIIKAwk4AgBCAE0DHSksi0rJjRY0vi/LGP+p+lcNK0FAIATIWCSaAKmC1BMEdQ+vzpXNvNGAqYRgGEg/QSYVmtu5xeNv0z1e1Sm+l2mOwljVOutW7c+WMC+L381dYfK/JEACfhLAEaBa9euVbt3h75eir8FYWxWE5D26TcZ879Wev6PmVBQYwQAwBQhYD8B/Kn8NTcBLvNIAiTgH4GdO3d6QgAWEmIgAd0IiM3Kr9LzP0nc+76vW96Kyo9RAgAK0bJlyxoyNviBLCR0cFGF4nESIAE7CaDxhyYAwgADCehCQDxZbpYx/4OiXNgnFxbGjamvWrVqa4MGDd6UD8EBUuBWuRSa95AACZhJADMD5EOrZClx78/MUjDXNhGQDumSSpUqtZw9e/Zc08plnAYgDnCxtm3b3iD798qfcYJMXDm4SQIkkAOBTZs2qY0bN+ZwJ28hAX8IyHj/KJnm10ti2+VPjOHGYnTDCV8BtWrVGik2AZhnWSFcdEyNBEggSgKYJogZAjAQlCHBKLPCtB0jIJqo30QTdacY+50lRTfWMtVkDcDeR65NmzYNRQj4lxzosvcgN0iABJwgALuANWvWcEjAidqOvpDim2Kr9PyPluV8v4k+N/nlwGgNQKzoognYsO+++74mPYF6cqxj7Dh/SYAE7CcAu4AKFSp4UwRpHGh/fUdZQnFTPVMEgAOk5z81ynz4lbYVGoB4GKINGCjagL/JsRrxx7lNAiRgP4Ft27ap9evX01+A/VUdagmlTcH8/mek4b8i1IQDTsw6AQC8xF9AXekVvCybXFY44AeI0ZOAbgQwJLBu3TouK6xbxRiaH5nit156/n8Slf+PhhahyGxbKQDsKW2xdu3aXSnGQcNk//c1RovEwBMkQAI2EYBR4ObNmxVmCtBA0KaaDbcsYuj3pfT6j5ZUrXQ8YbMA4D0pog3oINqAv8tOp3AfHaZGAiQQNQHYBGBIgLYBUdeEWenD0E96/eeIP/+3zcp5drm1wggwVZFXrly57IADDnhJxgbXyHU95Y/agFTAeI4ELCKA1QThOEjGcDkkYFG9BlUUPCcy1v+FNP4dReU/Iah0dInXeg1APGgZEmgq6sDn5dgR8ce5TQIkYD8BeA+ENgB+AxhIIJGA+JVYK43/yXPmzPkq8Zyt+04JAHsqER4Ez5btB+Svjq0Vy3KRAAkkJ7B161bPgyCMBRlIQIaId0vD/3dR91/kGg3rhwCSVaj4DRhft27dZ0XdA8OO7vJXMtl1PEYCJGAfAXgPlFXbPONAaAUY3CUgw0NjZJiomxj6veEiBRc1AAXqWYwEG8kDcI8MDZxZ4AR3SIAErCcAAQDrCcB/AIM7BETdv1wEwdNs8OaXT605LwDE4Il9QF8RAh6Ufc4WiEHhLwk4QgB2ARs2bOBsAcvrWxr9zdL43y4N/6OWFzWj4lEASMAk9gGHyyEIAgcmnOIuCZCA5QSgCYBGgEMDdlW0OPPZJg3/EzLO/xcpGVeO2lO9FACSP+dwInSMaASGyun2yS/hURIgAVsJUBCwo2alx79dGv6XatasedWYMWOsdOaTT01RAEhBb9CgQSWmTZt2qlxyvfxREEjBiqdIwEYCEATgTZCOhMyqXWn4t0jD/7yo+vHt5nSPIqqPAkARYBIPt2/fvqdoBG6UP7iFJLdEQNwnAYsJbN++3XMtjF8GfQlIo79O1P2Piaof2luq+tNUFRuyNIAST8tqg+1k+uA1cvw0+aNXwURA3CcBiwnANgBrDMCXgHQGLC6pOUWD9z5p+GdIr/+GefPmfWBOzqPPKQWAHOtAjAWrya2D5O9y+WubYzS8jQRIwEACu3fv9oSALVu20GAwovqTnv4Oafi/lN9rxHvfjIiyYXSyFAB8qD4RBjB18EL5O0P+KvgQJaMgARIwhADsAyAIUCsQToVJo79IGv2nRM3/sKS4O5xU7UyFAoCP9dqhQ4eq4l4UWoGT5a+P/DnpadFHpIyKBIwhgCEBCAEwHIRfAQ4R+FN1UPFLg79a/j6QRXrumDVr1iJ/YmYsFAACegbEw2B18TB4jEQ/SD4E/eWX7oYDYs1oSUA3AhgigCBAYSC3mkGjL2P666XRHy49/jul0f8lt5h4VyoCFABS0fHpXKtWrerJg3yMPNT9RRiAo6HKPkXNaEiABDQnAGEAswdiwgD2GQoTkO/jb9LoL5a/L2T7YTHom1b4Kh7xkwAFAD9pZhBXp06dSsnH4GAIA3L5n+SvXQa38RISIAELCGBYADYDEAgwTIBtV4cK5BsI1f4W0ZSOlxX53hYmf1++fPlmC6rZmCJQAIi4qvbbb7/KsiJVV3kZ4GfgYMkO/spFnC0mTwIkEAIBNP4QBGICAaYZ2ioQ7GnwN0mjP122v5ae/guzZ8+eFQJmJlEEAQoARYCJ6rAIBGLnUqazSMRdJQ/QDmCKYWv5Kyt/DCRAAhYTQOMPIQCaAQgGsW0Ti7ynd79IvmWTpcH/Qgwk31i5cuUmE8tia54pABhQs3tcEjeXjwOcELWRLDeT3yay31S268kf69GAemQWSSAXAhAKZHaRJwxAIIjfjtqeQBr33fK3RRr7lfI7T75L4+XvW8nn8EWLFm3Npby8JzwCbDjCYx1IStAYlC9fvolE3lQ+FHXlr4a8iDXkw1BLXsQachx/VeSvkvwh4BczEvAXOyabDCRAAqYRiAkHEAQgGPz/QBjEBmGQHDIN8htIDIbR/QosN0BHG4JWKIIq9b/A8uMXkP0NyP4MZL8Hst8C5+ufAc28BxS7CLTrOLCSfwcUHwVDNAQA+K4pwIBT2RoAAAAASUVORK5CYII=;" vertex="1" parent="1">
          <mxGeometry x="200" y="40" width="80" height="80" as="geometry" />
        </mxCell>
        <mxCell id="lvz8d1WP9f2KZza9czsT-31" value="" style="endArrow=classic;html=1;rounded=0;entryX=0;entryY=0.5;entryDx=0;entryDy=0;exitX=0.5;exitY=0;exitDx=0;exitDy=0;dashed=1;edgeStyle=orthogonalEdgeStyle;flowAnimation=1;" edge="1" parent="1" source="lvz8d1WP9f2KZza9czsT-25" target="lvz8d1WP9f2KZza9czsT-29">
          <mxGeometry width="50" height="50" relative="1" as="geometry">
            <mxPoint x="145" y="130" as="sourcePoint" />
            <mxPoint x="195" y="80" as="targetPoint" />
          </mxGeometry>
        </mxCell>
        <mxCell id="lvz8d1WP9f2KZza9czsT-32" value="" style="shape=image;imageAspect=0;aspect=fixed;verticalLabelPosition=bottom;verticalAlign=top;image=https://cdn.icon-icons.com/icons2/2699/PNG/512/jenkins_logo_icon_170552.png;" vertex="1" parent="1">
          <mxGeometry x="400" y="40" width="80" height="80" as="geometry" />
        </mxCell>
        <mxCell id="lvz8d1WP9f2KZza9czsT-35" value="" style="endArrow=classic;html=1;rounded=0;exitX=1;exitY=0.5;exitDx=0;exitDy=0;entryX=0;entryY=0.5;entryDx=0;entryDy=0;dashed=1;flowAnimation=1;" edge="1" parent="1" source="lvz8d1WP9f2KZza9czsT-25" target="lvz8d1WP9f2KZza9czsT-24">
          <mxGeometry relative="1" as="geometry">
            <mxPoint x="400" y="310" as="sourcePoint" />
            <mxPoint x="500" y="310" as="targetPoint" />
          </mxGeometry>
        </mxCell>
        <mxCell id="lvz8d1WP9f2KZza9czsT-36" value="Push Image" style="edgeLabel;resizable=0;html=1;align=center;verticalAlign=middle;" connectable="0" vertex="1" parent="lvz8d1WP9f2KZza9czsT-35">
          <mxGeometry relative="1" as="geometry" />
        </mxCell>
        <mxCell id="lvz8d1WP9f2KZza9czsT-39" value="" style="endArrow=classic;html=1;rounded=0;exitX=1;exitY=0.5;exitDx=0;exitDy=0;dashed=1;flowAnimation=1;" edge="1" parent="1" source="lvz8d1WP9f2KZza9czsT-29" target="lvz8d1WP9f2KZza9czsT-32">
          <mxGeometry relative="1" as="geometry">
            <mxPoint x="400" y="340" as="sourcePoint" />
            <mxPoint x="500" y="340" as="targetPoint" />
          </mxGeometry>
        </mxCell>
        <mxCell id="lvz8d1WP9f2KZza9czsT-40" value="Githubhook" style="edgeLabel;resizable=0;html=1;align=center;verticalAlign=middle;" connectable="0" vertex="1" parent="lvz8d1WP9f2KZza9czsT-39">
          <mxGeometry relative="1" as="geometry" />
        </mxCell>
        <mxCell id="lvz8d1WP9f2KZza9czsT-41" value="return" style="html=1;verticalAlign=bottom;endArrow=open;dashed=1;endSize=8;rounded=0;exitX=1;exitY=0.5;exitDx=0;exitDy=0;entryX=0.5;entryY=1;entryDx=0;entryDy=0;edgeStyle=orthogonalEdgeStyle;flowAnimation=1;" edge="1" parent="1" source="lvz8d1WP9f2KZza9czsT-32" target="lvz8d1WP9f2KZza9czsT-29">
          <mxGeometry relative="1" as="geometry">
            <mxPoint x="620" y="230" as="sourcePoint" />
            <mxPoint x="410" y="310" as="targetPoint" />
          </mxGeometry>
        </mxCell>
        <mxCell id="lvz8d1WP9f2KZza9czsT-49" style="edgeStyle=orthogonalEdgeStyle;rounded=0;orthogonalLoop=1;jettySize=auto;html=1;exitX=0.5;exitY=1;exitDx=0;exitDy=0;entryX=0.5;entryY=0;entryDx=0;entryDy=0;dashed=1;flowAnimation=1;" edge="1" parent="1" source="lvz8d1WP9f2KZza9czsT-42" target="lvz8d1WP9f2KZza9czsT-47">
          <mxGeometry relative="1" as="geometry" />
        </mxCell>
        <mxCell id="lvz8d1WP9f2KZza9czsT-42" value="" style="shape=image;verticalLabelPosition=bottom;labelBackgroundColor=default;verticalAlign=top;aspect=fixed;imageAspect=0;image=https://uxwing.com/wp-content/themes/uxwing/download/brands-and-social-media/kubernetes-icon.png;" vertex="1" parent="1">
          <mxGeometry x="640" y="200" width="82.58" height="80" as="geometry" />
        </mxCell>
        <mxCell id="lvz8d1WP9f2KZza9czsT-44" value="" style="shape=image;verticalLabelPosition=bottom;labelBackgroundColor=default;verticalAlign=top;aspect=fixed;imageAspect=0;image=https://static-00.iconduck.com/assets.00/prometheus-icon-511x512-1vmxbcxr.png;imageBorder=none;" vertex="1" parent="1">
          <mxGeometry x="440" y="360" width="79.84" height="80" as="geometry" />
        </mxCell>
        <mxCell id="lvz8d1WP9f2KZza9czsT-46" value="" style="shape=image;verticalLabelPosition=bottom;labelBackgroundColor=default;verticalAlign=top;aspect=fixed;imageAspect=0;image=https://cdn.iconscout.com/icon/free/png-256/free-grafana-3629403-3032396.png;imageBorder=none;" vertex="1" parent="1">
          <mxGeometry x="560" y="360" width="80" height="80" as="geometry" />
        </mxCell>
        <mxCell id="lvz8d1WP9f2KZza9czsT-47" value="" style="rounded=0;whiteSpace=wrap;html=1;fillColor=none;" vertex="1" parent="1">
          <mxGeometry x="425" y="350" width="230" height="100" as="geometry" />
        </mxCell>
      </root>
    </mxGraphModel>
  </diagram>
</mxfile>
